<mxfile host="app.diagrams.net" agent="Mozilla/5.0 (Windows NT 10.0; Win64; x64) AppleWebKit/537.36 (KHTML, like Gecko) Chrome/130.0.0.0 Safari/537.36 Edg/130.0.0.0" version="24.8.6">
  <diagram id="R2lEEEUBdFMjLlhIrx00" name="Page-1">
    <mxGraphModel dx="1698" dy="457" grid="1" gridSize="10" guides="1" tooltips="1" connect="1" arrows="1" fold="1" page="1" pageScale="1" pageWidth="850" pageHeight="1100" background="none" math="0" shadow="1" extFonts="Permanent Marker^https://fonts.googleapis.com/css?family=Permanent+Marker">
      <root>
        <mxCell id="0" />
        <mxCell id="1" parent="0" />
        <mxCell id="y-TOsAkke1c8q-5eCv3_-7" value="ENTITY" parent="0" />
        <mxCell id="y-TOsAkke1c8q-5eCv3_-8" value="EMPLOYEE" style="whiteSpace=wrap;html=1;align=center;fillColor=#e1d5e7;strokeColor=#9673a6;" vertex="1" parent="y-TOsAkke1c8q-5eCv3_-7">
          <mxGeometry x="-585" y="210" width="100" height="40" as="geometry" />
        </mxCell>
        <mxCell id="y-TOsAkke1c8q-5eCv3_-19" value="LOAN" style="whiteSpace=wrap;html=1;align=center;fillColor=#e3c800;fontColor=#000000;strokeColor=#B09500;" vertex="1" parent="y-TOsAkke1c8q-5eCv3_-7">
          <mxGeometry x="-490" y="4100" width="100" height="40" as="geometry" />
        </mxCell>
        <mxCell id="y-TOsAkke1c8q-5eCv3_-40" value="ATTENDANCE" style="whiteSpace=wrap;html=1;align=center;fillColor=#d80073;fontColor=#ffffff;strokeColor=#A50040;" vertex="1" parent="y-TOsAkke1c8q-5eCv3_-7">
          <mxGeometry x="-460" y="1310" width="100" height="40" as="geometry" />
        </mxCell>
        <mxCell id="y-TOsAkke1c8q-5eCv3_-41" value="COMPLIANCE" style="whiteSpace=wrap;html=1;align=center;fillColor=#60a917;strokeColor=#2D7600;fontColor=#ffffff;" vertex="1" parent="y-TOsAkke1c8q-5eCv3_-7">
          <mxGeometry x="-430" y="1840" width="100" height="40" as="geometry" />
        </mxCell>
        <mxCell id="y-TOsAkke1c8q-5eCv3_-42" value="SALARY" style="whiteSpace=wrap;html=1;align=center;fillColor=#0050ef;strokeColor=#001DBC;fontColor=#ffffff;" vertex="1" parent="y-TOsAkke1c8q-5eCv3_-7">
          <mxGeometry x="-455" y="640" width="100" height="40" as="geometry" />
        </mxCell>
        <mxCell id="y-TOsAkke1c8q-5eCv3_-312" value="PAYROLL" style="whiteSpace=wrap;html=1;align=center;fillColor=#fa6800;fontColor=#000000;strokeColor=#C73500;" vertex="1" parent="y-TOsAkke1c8q-5eCv3_-7">
          <mxGeometry x="-500" y="3550" width="100" height="40" as="geometry" />
        </mxCell>
        <mxCell id="y-TOsAkke1c8q-5eCv3_-313" value="LEAVE" style="whiteSpace=wrap;html=1;align=center;fillColor=#e51400;fontColor=#ffffff;strokeColor=#B20000;" vertex="1" parent="y-TOsAkke1c8q-5eCv3_-7">
          <mxGeometry x="-442.5" y="2950" width="100" height="40" as="geometry" />
        </mxCell>
        <mxCell id="y-TOsAkke1c8q-5eCv3_-314" value="&lt;b&gt;BANK&lt;/b&gt;" style="whiteSpace=wrap;html=1;align=center;fillColor=#1ba1e2;fontColor=#ffffff;strokeColor=#006EAF;" vertex="1" parent="y-TOsAkke1c8q-5eCv3_-7">
          <mxGeometry x="-427.5" y="2430" width="100" height="40" as="geometry" />
        </mxCell>
        <mxCell id="y-TOsAkke1c8q-5eCv3_-457" value="BONUS" style="whiteSpace=wrap;html=1;align=center;fillColor=#a0522d;fontColor=#ffffff;strokeColor=#6D1F00;" vertex="1" parent="y-TOsAkke1c8q-5eCv3_-7">
          <mxGeometry x="-470" y="4630" width="100" height="40" as="geometry" />
        </mxCell>
        <mxCell id="y-TOsAkke1c8q-5eCv3_-458" value="SALARY_SLIP" style="whiteSpace=wrap;html=1;align=center;fillColor=#76608a;fontColor=#ffffff;strokeColor=#432D57;" vertex="1" parent="y-TOsAkke1c8q-5eCv3_-7">
          <mxGeometry x="-460" y="5125" width="100" height="40" as="geometry" />
        </mxCell>
        <mxCell id="y-TOsAkke1c8q-5eCv3_-13" value="ATTRIBUTES" parent="0" />
        <mxCell id="y-TOsAkke1c8q-5eCv3_-62" value="GNDR" style="ellipse;whiteSpace=wrap;html=1;align=center;" vertex="1" parent="y-TOsAkke1c8q-5eCv3_-13">
          <mxGeometry x="-605" y="320" width="100" height="40" as="geometry" />
        </mxCell>
        <mxCell id="y-TOsAkke1c8q-5eCv3_-63" value="" style="endArrow=none;html=1;rounded=0;flowAnimation=1;" edge="1" parent="y-TOsAkke1c8q-5eCv3_-13" source="y-TOsAkke1c8q-5eCv3_-62" target="y-TOsAkke1c8q-5eCv3_-8">
          <mxGeometry relative="1" as="geometry">
            <mxPoint x="-502" y="203" as="sourcePoint" />
            <mxPoint x="-609" y="160" as="targetPoint" />
          </mxGeometry>
        </mxCell>
        <mxCell id="y-TOsAkke1c8q-5eCv3_-64" value="DOB" style="ellipse;whiteSpace=wrap;html=1;align=center;" vertex="1" parent="y-TOsAkke1c8q-5eCv3_-13">
          <mxGeometry x="-685" y="370" width="100" height="40" as="geometry" />
        </mxCell>
        <mxCell id="y-TOsAkke1c8q-5eCv3_-65" value="" style="endArrow=none;html=1;rounded=0;flowAnimation=1;" edge="1" parent="y-TOsAkke1c8q-5eCv3_-13" source="y-TOsAkke1c8q-5eCv3_-64" target="y-TOsAkke1c8q-5eCv3_-8">
          <mxGeometry relative="1" as="geometry">
            <mxPoint x="-602" y="218" as="sourcePoint" />
            <mxPoint x="-617" y="160" as="targetPoint" />
          </mxGeometry>
        </mxCell>
        <mxCell id="y-TOsAkke1c8q-5eCv3_-66" value="EMP_LNM" style="ellipse;whiteSpace=wrap;html=1;align=center;" vertex="1" parent="y-TOsAkke1c8q-5eCv3_-13">
          <mxGeometry x="-765" y="310" width="100" height="40" as="geometry" />
        </mxCell>
        <mxCell id="y-TOsAkke1c8q-5eCv3_-67" value="" style="endArrow=none;html=1;rounded=0;flowAnimation=1;" edge="1" parent="y-TOsAkke1c8q-5eCv3_-13" source="y-TOsAkke1c8q-5eCv3_-66" target="y-TOsAkke1c8q-5eCv3_-8">
          <mxGeometry relative="1" as="geometry">
            <mxPoint x="-592" y="228" as="sourcePoint" />
            <mxPoint x="-626" y="160" as="targetPoint" />
          </mxGeometry>
        </mxCell>
        <mxCell id="y-TOsAkke1c8q-5eCv3_-68" value="" style="endArrow=none;html=1;rounded=0;flowAnimation=1;" edge="1" parent="y-TOsAkke1c8q-5eCv3_-13" source="y-TOsAkke1c8q-5eCv3_-77" target="y-TOsAkke1c8q-5eCv3_-8">
          <mxGeometry relative="1" as="geometry">
            <mxPoint x="-457.83389174587205" y="262.20735708113875" as="sourcePoint" />
            <mxPoint x="-590" y="160" as="targetPoint" />
          </mxGeometry>
        </mxCell>
        <mxCell id="y-TOsAkke1c8q-5eCv3_-69" value="ADDR" style="ellipse;whiteSpace=wrap;html=1;align=center;" vertex="1" parent="y-TOsAkke1c8q-5eCv3_-13">
          <mxGeometry x="-360" y="360" width="100" height="40" as="geometry" />
        </mxCell>
        <mxCell id="y-TOsAkke1c8q-5eCv3_-70" value="" style="endArrow=none;html=1;rounded=0;flowAnimation=1;" edge="1" parent="y-TOsAkke1c8q-5eCv3_-13" source="y-TOsAkke1c8q-5eCv3_-69" target="y-TOsAkke1c8q-5eCv3_-8">
          <mxGeometry relative="1" as="geometry">
            <mxPoint x="-300.29" y="158" as="sourcePoint" />
            <mxPoint x="-599" y="160" as="targetPoint" />
          </mxGeometry>
        </mxCell>
        <mxCell id="y-TOsAkke1c8q-5eCv3_-71" value="EMAIL" style="ellipse;whiteSpace=wrap;html=1;align=center;" vertex="1" parent="y-TOsAkke1c8q-5eCv3_-13">
          <mxGeometry x="-330" y="300" width="100" height="40" as="geometry" />
        </mxCell>
        <mxCell id="y-TOsAkke1c8q-5eCv3_-72" value="" style="endArrow=none;html=1;rounded=0;flowAnimation=1;" edge="1" parent="y-TOsAkke1c8q-5eCv3_-13" source="y-TOsAkke1c8q-5eCv3_-71" target="y-TOsAkke1c8q-5eCv3_-8">
          <mxGeometry relative="1" as="geometry">
            <mxPoint x="-290.29" y="168" as="sourcePoint" />
            <mxPoint x="-581" y="160" as="targetPoint" />
          </mxGeometry>
        </mxCell>
        <mxCell id="y-TOsAkke1c8q-5eCv3_-73" value="DOJ" style="ellipse;whiteSpace=wrap;html=1;align=center;" vertex="1" parent="y-TOsAkke1c8q-5eCv3_-13">
          <mxGeometry x="-805" y="110" width="100" height="40" as="geometry" />
        </mxCell>
        <mxCell id="y-TOsAkke1c8q-5eCv3_-74" value="" style="endArrow=none;html=1;rounded=0;flowAnimation=1;" edge="1" parent="y-TOsAkke1c8q-5eCv3_-13" source="y-TOsAkke1c8q-5eCv3_-73" target="y-TOsAkke1c8q-5eCv3_-8">
          <mxGeometry relative="1" as="geometry">
            <mxPoint x="-280.29" y="178" as="sourcePoint" />
            <mxPoint x="-665" y="136" as="targetPoint" />
          </mxGeometry>
        </mxCell>
        <mxCell id="y-TOsAkke1c8q-5eCv3_-75" value="DESG" style="ellipse;whiteSpace=wrap;html=1;align=center;" vertex="1" parent="y-TOsAkke1c8q-5eCv3_-13">
          <mxGeometry x="-630" y="100" width="100" height="40" as="geometry" />
        </mxCell>
        <mxCell id="y-TOsAkke1c8q-5eCv3_-76" value="" style="endArrow=none;html=1;rounded=0;flowAnimation=1;" edge="1" parent="y-TOsAkke1c8q-5eCv3_-13" source="y-TOsAkke1c8q-5eCv3_-75" target="y-TOsAkke1c8q-5eCv3_-8">
          <mxGeometry relative="1" as="geometry">
            <mxPoint x="-175.28999999999996" y="18" as="sourcePoint" />
            <mxPoint x="-618" y="120" as="targetPoint" />
          </mxGeometry>
        </mxCell>
        <mxCell id="y-TOsAkke1c8q-5eCv3_-77" value="PHNO" style="ellipse;shape=doubleEllipse;margin=3;whiteSpace=wrap;html=1;align=center;" vertex="1" parent="y-TOsAkke1c8q-5eCv3_-13">
          <mxGeometry x="-505" y="380" width="100" height="40" as="geometry" />
        </mxCell>
        <mxCell id="y-TOsAkke1c8q-5eCv3_-78" value="POS" style="ellipse;whiteSpace=wrap;html=1;align=center;" vertex="1" parent="y-TOsAkke1c8q-5eCv3_-13">
          <mxGeometry x="-545" y="20" width="100" height="40" as="geometry" />
        </mxCell>
        <mxCell id="y-TOsAkke1c8q-5eCv3_-79" value="" style="endArrow=none;html=1;rounded=0;flowAnimation=1;" edge="1" parent="y-TOsAkke1c8q-5eCv3_-13" source="y-TOsAkke1c8q-5eCv3_-78" target="y-TOsAkke1c8q-5eCv3_-8">
          <mxGeometry relative="1" as="geometry">
            <mxPoint x="-85.28999999999996" y="68" as="sourcePoint" />
            <mxPoint x="-582" y="120" as="targetPoint" />
          </mxGeometry>
        </mxCell>
        <mxCell id="y-TOsAkke1c8q-5eCv3_-80" value="EMP_FNM" style="ellipse;whiteSpace=wrap;html=1;align=center;" vertex="1" parent="y-TOsAkke1c8q-5eCv3_-13">
          <mxGeometry x="-765" y="240" width="100" height="40" as="geometry" />
        </mxCell>
        <mxCell id="y-TOsAkke1c8q-5eCv3_-81" value="&lt;b&gt;EMP_ID&lt;/b&gt;" style="ellipse;whiteSpace=wrap;html=1;align=center;fontStyle=4;fillColor=#e1d5e7;strokeColor=#9673a6;" vertex="1" parent="y-TOsAkke1c8q-5eCv3_-13">
          <mxGeometry x="-765" y="35" width="100" height="40" as="geometry" />
        </mxCell>
        <mxCell id="y-TOsAkke1c8q-5eCv3_-82" value="" style="endArrow=none;html=1;rounded=0;flowAnimation=1;" edge="1" parent="y-TOsAkke1c8q-5eCv3_-13" source="y-TOsAkke1c8q-5eCv3_-81" target="y-TOsAkke1c8q-5eCv3_-8">
          <mxGeometry relative="1" as="geometry">
            <mxPoint x="-415" y="300" as="sourcePoint" />
            <mxPoint x="-655" y="120" as="targetPoint" />
          </mxGeometry>
        </mxCell>
        <mxCell id="y-TOsAkke1c8q-5eCv3_-83" value="" style="endArrow=none;html=1;rounded=0;flowAnimation=1;" edge="1" parent="y-TOsAkke1c8q-5eCv3_-13" source="y-TOsAkke1c8q-5eCv3_-80" target="y-TOsAkke1c8q-5eCv3_-8">
          <mxGeometry relative="1" as="geometry">
            <mxPoint x="-622" y="198" as="sourcePoint" />
            <mxPoint x="-632" y="160" as="targetPoint" />
          </mxGeometry>
        </mxCell>
        <mxCell id="y-TOsAkke1c8q-5eCv3_-131" value="TYPE" style="ellipse;whiteSpace=wrap;html=1;align=center;" vertex="1" parent="y-TOsAkke1c8q-5eCv3_-13">
          <mxGeometry x="-410" y="75" width="100" height="40" as="geometry" />
        </mxCell>
        <mxCell id="y-TOsAkke1c8q-5eCv3_-132" value="" style="endArrow=none;html=1;rounded=0;flowAnimation=1;" edge="1" parent="y-TOsAkke1c8q-5eCv3_-13" source="y-TOsAkke1c8q-5eCv3_-131" target="y-TOsAkke1c8q-5eCv3_-8">
          <mxGeometry relative="1" as="geometry">
            <mxPoint x="-15.289999999999964" y="88" as="sourcePoint" />
            <mxPoint x="-457" y="220" as="targetPoint" />
          </mxGeometry>
        </mxCell>
        <mxCell id="y-TOsAkke1c8q-5eCv3_-133" value="STATUS" style="ellipse;whiteSpace=wrap;html=1;align=center;" vertex="1" parent="y-TOsAkke1c8q-5eCv3_-13">
          <mxGeometry x="-270" y="150" width="100" height="40" as="geometry" />
        </mxCell>
        <mxCell id="y-TOsAkke1c8q-5eCv3_-134" value="" style="endArrow=none;html=1;rounded=0;flowAnimation=1;" edge="1" parent="y-TOsAkke1c8q-5eCv3_-13" source="y-TOsAkke1c8q-5eCv3_-133" target="y-TOsAkke1c8q-5eCv3_-8">
          <mxGeometry relative="1" as="geometry">
            <mxPoint x="74.71000000000004" y="138" as="sourcePoint" />
            <mxPoint x="-433" y="220" as="targetPoint" />
          </mxGeometry>
        </mxCell>
        <mxCell id="y-TOsAkke1c8q-5eCv3_-161" value="ALLOWANCES" style="ellipse;whiteSpace=wrap;html=1;align=center;" vertex="1" parent="y-TOsAkke1c8q-5eCv3_-13">
          <mxGeometry x="-550" y="920" width="100" height="40" as="geometry" />
        </mxCell>
        <mxCell id="y-TOsAkke1c8q-5eCv3_-162" value="" style="endArrow=none;html=1;rounded=0;flowAnimation=1;" edge="1" parent="y-TOsAkke1c8q-5eCv3_-13" source="y-TOsAkke1c8q-5eCv3_-161" target="y-TOsAkke1c8q-5eCv3_-42">
          <mxGeometry relative="1" as="geometry">
            <mxPoint x="-412" y="603" as="sourcePoint" />
            <mxPoint x="-449" y="650" as="targetPoint" />
          </mxGeometry>
        </mxCell>
        <mxCell id="y-TOsAkke1c8q-5eCv3_-163" value="BASIC_PAY" style="ellipse;whiteSpace=wrap;html=1;align=center;" vertex="1" parent="y-TOsAkke1c8q-5eCv3_-13">
          <mxGeometry x="-595" y="770" width="100" height="40" as="geometry" />
        </mxCell>
        <mxCell id="y-TOsAkke1c8q-5eCv3_-164" value="" style="endArrow=none;html=1;rounded=0;flowAnimation=1;" edge="1" parent="y-TOsAkke1c8q-5eCv3_-13" source="y-TOsAkke1c8q-5eCv3_-163" target="y-TOsAkke1c8q-5eCv3_-42">
          <mxGeometry relative="1" as="geometry">
            <mxPoint x="-512" y="618" as="sourcePoint" />
            <mxPoint x="-457" y="650" as="targetPoint" />
          </mxGeometry>
        </mxCell>
        <mxCell id="y-TOsAkke1c8q-5eCv3_-165" value="" style="endArrow=none;html=1;rounded=0;flowAnimation=1;" edge="1" parent="y-TOsAkke1c8q-5eCv3_-13" source="y-TOsAkke1c8q-5eCv3_-200" target="y-TOsAkke1c8q-5eCv3_-42">
          <mxGeometry relative="1" as="geometry">
            <mxPoint x="-368.42053910241384" y="780.0468552359198" as="sourcePoint" />
            <mxPoint x="-436" y="650" as="targetPoint" />
          </mxGeometry>
        </mxCell>
        <mxCell id="y-TOsAkke1c8q-5eCv3_-166" value="GROSS_SAL" style="ellipse;whiteSpace=wrap;html=1;align=center;" vertex="1" parent="y-TOsAkke1c8q-5eCv3_-13">
          <mxGeometry x="-445" y="850" width="100" height="40" as="geometry" />
        </mxCell>
        <mxCell id="y-TOsAkke1c8q-5eCv3_-167" value="" style="endArrow=none;html=1;rounded=0;flowAnimation=1;" edge="1" parent="y-TOsAkke1c8q-5eCv3_-13" source="y-TOsAkke1c8q-5eCv3_-166" target="y-TOsAkke1c8q-5eCv3_-42">
          <mxGeometry relative="1" as="geometry">
            <mxPoint x="-210.28999999999996" y="558" as="sourcePoint" />
            <mxPoint x="-430" y="650" as="targetPoint" />
          </mxGeometry>
        </mxCell>
        <mxCell id="y-TOsAkke1c8q-5eCv3_-168" value="NET_SAL" style="ellipse;whiteSpace=wrap;html=1;align=center;" vertex="1" parent="y-TOsAkke1c8q-5eCv3_-13">
          <mxGeometry x="-230" y="720" width="100" height="40" as="geometry" />
        </mxCell>
        <mxCell id="y-TOsAkke1c8q-5eCv3_-169" value="" style="endArrow=none;html=1;rounded=0;flowAnimation=1;" edge="1" parent="y-TOsAkke1c8q-5eCv3_-13" source="y-TOsAkke1c8q-5eCv3_-168" target="y-TOsAkke1c8q-5eCv3_-42">
          <mxGeometry relative="1" as="geometry">
            <mxPoint x="-200.28999999999996" y="568" as="sourcePoint" />
            <mxPoint x="-414" y="650" as="targetPoint" />
          </mxGeometry>
        </mxCell>
        <mxCell id="y-TOsAkke1c8q-5eCv3_-170" value="EMP_ID" style="ellipse;whiteSpace=wrap;html=1;align=center;fillColor=#e1d5e7;strokeColor=#9673a6;" vertex="1" parent="y-TOsAkke1c8q-5eCv3_-13">
          <mxGeometry x="-645" y="690" width="100" height="40" as="geometry" />
        </mxCell>
        <mxCell id="y-TOsAkke1c8q-5eCv3_-171" value="" style="endArrow=none;html=1;rounded=0;flowAnimation=1;" edge="1" parent="y-TOsAkke1c8q-5eCv3_-13" source="y-TOsAkke1c8q-5eCv3_-170" target="y-TOsAkke1c8q-5eCv3_-42">
          <mxGeometry relative="1" as="geometry">
            <mxPoint x="-190.28999999999996" y="578" as="sourcePoint" />
            <mxPoint x="-489" y="610" as="targetPoint" />
          </mxGeometry>
        </mxCell>
        <mxCell id="y-TOsAkke1c8q-5eCv3_-173" value="&lt;b&gt;SAL_ID&lt;/b&gt;" style="ellipse;whiteSpace=wrap;html=1;align=center;fontStyle=4;fillColor=#0050ef;fontColor=#ffffff;strokeColor=#001DBC;" vertex="1" parent="y-TOsAkke1c8q-5eCv3_-13">
          <mxGeometry x="-695" y="610" width="100" height="40" as="geometry" />
        </mxCell>
        <mxCell id="y-TOsAkke1c8q-5eCv3_-174" value="" style="endArrow=none;html=1;rounded=0;flowAnimation=1;" edge="1" parent="y-TOsAkke1c8q-5eCv3_-13" source="y-TOsAkke1c8q-5eCv3_-173" target="y-TOsAkke1c8q-5eCv3_-42">
          <mxGeometry relative="1" as="geometry">
            <mxPoint x="-325" y="700" as="sourcePoint" />
            <mxPoint x="-465" y="580" as="targetPoint" />
          </mxGeometry>
        </mxCell>
        <mxCell id="y-TOsAkke1c8q-5eCv3_-175" value="PAY_PERIOD_EDT" style="ellipse;whiteSpace=wrap;html=1;align=center;" vertex="1" parent="y-TOsAkke1c8q-5eCv3_-13">
          <mxGeometry x="-290" y="590" width="130" height="50" as="geometry" />
        </mxCell>
        <mxCell id="y-TOsAkke1c8q-5eCv3_-176" value="" style="endArrow=none;html=1;rounded=0;flowAnimation=1;" edge="1" parent="y-TOsAkke1c8q-5eCv3_-13" source="y-TOsAkke1c8q-5eCv3_-175" target="y-TOsAkke1c8q-5eCv3_-42">
          <mxGeometry relative="1" as="geometry">
            <mxPoint x="-72" y="623" as="sourcePoint" />
            <mxPoint x="-109" y="670" as="targetPoint" />
          </mxGeometry>
        </mxCell>
        <mxCell id="y-TOsAkke1c8q-5eCv3_-177" value="PAY_PERIOD_SDT" style="ellipse;whiteSpace=wrap;html=1;align=center;" vertex="1" parent="y-TOsAkke1c8q-5eCv3_-13">
          <mxGeometry x="-285" y="790" width="130" height="40" as="geometry" />
        </mxCell>
        <mxCell id="y-TOsAkke1c8q-5eCv3_-178" value="" style="endArrow=none;html=1;rounded=0;flowAnimation=1;" edge="1" parent="y-TOsAkke1c8q-5eCv3_-13" source="y-TOsAkke1c8q-5eCv3_-177" target="y-TOsAkke1c8q-5eCv3_-42">
          <mxGeometry relative="1" as="geometry">
            <mxPoint x="-172" y="638" as="sourcePoint" />
            <mxPoint x="-117" y="670" as="targetPoint" />
          </mxGeometry>
        </mxCell>
        <mxCell id="y-TOsAkke1c8q-5eCv3_-200" value="DEDUCTIONS" style="ellipse;whiteSpace=wrap;html=1;align=center;" vertex="1" parent="y-TOsAkke1c8q-5eCv3_-13">
          <mxGeometry x="-330" y="950" width="100" height="40" as="geometry" />
        </mxCell>
        <mxCell id="y-TOsAkke1c8q-5eCv3_-208" value="DATE" style="ellipse;whiteSpace=wrap;html=1;align=center;" vertex="1" parent="y-TOsAkke1c8q-5eCv3_-13">
          <mxGeometry x="-490" y="1210" width="100" height="40" as="geometry" />
        </mxCell>
        <mxCell id="y-TOsAkke1c8q-5eCv3_-209" value="" style="endArrow=none;html=1;rounded=0;flowAnimation=1;" edge="1" parent="y-TOsAkke1c8q-5eCv3_-13" source="y-TOsAkke1c8q-5eCv3_-208" target="y-TOsAkke1c8q-5eCv3_-40">
          <mxGeometry relative="1" as="geometry">
            <mxPoint x="-467" y="1573" as="sourcePoint" />
            <mxPoint x="-467" y="1560" as="targetPoint" />
          </mxGeometry>
        </mxCell>
        <mxCell id="y-TOsAkke1c8q-5eCv3_-211" value="" style="endArrow=none;html=1;rounded=0;flowAnimation=1;" edge="1" parent="y-TOsAkke1c8q-5eCv3_-13" source="y-TOsAkke1c8q-5eCv3_-224" target="y-TOsAkke1c8q-5eCv3_-40">
          <mxGeometry relative="1" as="geometry">
            <mxPoint x="-570.0008624652073" y="1590.6155314412717" as="sourcePoint" />
            <mxPoint x="-455.30999999999995" y="1410" as="targetPoint" />
          </mxGeometry>
        </mxCell>
        <mxCell id="y-TOsAkke1c8q-5eCv3_-212" value="" style="endArrow=none;html=1;rounded=0;flowAnimation=1;" edge="1" parent="y-TOsAkke1c8q-5eCv3_-13" source="y-TOsAkke1c8q-5eCv3_-223" target="y-TOsAkke1c8q-5eCv3_-40">
          <mxGeometry relative="1" as="geometry">
            <mxPoint x="-423.42053910241384" y="1750.0468552359198" as="sourcePoint" />
            <mxPoint x="-456" y="1560" as="targetPoint" />
          </mxGeometry>
        </mxCell>
        <mxCell id="y-TOsAkke1c8q-5eCv3_-213" value="STATUS" style="ellipse;whiteSpace=wrap;html=1;align=center;" vertex="1" parent="y-TOsAkke1c8q-5eCv3_-13">
          <mxGeometry x="-630" y="1380" width="100" height="40" as="geometry" />
        </mxCell>
        <mxCell id="y-TOsAkke1c8q-5eCv3_-214" value="" style="endArrow=none;html=1;rounded=0;flowAnimation=1;" edge="1" parent="y-TOsAkke1c8q-5eCv3_-13" source="y-TOsAkke1c8q-5eCv3_-213" target="y-TOsAkke1c8q-5eCv3_-40">
          <mxGeometry relative="1" as="geometry">
            <mxPoint x="-265.28999999999996" y="1528" as="sourcePoint" />
            <mxPoint x="-456" y="1560" as="targetPoint" />
          </mxGeometry>
        </mxCell>
        <mxCell id="y-TOsAkke1c8q-5eCv3_-215" value="SHIFT_OUT" style="ellipse;whiteSpace=wrap;html=1;align=center;" vertex="1" parent="y-TOsAkke1c8q-5eCv3_-13">
          <mxGeometry x="-380" y="1470" width="100" height="40" as="geometry" />
        </mxCell>
        <mxCell id="y-TOsAkke1c8q-5eCv3_-216" value="" style="endArrow=none;html=1;rounded=0;flowAnimation=1;" edge="1" parent="y-TOsAkke1c8q-5eCv3_-13" source="y-TOsAkke1c8q-5eCv3_-215" target="y-TOsAkke1c8q-5eCv3_-40">
          <mxGeometry relative="1" as="geometry">
            <mxPoint x="-255.28999999999996" y="1538" as="sourcePoint" />
            <mxPoint x="-445" y="1560" as="targetPoint" />
          </mxGeometry>
        </mxCell>
        <mxCell id="y-TOsAkke1c8q-5eCv3_-218" value="" style="endArrow=none;html=1;rounded=0;flowAnimation=1;" edge="1" parent="y-TOsAkke1c8q-5eCv3_-13" source="y-TOsAkke1c8q-5eCv3_-225" target="y-TOsAkke1c8q-5eCv3_-40">
          <mxGeometry relative="1" as="geometry">
            <mxPoint x="-570" y="1440" as="sourcePoint" />
            <mxPoint x="-487" y="1560" as="targetPoint" />
          </mxGeometry>
        </mxCell>
        <mxCell id="y-TOsAkke1c8q-5eCv3_-219" value="TOT_WRKHRS" style="ellipse;whiteSpace=wrap;html=1;align=center;" vertex="1" parent="y-TOsAkke1c8q-5eCv3_-13">
          <mxGeometry x="-270" y="1250" width="130" height="50" as="geometry" />
        </mxCell>
        <mxCell id="y-TOsAkke1c8q-5eCv3_-220" value="" style="endArrow=none;html=1;rounded=0;flowAnimation=1;" edge="1" parent="y-TOsAkke1c8q-5eCv3_-13" source="y-TOsAkke1c8q-5eCv3_-219" target="y-TOsAkke1c8q-5eCv3_-40">
          <mxGeometry relative="1" as="geometry">
            <mxPoint x="-127" y="1593" as="sourcePoint" />
            <mxPoint x="-428" y="1560" as="targetPoint" />
          </mxGeometry>
        </mxCell>
        <mxCell id="y-TOsAkke1c8q-5eCv3_-221" value="OVERTIME" style="ellipse;whiteSpace=wrap;html=1;align=center;" vertex="1" parent="y-TOsAkke1c8q-5eCv3_-13">
          <mxGeometry x="-330" y="1360" width="130" height="40" as="geometry" />
        </mxCell>
        <mxCell id="y-TOsAkke1c8q-5eCv3_-222" value="" style="endArrow=none;html=1;rounded=0;flowAnimation=1;" edge="1" parent="y-TOsAkke1c8q-5eCv3_-13" source="y-TOsAkke1c8q-5eCv3_-221" target="y-TOsAkke1c8q-5eCv3_-40">
          <mxGeometry relative="1" as="geometry">
            <mxPoint x="-227" y="1608" as="sourcePoint" />
            <mxPoint x="-445" y="1560" as="targetPoint" />
          </mxGeometry>
        </mxCell>
        <mxCell id="y-TOsAkke1c8q-5eCv3_-223" value="SHIFT_IN" style="ellipse;whiteSpace=wrap;html=1;align=center;" vertex="1" parent="y-TOsAkke1c8q-5eCv3_-13">
          <mxGeometry x="-570" y="1480" width="100" height="40" as="geometry" />
        </mxCell>
        <mxCell id="y-TOsAkke1c8q-5eCv3_-224" value="&lt;b&gt;ATTD_ID&lt;/b&gt;" style="ellipse;whiteSpace=wrap;html=1;align=center;fontStyle=4;fillColor=#d80073;strokeColor=#A50040;fontColor=#ffffff;" vertex="1" parent="y-TOsAkke1c8q-5eCv3_-13">
          <mxGeometry x="-620" y="1220" width="100" height="40" as="geometry" />
        </mxCell>
        <mxCell id="y-TOsAkke1c8q-5eCv3_-225" value="EMP_ID" style="ellipse;whiteSpace=wrap;html=1;align=center;fillColor=#e1d5e7;strokeColor=#9673a6;" vertex="1" parent="y-TOsAkke1c8q-5eCv3_-13">
          <mxGeometry x="-620" y="1290" width="100" height="40" as="geometry" />
        </mxCell>
        <mxCell id="y-TOsAkke1c8q-5eCv3_-282" value="PF" style="ellipse;whiteSpace=wrap;html=1;align=center;" vertex="1" parent="y-TOsAkke1c8q-5eCv3_-13">
          <mxGeometry x="-430" y="2000" width="100" height="40" as="geometry" />
        </mxCell>
        <mxCell id="y-TOsAkke1c8q-5eCv3_-283" value="" style="endArrow=none;html=1;rounded=0;flowAnimation=1;" edge="1" parent="y-TOsAkke1c8q-5eCv3_-13" source="y-TOsAkke1c8q-5eCv3_-282" target="y-TOsAkke1c8q-5eCv3_-41">
          <mxGeometry relative="1" as="geometry">
            <mxPoint x="-417" y="1880" as="sourcePoint" />
            <mxPoint x="-389" y="1830" as="targetPoint" />
          </mxGeometry>
        </mxCell>
        <mxCell id="y-TOsAkke1c8q-5eCv3_-284" value="TDS" style="ellipse;whiteSpace=wrap;html=1;align=center;" vertex="1" parent="y-TOsAkke1c8q-5eCv3_-13">
          <mxGeometry x="-580" y="1970" width="100" height="40" as="geometry" />
        </mxCell>
        <mxCell id="y-TOsAkke1c8q-5eCv3_-285" value="" style="endArrow=none;html=1;rounded=0;flowAnimation=1;" edge="1" parent="y-TOsAkke1c8q-5eCv3_-13" source="y-TOsAkke1c8q-5eCv3_-284" target="y-TOsAkke1c8q-5eCv3_-41">
          <mxGeometry relative="1" as="geometry">
            <mxPoint x="-517" y="1895" as="sourcePoint" />
            <mxPoint x="-393" y="1830" as="targetPoint" />
          </mxGeometry>
        </mxCell>
        <mxCell id="y-TOsAkke1c8q-5eCv3_-286" value="" style="endArrow=none;html=1;rounded=0;flowAnimation=1;" edge="1" parent="y-TOsAkke1c8q-5eCv3_-13" source="y-TOsAkke1c8q-5eCv3_-295" target="y-TOsAkke1c8q-5eCv3_-41">
          <mxGeometry relative="1" as="geometry">
            <mxPoint x="-373.42053910241384" y="2057.04685523592" as="sourcePoint" />
            <mxPoint x="-379" y="1830" as="targetPoint" />
          </mxGeometry>
        </mxCell>
        <mxCell id="y-TOsAkke1c8q-5eCv3_-287" value="PROF_TAX" style="ellipse;whiteSpace=wrap;html=1;align=center;" vertex="1" parent="y-TOsAkke1c8q-5eCv3_-13">
          <mxGeometry x="-280" y="1900" width="100" height="40" as="geometry" />
        </mxCell>
        <mxCell id="y-TOsAkke1c8q-5eCv3_-288" value="" style="endArrow=none;html=1;rounded=0;flowAnimation=1;" edge="1" parent="y-TOsAkke1c8q-5eCv3_-13" source="y-TOsAkke1c8q-5eCv3_-287" target="y-TOsAkke1c8q-5eCv3_-41">
          <mxGeometry relative="1" as="geometry">
            <mxPoint x="-215.28999999999996" y="1835" as="sourcePoint" />
            <mxPoint x="-379" y="1830" as="targetPoint" />
          </mxGeometry>
        </mxCell>
        <mxCell id="y-TOsAkke1c8q-5eCv3_-289" value="TAXABLE_INC" style="ellipse;whiteSpace=wrap;html=1;align=center;" vertex="1" parent="y-TOsAkke1c8q-5eCv3_-13">
          <mxGeometry x="-320" y="1750" width="100" height="40" as="geometry" />
        </mxCell>
        <mxCell id="y-TOsAkke1c8q-5eCv3_-290" value="" style="endArrow=none;html=1;rounded=0;flowAnimation=1;" edge="1" parent="y-TOsAkke1c8q-5eCv3_-13" source="y-TOsAkke1c8q-5eCv3_-289" target="y-TOsAkke1c8q-5eCv3_-41">
          <mxGeometry relative="1" as="geometry">
            <mxPoint x="-205.28999999999996" y="1845" as="sourcePoint" />
            <mxPoint x="-370" y="1830" as="targetPoint" />
          </mxGeometry>
        </mxCell>
        <mxCell id="y-TOsAkke1c8q-5eCv3_-291" value="EMP_ID" style="ellipse;whiteSpace=wrap;html=1;align=center;fillColor=#e1d5e7;strokeColor=#9673a6;" vertex="1" parent="y-TOsAkke1c8q-5eCv3_-13">
          <mxGeometry x="-630" y="1850" width="100" height="40" as="geometry" />
        </mxCell>
        <mxCell id="y-TOsAkke1c8q-5eCv3_-292" value="" style="endArrow=none;html=1;rounded=0;flowAnimation=1;" edge="1" parent="y-TOsAkke1c8q-5eCv3_-13" source="y-TOsAkke1c8q-5eCv3_-291" target="y-TOsAkke1c8q-5eCv3_-41">
          <mxGeometry relative="1" as="geometry">
            <mxPoint x="-521.4928749927335" y="1875.1492874992732" as="sourcePoint" />
            <mxPoint x="-405" y="1830" as="targetPoint" />
          </mxGeometry>
        </mxCell>
        <mxCell id="y-TOsAkke1c8q-5eCv3_-293" value="&lt;b&gt;COMP_ID&lt;/b&gt;" style="ellipse;whiteSpace=wrap;html=1;align=center;fontStyle=4;fillColor=#60a917;fontColor=#ffffff;strokeColor=#2D7600;" vertex="1" parent="y-TOsAkke1c8q-5eCv3_-13">
          <mxGeometry x="-610" y="1770" width="100" height="40" as="geometry" />
        </mxCell>
        <mxCell id="y-TOsAkke1c8q-5eCv3_-294" value="" style="endArrow=none;html=1;rounded=0;flowAnimation=1;" edge="1" parent="y-TOsAkke1c8q-5eCv3_-13" source="y-TOsAkke1c8q-5eCv3_-293" target="y-TOsAkke1c8q-5eCv3_-41">
          <mxGeometry relative="1" as="geometry">
            <mxPoint x="-330" y="1977" as="sourcePoint" />
            <mxPoint x="-430" y="1828" as="targetPoint" />
          </mxGeometry>
        </mxCell>
        <mxCell id="y-TOsAkke1c8q-5eCv3_-295" value="ESI" style="ellipse;whiteSpace=wrap;html=1;align=center;" vertex="1" parent="y-TOsAkke1c8q-5eCv3_-13">
          <mxGeometry x="-310" y="2020" width="100" height="40" as="geometry" />
        </mxCell>
        <mxCell id="y-TOsAkke1c8q-5eCv3_-315" value="ACC_NM" style="ellipse;whiteSpace=wrap;html=1;align=center;" vertex="1" parent="y-TOsAkke1c8q-5eCv3_-13">
          <mxGeometry x="-637.5" y="2480" width="100" height="40" as="geometry" />
        </mxCell>
        <mxCell id="y-TOsAkke1c8q-5eCv3_-316" value="" style="endArrow=none;html=1;rounded=0;flowAnimation=1;" edge="1" parent="y-TOsAkke1c8q-5eCv3_-13" source="y-TOsAkke1c8q-5eCv3_-315" target="y-TOsAkke1c8q-5eCv3_-314">
          <mxGeometry relative="1" as="geometry">
            <mxPoint x="-444.5" y="2500" as="sourcePoint" />
            <mxPoint x="-407.5" y="2500" as="targetPoint" />
          </mxGeometry>
        </mxCell>
        <mxCell id="y-TOsAkke1c8q-5eCv3_-317" value="ACC_NO" style="ellipse;whiteSpace=wrap;html=1;align=center;" vertex="1" parent="y-TOsAkke1c8q-5eCv3_-13">
          <mxGeometry x="-607.5" y="2540" width="100" height="40" as="geometry" />
        </mxCell>
        <mxCell id="y-TOsAkke1c8q-5eCv3_-318" value="" style="endArrow=none;html=1;rounded=0;flowAnimation=1;" edge="1" parent="y-TOsAkke1c8q-5eCv3_-13" source="y-TOsAkke1c8q-5eCv3_-317" target="y-TOsAkke1c8q-5eCv3_-314">
          <mxGeometry relative="1" as="geometry">
            <mxPoint x="-544.5" y="2515" as="sourcePoint" />
            <mxPoint x="-430.5" y="2500" as="targetPoint" />
          </mxGeometry>
        </mxCell>
        <mxCell id="y-TOsAkke1c8q-5eCv3_-319" value="" style="endArrow=none;html=1;rounded=0;flowAnimation=1;" edge="1" parent="y-TOsAkke1c8q-5eCv3_-13" source="y-TOsAkke1c8q-5eCv3_-324" target="y-TOsAkke1c8q-5eCv3_-314">
          <mxGeometry relative="1" as="geometry">
            <mxPoint x="-400.92053910241384" y="2677.04685523592" as="sourcePoint" />
            <mxPoint x="-394.5" y="2500" as="targetPoint" />
          </mxGeometry>
        </mxCell>
        <mxCell id="y-TOsAkke1c8q-5eCv3_-320" value="IFSC" style="ellipse;whiteSpace=wrap;html=1;align=center;" vertex="1" parent="y-TOsAkke1c8q-5eCv3_-13">
          <mxGeometry x="-547.5" y="2590" width="100" height="40" as="geometry" />
        </mxCell>
        <mxCell id="y-TOsAkke1c8q-5eCv3_-321" value="" style="endArrow=none;html=1;rounded=0;flowAnimation=1;" edge="1" parent="y-TOsAkke1c8q-5eCv3_-13" source="y-TOsAkke1c8q-5eCv3_-320" target="y-TOsAkke1c8q-5eCv3_-314">
          <mxGeometry relative="1" as="geometry">
            <mxPoint x="-242.78999999999996" y="2455" as="sourcePoint" />
            <mxPoint x="-363.5" y="2500" as="targetPoint" />
          </mxGeometry>
        </mxCell>
        <mxCell id="y-TOsAkke1c8q-5eCv3_-322" value="EMP_ID" style="ellipse;whiteSpace=wrap;html=1;align=center;fillColor=#e1d5e7;strokeColor=#9673a6;" vertex="1" parent="y-TOsAkke1c8q-5eCv3_-13">
          <mxGeometry x="-637.5" y="2420" width="100" height="40" as="geometry" />
        </mxCell>
        <mxCell id="y-TOsAkke1c8q-5eCv3_-323" value="" style="endArrow=none;html=1;rounded=0;flowAnimation=1;" edge="1" parent="y-TOsAkke1c8q-5eCv3_-13" source="y-TOsAkke1c8q-5eCv3_-322" target="y-TOsAkke1c8q-5eCv3_-314">
          <mxGeometry relative="1" as="geometry">
            <mxPoint x="-222.78999999999996" y="2475" as="sourcePoint" />
            <mxPoint x="-457.5" y="2485" as="targetPoint" />
          </mxGeometry>
        </mxCell>
        <mxCell id="y-TOsAkke1c8q-5eCv3_-324" value="BK_BRANCH" style="ellipse;whiteSpace=wrap;html=1;align=center;" vertex="1" parent="y-TOsAkke1c8q-5eCv3_-13">
          <mxGeometry x="-337.5" y="2540" width="100" height="40" as="geometry" />
        </mxCell>
        <mxCell id="y-TOsAkke1c8q-5eCv3_-325" value="&lt;b&gt;BANK_ID&lt;/b&gt;" style="ellipse;whiteSpace=wrap;html=1;align=center;fontStyle=4;fillColor=#1ba1e2;fontColor=#ffffff;strokeColor=#006EAF;" vertex="1" parent="y-TOsAkke1c8q-5eCv3_-13">
          <mxGeometry x="-617.5" y="2350" width="100" height="40" as="geometry" />
        </mxCell>
        <mxCell id="y-TOsAkke1c8q-5eCv3_-326" value="" style="endArrow=none;html=1;rounded=0;flowAnimation=1;" edge="1" parent="y-TOsAkke1c8q-5eCv3_-13" source="y-TOsAkke1c8q-5eCv3_-325" target="y-TOsAkke1c8q-5eCv3_-314">
          <mxGeometry relative="1" as="geometry">
            <mxPoint x="-387.5" y="2571.5" as="sourcePoint" />
            <mxPoint x="-487.5" y="2435.5" as="targetPoint" />
          </mxGeometry>
        </mxCell>
        <mxCell id="y-TOsAkke1c8q-5eCv3_-327" value="" style="endArrow=none;html=1;rounded=0;flowAnimation=1;" edge="1" parent="y-TOsAkke1c8q-5eCv3_-13" source="y-TOsAkke1c8q-5eCv3_-328" target="y-TOsAkke1c8q-5eCv3_-314">
          <mxGeometry relative="1" as="geometry">
            <mxPoint x="-563.9205391024138" y="2707.04685523592" as="sourcePoint" />
            <mxPoint x="-557.5" y="2530" as="targetPoint" />
          </mxGeometry>
        </mxCell>
        <mxCell id="y-TOsAkke1c8q-5eCv3_-328" value="BK_NM" style="ellipse;whiteSpace=wrap;html=1;align=center;" vertex="1" parent="y-TOsAkke1c8q-5eCv3_-13">
          <mxGeometry x="-437.5" y="2600" width="100" height="40" as="geometry" />
        </mxCell>
        <mxCell id="y-TOsAkke1c8q-5eCv3_-359" value="LV_SDT" style="ellipse;whiteSpace=wrap;html=1;align=center;" vertex="1" parent="y-TOsAkke1c8q-5eCv3_-13">
          <mxGeometry x="-472.5" y="3050" width="100" height="40" as="geometry" />
        </mxCell>
        <mxCell id="y-TOsAkke1c8q-5eCv3_-360" value="" style="endArrow=none;html=1;rounded=0;flowAnimation=1;" edge="1" parent="y-TOsAkke1c8q-5eCv3_-13" source="y-TOsAkke1c8q-5eCv3_-359" target="y-TOsAkke1c8q-5eCv3_-313">
          <mxGeometry relative="1" as="geometry">
            <mxPoint x="-459.5" y="2930" as="sourcePoint" />
            <mxPoint x="-422.5" y="2930" as="targetPoint" />
          </mxGeometry>
        </mxCell>
        <mxCell id="y-TOsAkke1c8q-5eCv3_-361" value="LV_TYPE" style="ellipse;whiteSpace=wrap;html=1;align=center;" vertex="1" parent="y-TOsAkke1c8q-5eCv3_-13">
          <mxGeometry x="-622.5" y="3020" width="100" height="40" as="geometry" />
        </mxCell>
        <mxCell id="y-TOsAkke1c8q-5eCv3_-362" value="" style="endArrow=none;html=1;rounded=0;flowAnimation=1;" edge="1" parent="y-TOsAkke1c8q-5eCv3_-13" source="y-TOsAkke1c8q-5eCv3_-361" target="y-TOsAkke1c8q-5eCv3_-313">
          <mxGeometry relative="1" as="geometry">
            <mxPoint x="-559.5" y="2945" as="sourcePoint" />
            <mxPoint x="-445.5" y="2930" as="targetPoint" />
          </mxGeometry>
        </mxCell>
        <mxCell id="y-TOsAkke1c8q-5eCv3_-363" value="" style="endArrow=none;html=1;rounded=0;flowAnimation=1;" edge="1" parent="y-TOsAkke1c8q-5eCv3_-13" source="y-TOsAkke1c8q-5eCv3_-372" target="y-TOsAkke1c8q-5eCv3_-313">
          <mxGeometry relative="1" as="geometry">
            <mxPoint x="-415.92053910241384" y="3107.04685523592" as="sourcePoint" />
            <mxPoint x="-409.5" y="2930" as="targetPoint" />
          </mxGeometry>
        </mxCell>
        <mxCell id="y-TOsAkke1c8q-5eCv3_-365" value="" style="endArrow=none;html=1;rounded=0;flowAnimation=1;" edge="1" parent="y-TOsAkke1c8q-5eCv3_-13" source="y-TOsAkke1c8q-5eCv3_-373" target="y-TOsAkke1c8q-5eCv3_-313">
          <mxGeometry relative="1" as="geometry">
            <mxPoint x="-235.53139474458885" y="2994.9857296615505" as="sourcePoint" />
            <mxPoint x="-378.5" y="2930" as="targetPoint" />
          </mxGeometry>
        </mxCell>
        <mxCell id="y-TOsAkke1c8q-5eCv3_-366" value="LV_STATUS" style="ellipse;whiteSpace=wrap;html=1;align=center;" vertex="1" parent="y-TOsAkke1c8q-5eCv3_-13">
          <mxGeometry x="-282.5" y="2830" width="100" height="40" as="geometry" />
        </mxCell>
        <mxCell id="y-TOsAkke1c8q-5eCv3_-367" value="" style="endArrow=none;html=1;rounded=0;flowAnimation=1;" edge="1" parent="y-TOsAkke1c8q-5eCv3_-13" source="y-TOsAkke1c8q-5eCv3_-366" target="y-TOsAkke1c8q-5eCv3_-313">
          <mxGeometry relative="1" as="geometry">
            <mxPoint x="-247.78999999999996" y="2895" as="sourcePoint" />
            <mxPoint x="-372.5" y="2894" as="targetPoint" />
          </mxGeometry>
        </mxCell>
        <mxCell id="y-TOsAkke1c8q-5eCv3_-368" value="EMP_ID" style="ellipse;whiteSpace=wrap;html=1;align=center;fillColor=#e1d5e7;strokeColor=#9673a6;" vertex="1" parent="y-TOsAkke1c8q-5eCv3_-13">
          <mxGeometry x="-622.5" y="2910" width="100" height="40" as="geometry" />
        </mxCell>
        <mxCell id="y-TOsAkke1c8q-5eCv3_-369" value="" style="endArrow=none;html=1;rounded=0;flowAnimation=1;" edge="1" parent="y-TOsAkke1c8q-5eCv3_-13" source="y-TOsAkke1c8q-5eCv3_-368" target="y-TOsAkke1c8q-5eCv3_-313">
          <mxGeometry relative="1" as="geometry">
            <mxPoint x="-237.78999999999996" y="2905" as="sourcePoint" />
            <mxPoint x="-472.5" y="2915" as="targetPoint" />
          </mxGeometry>
        </mxCell>
        <mxCell id="y-TOsAkke1c8q-5eCv3_-370" value="&lt;b&gt;LV_ID&lt;/b&gt;" style="ellipse;whiteSpace=wrap;html=1;align=center;fontStyle=4;fillColor=#e51400;fontColor=#ffffff;strokeColor=#B20000;" vertex="1" parent="y-TOsAkke1c8q-5eCv3_-13">
          <mxGeometry x="-522.5" y="2830" width="100" height="40" as="geometry" />
        </mxCell>
        <mxCell id="y-TOsAkke1c8q-5eCv3_-371" value="" style="endArrow=none;html=1;rounded=0;flowAnimation=1;" edge="1" parent="y-TOsAkke1c8q-5eCv3_-13" source="y-TOsAkke1c8q-5eCv3_-370" target="y-TOsAkke1c8q-5eCv3_-313">
          <mxGeometry relative="1" as="geometry">
            <mxPoint x="-372.5" y="3027" as="sourcePoint" />
            <mxPoint x="-472.5" y="2891" as="targetPoint" />
          </mxGeometry>
        </mxCell>
        <mxCell id="y-TOsAkke1c8q-5eCv3_-372" value="LV_EDT" style="ellipse;whiteSpace=wrap;html=1;align=center;" vertex="1" parent="y-TOsAkke1c8q-5eCv3_-13">
          <mxGeometry x="-352.5" y="3070" width="100" height="40" as="geometry" />
        </mxCell>
        <mxCell id="y-TOsAkke1c8q-5eCv3_-373" value="TOT_LV" style="ellipse;whiteSpace=wrap;html=1;align=center;dashed=1;" vertex="1" parent="y-TOsAkke1c8q-5eCv3_-13">
          <mxGeometry x="-252.5" y="3000" width="100" height="40" as="geometry" />
        </mxCell>
        <mxCell id="y-TOsAkke1c8q-5eCv3_-391" value="PAY_PERIOD" style="ellipse;whiteSpace=wrap;html=1;align=center;" vertex="1" parent="y-TOsAkke1c8q-5eCv3_-13">
          <mxGeometry x="-690" y="3660" width="100" height="40" as="geometry" />
        </mxCell>
        <mxCell id="y-TOsAkke1c8q-5eCv3_-392" value="" style="endArrow=none;html=1;rounded=0;flowAnimation=1;" edge="1" parent="y-TOsAkke1c8q-5eCv3_-13" source="y-TOsAkke1c8q-5eCv3_-391" target="y-TOsAkke1c8q-5eCv3_-312">
          <mxGeometry relative="1" as="geometry">
            <mxPoint x="-607" y="3660" as="sourcePoint" />
            <mxPoint x="-640" y="3639" as="targetPoint" />
          </mxGeometry>
        </mxCell>
        <mxCell id="y-TOsAkke1c8q-5eCv3_-393" value="TOT_EARN" style="ellipse;whiteSpace=wrap;html=1;align=center;" vertex="1" parent="y-TOsAkke1c8q-5eCv3_-13">
          <mxGeometry x="-670" y="3780" width="100" height="40" as="geometry" />
        </mxCell>
        <mxCell id="y-TOsAkke1c8q-5eCv3_-394" value="" style="endArrow=none;html=1;rounded=0;flowAnimation=1;" edge="1" parent="y-TOsAkke1c8q-5eCv3_-13" source="y-TOsAkke1c8q-5eCv3_-393" target="y-TOsAkke1c8q-5eCv3_-312">
          <mxGeometry relative="1" as="geometry">
            <mxPoint x="-586.4245855214431" y="3760.7512779781655" as="sourcePoint" />
            <mxPoint x="-619" y="3650" as="targetPoint" />
          </mxGeometry>
        </mxCell>
        <mxCell id="y-TOsAkke1c8q-5eCv3_-395" value="" style="endArrow=none;html=1;rounded=0;flowAnimation=1;" edge="1" parent="y-TOsAkke1c8q-5eCv3_-13" source="y-TOsAkke1c8q-5eCv3_-400" target="y-TOsAkke1c8q-5eCv3_-312">
          <mxGeometry relative="1" as="geometry">
            <mxPoint x="-563.4205391024138" y="3837.04685523592" as="sourcePoint" />
            <mxPoint x="-559" y="3650" as="targetPoint" />
          </mxGeometry>
        </mxCell>
        <mxCell id="y-TOsAkke1c8q-5eCv3_-396" value="TOT_DEDUCT" style="ellipse;whiteSpace=wrap;html=1;align=center;" vertex="1" parent="y-TOsAkke1c8q-5eCv3_-13">
          <mxGeometry x="-510" y="3740" width="100" height="40" as="geometry" />
        </mxCell>
        <mxCell id="y-TOsAkke1c8q-5eCv3_-397" value="" style="endArrow=none;html=1;rounded=0;flowAnimation=1;" edge="1" parent="y-TOsAkke1c8q-5eCv3_-13" source="y-TOsAkke1c8q-5eCv3_-396" target="y-TOsAkke1c8q-5eCv3_-312">
          <mxGeometry relative="1" as="geometry">
            <mxPoint x="-405.28999999999996" y="3615" as="sourcePoint" />
            <mxPoint x="-600" y="3650" as="targetPoint" />
          </mxGeometry>
        </mxCell>
        <mxCell id="y-TOsAkke1c8q-5eCv3_-398" value="EMP_ID" style="ellipse;whiteSpace=wrap;html=1;align=center;fillColor=#e1d5e7;strokeColor=#9673a6;" vertex="1" parent="y-TOsAkke1c8q-5eCv3_-13">
          <mxGeometry x="-680" y="3540" width="100" height="40" as="geometry" />
        </mxCell>
        <mxCell id="y-TOsAkke1c8q-5eCv3_-399" value="" style="endArrow=none;html=1;rounded=0;flowAnimation=1;" edge="1" parent="y-TOsAkke1c8q-5eCv3_-13" source="y-TOsAkke1c8q-5eCv3_-398" target="y-TOsAkke1c8q-5eCv3_-312">
          <mxGeometry relative="1" as="geometry">
            <mxPoint x="-385.28999999999996" y="3635" as="sourcePoint" />
            <mxPoint x="-640" y="3621" as="targetPoint" />
          </mxGeometry>
        </mxCell>
        <mxCell id="y-TOsAkke1c8q-5eCv3_-400" value="PMT_DT" style="ellipse;whiteSpace=wrap;html=1;align=center;" vertex="1" parent="y-TOsAkke1c8q-5eCv3_-13">
          <mxGeometry x="-350" y="3570" width="100" height="40" as="geometry" />
        </mxCell>
        <mxCell id="y-TOsAkke1c8q-5eCv3_-401" value="&lt;b&gt;PRL_ID&lt;/b&gt;" style="ellipse;whiteSpace=wrap;html=1;align=center;fontStyle=4;fillColor=#fa6800;fontColor=#000000;strokeColor=#C73500;" vertex="1" parent="y-TOsAkke1c8q-5eCv3_-13">
          <mxGeometry x="-650" y="3470" width="100" height="40" as="geometry" />
        </mxCell>
        <mxCell id="y-TOsAkke1c8q-5eCv3_-402" value="" style="endArrow=none;html=1;rounded=0;flowAnimation=1;" edge="1" parent="y-TOsAkke1c8q-5eCv3_-13" source="y-TOsAkke1c8q-5eCv3_-401" target="y-TOsAkke1c8q-5eCv3_-312">
          <mxGeometry relative="1" as="geometry">
            <mxPoint x="-550" y="3731.5" as="sourcePoint" />
            <mxPoint x="-618" y="3610" as="targetPoint" />
          </mxGeometry>
        </mxCell>
        <mxCell id="y-TOsAkke1c8q-5eCv3_-403" value="" style="endArrow=none;html=1;rounded=0;flowAnimation=1;" edge="1" parent="y-TOsAkke1c8q-5eCv3_-13" source="y-TOsAkke1c8q-5eCv3_-404" target="y-TOsAkke1c8q-5eCv3_-312">
          <mxGeometry relative="1" as="geometry">
            <mxPoint x="-726.4205391024138" y="3867.04685523592" as="sourcePoint" />
            <mxPoint x="-585" y="3650" as="targetPoint" />
          </mxGeometry>
        </mxCell>
        <mxCell id="y-TOsAkke1c8q-5eCv3_-404" value="NET_SAL" style="ellipse;whiteSpace=wrap;html=1;align=center;" vertex="1" parent="y-TOsAkke1c8q-5eCv3_-13">
          <mxGeometry x="-370" y="3700" width="100" height="40" as="geometry" />
        </mxCell>
        <mxCell id="y-TOsAkke1c8q-5eCv3_-405" value="" style="endArrow=none;html=1;rounded=0;flowAnimation=1;" edge="1" parent="y-TOsAkke1c8q-5eCv3_-13" source="y-TOsAkke1c8q-5eCv3_-406" target="y-TOsAkke1c8q-5eCv3_-312">
          <mxGeometry relative="1" as="geometry">
            <mxPoint x="-454.42053910241384" y="3817.04685523592" as="sourcePoint" />
            <mxPoint x="-450" y="3630" as="targetPoint" />
          </mxGeometry>
        </mxCell>
        <mxCell id="y-TOsAkke1c8q-5eCv3_-406" value="PMT_STATUS" style="ellipse;whiteSpace=wrap;html=1;align=center;" vertex="1" parent="y-TOsAkke1c8q-5eCv3_-13">
          <mxGeometry x="-330" y="3500" width="100" height="40" as="geometry" />
        </mxCell>
        <mxCell id="y-TOsAkke1c8q-5eCv3_-423" value="LN_TYPE" style="ellipse;whiteSpace=wrap;html=1;align=center;" vertex="1" parent="y-TOsAkke1c8q-5eCv3_-13">
          <mxGeometry x="-660" y="4170" width="100" height="40" as="geometry" />
        </mxCell>
        <mxCell id="y-TOsAkke1c8q-5eCv3_-424" value="" style="endArrow=none;html=1;rounded=0;flowAnimation=1;" edge="1" parent="y-TOsAkke1c8q-5eCv3_-13" source="y-TOsAkke1c8q-5eCv3_-423" target="y-TOsAkke1c8q-5eCv3_-19">
          <mxGeometry relative="1" as="geometry">
            <mxPoint x="-577" y="4170" as="sourcePoint" />
            <mxPoint x="-455" y="4100" as="targetPoint" />
          </mxGeometry>
        </mxCell>
        <mxCell id="y-TOsAkke1c8q-5eCv3_-425" value="LN_AMT" style="ellipse;whiteSpace=wrap;html=1;align=center;" vertex="1" parent="y-TOsAkke1c8q-5eCv3_-13">
          <mxGeometry x="-620" y="4270" width="100" height="40" as="geometry" />
        </mxCell>
        <mxCell id="y-TOsAkke1c8q-5eCv3_-426" value="" style="endArrow=none;html=1;rounded=0;flowAnimation=1;" edge="1" parent="y-TOsAkke1c8q-5eCv3_-13" source="y-TOsAkke1c8q-5eCv3_-425" target="y-TOsAkke1c8q-5eCv3_-19">
          <mxGeometry relative="1" as="geometry">
            <mxPoint x="-677" y="4185" as="sourcePoint" />
            <mxPoint x="-434" y="4100" as="targetPoint" />
          </mxGeometry>
        </mxCell>
        <mxCell id="y-TOsAkke1c8q-5eCv3_-427" value="" style="endArrow=none;html=1;rounded=0;flowAnimation=1;" edge="1" parent="y-TOsAkke1c8q-5eCv3_-13" source="y-TOsAkke1c8q-5eCv3_-432" target="y-TOsAkke1c8q-5eCv3_-19">
          <mxGeometry relative="1" as="geometry">
            <mxPoint x="-533.4205391024138" y="4347.04685523592" as="sourcePoint" />
            <mxPoint x="-370" y="4087" as="targetPoint" />
          </mxGeometry>
        </mxCell>
        <mxCell id="y-TOsAkke1c8q-5eCv3_-428" value="EMI" style="ellipse;whiteSpace=wrap;html=1;align=center;" vertex="1" parent="y-TOsAkke1c8q-5eCv3_-13">
          <mxGeometry x="-470" y="4250" width="100" height="40" as="geometry" />
        </mxCell>
        <mxCell id="y-TOsAkke1c8q-5eCv3_-429" value="" style="endArrow=none;html=1;rounded=0;flowAnimation=1;" edge="1" parent="y-TOsAkke1c8q-5eCv3_-13" source="y-TOsAkke1c8q-5eCv3_-428" target="y-TOsAkke1c8q-5eCv3_-19">
          <mxGeometry relative="1" as="geometry">
            <mxPoint x="-375.28999999999996" y="4125" as="sourcePoint" />
            <mxPoint x="-420" y="4100" as="targetPoint" />
          </mxGeometry>
        </mxCell>
        <mxCell id="y-TOsAkke1c8q-5eCv3_-430" value="EMP_ID" style="ellipse;whiteSpace=wrap;html=1;align=center;fillColor=#e1d5e7;strokeColor=#9673a6;" vertex="1" parent="y-TOsAkke1c8q-5eCv3_-13">
          <mxGeometry x="-650" y="4050" width="100" height="40" as="geometry" />
        </mxCell>
        <mxCell id="y-TOsAkke1c8q-5eCv3_-431" value="" style="endArrow=none;html=1;rounded=0;flowAnimation=1;" edge="1" parent="y-TOsAkke1c8q-5eCv3_-13" source="y-TOsAkke1c8q-5eCv3_-430" target="y-TOsAkke1c8q-5eCv3_-19">
          <mxGeometry relative="1" as="geometry">
            <mxPoint x="-355.28999999999996" y="4145" as="sourcePoint" />
            <mxPoint x="-470" y="4077" as="targetPoint" />
          </mxGeometry>
        </mxCell>
        <mxCell id="y-TOsAkke1c8q-5eCv3_-432" value="LN_RPY_SDT" style="ellipse;whiteSpace=wrap;html=1;align=center;" vertex="1" parent="y-TOsAkke1c8q-5eCv3_-13">
          <mxGeometry x="-320" y="4080" width="100" height="40" as="geometry" />
        </mxCell>
        <mxCell id="y-TOsAkke1c8q-5eCv3_-433" value="&lt;b&gt;LN_ID&lt;/b&gt;" style="ellipse;whiteSpace=wrap;html=1;align=center;fontStyle=4;fillColor=#e3c800;fontColor=#000000;strokeColor=#B09500;" vertex="1" parent="y-TOsAkke1c8q-5eCv3_-13">
          <mxGeometry x="-620" y="3980" width="100" height="40" as="geometry" />
        </mxCell>
        <mxCell id="y-TOsAkke1c8q-5eCv3_-434" value="" style="endArrow=none;html=1;rounded=0;flowAnimation=1;" edge="1" parent="y-TOsAkke1c8q-5eCv3_-13" source="y-TOsAkke1c8q-5eCv3_-433" target="y-TOsAkke1c8q-5eCv3_-19">
          <mxGeometry relative="1" as="geometry">
            <mxPoint x="-520" y="4241.5" as="sourcePoint" />
            <mxPoint x="-457" y="4060" as="targetPoint" />
          </mxGeometry>
        </mxCell>
        <mxCell id="y-TOsAkke1c8q-5eCv3_-435" value="" style="endArrow=none;html=1;rounded=0;flowAnimation=1;" edge="1" parent="y-TOsAkke1c8q-5eCv3_-13" source="y-TOsAkke1c8q-5eCv3_-436" target="y-TOsAkke1c8q-5eCv3_-19">
          <mxGeometry relative="1" as="geometry">
            <mxPoint x="-696.4205391024138" y="4377.04685523592" as="sourcePoint" />
            <mxPoint x="-403" y="4100" as="targetPoint" />
          </mxGeometry>
        </mxCell>
        <mxCell id="y-TOsAkke1c8q-5eCv3_-436" value="DUES" style="ellipse;whiteSpace=wrap;html=1;align=center;" vertex="1" parent="y-TOsAkke1c8q-5eCv3_-13">
          <mxGeometry x="-340" y="4210" width="100" height="40" as="geometry" />
        </mxCell>
        <mxCell id="y-TOsAkke1c8q-5eCv3_-437" value="" style="endArrow=none;html=1;rounded=0;flowAnimation=1;" edge="1" parent="y-TOsAkke1c8q-5eCv3_-13" source="y-TOsAkke1c8q-5eCv3_-438" target="y-TOsAkke1c8q-5eCv3_-19">
          <mxGeometry relative="1" as="geometry">
            <mxPoint x="-424.42053910241384" y="4327.04685523592" as="sourcePoint" />
            <mxPoint x="-370" y="4065" as="targetPoint" />
          </mxGeometry>
        </mxCell>
        <mxCell id="y-TOsAkke1c8q-5eCv3_-438" value="LN_STATUS" style="ellipse;whiteSpace=wrap;html=1;align=center;" vertex="1" parent="y-TOsAkke1c8q-5eCv3_-13">
          <mxGeometry x="-300" y="4010" width="100" height="40" as="geometry" />
        </mxCell>
        <mxCell id="y-TOsAkke1c8q-5eCv3_-462" value="BNS_TYPE" style="ellipse;whiteSpace=wrap;html=1;align=center;" vertex="1" parent="y-TOsAkke1c8q-5eCv3_-13">
          <mxGeometry x="-600" y="4740" width="100" height="40" as="geometry" />
        </mxCell>
        <mxCell id="y-TOsAkke1c8q-5eCv3_-463" value="" style="endArrow=none;html=1;rounded=0;flowAnimation=1;" edge="1" parent="y-TOsAkke1c8q-5eCv3_-13" source="y-TOsAkke1c8q-5eCv3_-462" target="y-TOsAkke1c8q-5eCv3_-457">
          <mxGeometry relative="1" as="geometry">
            <mxPoint x="-677" y="4780" as="sourcePoint" />
            <mxPoint x="-434" y="4695" as="targetPoint" />
          </mxGeometry>
        </mxCell>
        <mxCell id="y-TOsAkke1c8q-5eCv3_-464" value="" style="endArrow=none;html=1;rounded=0;flowAnimation=1;" edge="1" parent="y-TOsAkke1c8q-5eCv3_-13" source="y-TOsAkke1c8q-5eCv3_-469" target="y-TOsAkke1c8q-5eCv3_-457">
          <mxGeometry relative="1" as="geometry">
            <mxPoint x="-533.4205391024138" y="4942.04685523592" as="sourcePoint" />
            <mxPoint x="-370" y="4682" as="targetPoint" />
          </mxGeometry>
        </mxCell>
        <mxCell id="y-TOsAkke1c8q-5eCv3_-465" value="BNS_AMT" style="ellipse;whiteSpace=wrap;html=1;align=center;" vertex="1" parent="y-TOsAkke1c8q-5eCv3_-13">
          <mxGeometry x="-480" y="4780" width="100" height="40" as="geometry" />
        </mxCell>
        <mxCell id="y-TOsAkke1c8q-5eCv3_-466" value="" style="endArrow=none;html=1;rounded=0;flowAnimation=1;" edge="1" parent="y-TOsAkke1c8q-5eCv3_-13" source="y-TOsAkke1c8q-5eCv3_-465" target="y-TOsAkke1c8q-5eCv3_-457">
          <mxGeometry relative="1" as="geometry">
            <mxPoint x="-375.28999999999996" y="4720" as="sourcePoint" />
            <mxPoint x="-420" y="4695" as="targetPoint" />
          </mxGeometry>
        </mxCell>
        <mxCell id="y-TOsAkke1c8q-5eCv3_-467" value="EMP_ID" style="ellipse;whiteSpace=wrap;html=1;align=center;fillColor=#e1d5e7;strokeColor=#9673a6;" vertex="1" parent="y-TOsAkke1c8q-5eCv3_-13">
          <mxGeometry x="-650" y="4645" width="100" height="40" as="geometry" />
        </mxCell>
        <mxCell id="y-TOsAkke1c8q-5eCv3_-468" value="" style="endArrow=none;html=1;rounded=0;flowAnimation=1;" edge="1" parent="y-TOsAkke1c8q-5eCv3_-13" source="y-TOsAkke1c8q-5eCv3_-467" target="y-TOsAkke1c8q-5eCv3_-457">
          <mxGeometry relative="1" as="geometry">
            <mxPoint x="-355.28999999999996" y="4740" as="sourcePoint" />
            <mxPoint x="-470" y="4672" as="targetPoint" />
          </mxGeometry>
        </mxCell>
        <mxCell id="y-TOsAkke1c8q-5eCv3_-469" value="REMARKS" style="ellipse;whiteSpace=wrap;html=1;align=center;" vertex="1" parent="y-TOsAkke1c8q-5eCv3_-13">
          <mxGeometry x="-350" y="4570" width="100" height="40" as="geometry" />
        </mxCell>
        <mxCell id="y-TOsAkke1c8q-5eCv3_-470" value="&lt;b&gt;BNS_ID&lt;/b&gt;" style="ellipse;whiteSpace=wrap;html=1;align=center;fontStyle=4;fillColor=#a0522d;fontColor=#ffffff;strokeColor=#6D1F00;" vertex="1" parent="y-TOsAkke1c8q-5eCv3_-13">
          <mxGeometry x="-620" y="4575" width="100" height="40" as="geometry" />
        </mxCell>
        <mxCell id="y-TOsAkke1c8q-5eCv3_-471" value="" style="endArrow=none;html=1;rounded=0;flowAnimation=1;" edge="1" parent="y-TOsAkke1c8q-5eCv3_-13" source="y-TOsAkke1c8q-5eCv3_-470" target="y-TOsAkke1c8q-5eCv3_-457">
          <mxGeometry relative="1" as="geometry">
            <mxPoint x="-520" y="4836.5" as="sourcePoint" />
            <mxPoint x="-457" y="4655" as="targetPoint" />
          </mxGeometry>
        </mxCell>
        <mxCell id="y-TOsAkke1c8q-5eCv3_-472" value="" style="endArrow=none;html=1;rounded=0;flowAnimation=1;" edge="1" parent="y-TOsAkke1c8q-5eCv3_-13" source="y-TOsAkke1c8q-5eCv3_-473" target="y-TOsAkke1c8q-5eCv3_-457">
          <mxGeometry relative="1" as="geometry">
            <mxPoint x="-696.4205391024138" y="4972.04685523592" as="sourcePoint" />
            <mxPoint x="-403" y="4695" as="targetPoint" />
          </mxGeometry>
        </mxCell>
        <mxCell id="y-TOsAkke1c8q-5eCv3_-473" value="ISSUE_DT" style="ellipse;whiteSpace=wrap;html=1;align=center;" vertex="1" parent="y-TOsAkke1c8q-5eCv3_-13">
          <mxGeometry x="-400" y="4715" width="100" height="40" as="geometry" />
        </mxCell>
        <mxCell id="y-TOsAkke1c8q-5eCv3_-492" value="" style="endArrow=none;html=1;rounded=0;flowAnimation=1;" edge="1" parent="y-TOsAkke1c8q-5eCv3_-13" source="y-TOsAkke1c8q-5eCv3_-503" target="y-TOsAkke1c8q-5eCv3_-458">
          <mxGeometry relative="1" as="geometry">
            <mxPoint x="-508.6907874409144" y="5326.907272355494" as="sourcePoint" />
            <mxPoint x="-423.63636363636397" y="5255" as="targetPoint" />
          </mxGeometry>
        </mxCell>
        <mxCell id="y-TOsAkke1c8q-5eCv3_-493" value="" style="endArrow=none;html=1;rounded=0;flowAnimation=1;" edge="1" parent="y-TOsAkke1c8q-5eCv3_-13" source="y-TOsAkke1c8q-5eCv3_-498" target="y-TOsAkke1c8q-5eCv3_-458">
          <mxGeometry relative="1" as="geometry">
            <mxPoint x="-513.4205391024138" y="5527.04685523592" as="sourcePoint" />
            <mxPoint x="-360" y="5215" as="targetPoint" />
          </mxGeometry>
        </mxCell>
        <mxCell id="y-TOsAkke1c8q-5eCv3_-494" value="PAY_MT_YR" style="ellipse;whiteSpace=wrap;html=1;align=center;" vertex="1" parent="y-TOsAkke1c8q-5eCv3_-13">
          <mxGeometry x="-490" y="5325" width="100" height="40" as="geometry" />
        </mxCell>
        <mxCell id="y-TOsAkke1c8q-5eCv3_-495" value="" style="endArrow=none;html=1;rounded=0;flowAnimation=1;" edge="1" parent="y-TOsAkke1c8q-5eCv3_-13" source="y-TOsAkke1c8q-5eCv3_-494" target="y-TOsAkke1c8q-5eCv3_-458">
          <mxGeometry relative="1" as="geometry">
            <mxPoint x="-355.28999999999996" y="5305" as="sourcePoint" />
            <mxPoint x="-401.33333333333303" y="5255" as="targetPoint" />
          </mxGeometry>
        </mxCell>
        <mxCell id="y-TOsAkke1c8q-5eCv3_-496" value="EMP_ID" style="ellipse;whiteSpace=wrap;html=1;align=center;fillColor=#e1d5e7;strokeColor=#9673a6;" vertex="1" parent="y-TOsAkke1c8q-5eCv3_-13">
          <mxGeometry x="-620" y="5285" width="100" height="40" as="geometry" />
        </mxCell>
        <mxCell id="y-TOsAkke1c8q-5eCv3_-497" value="" style="endArrow=none;html=1;rounded=0;flowAnimation=1;" edge="1" parent="y-TOsAkke1c8q-5eCv3_-13" source="y-TOsAkke1c8q-5eCv3_-496" target="y-TOsAkke1c8q-5eCv3_-458">
          <mxGeometry relative="1" as="geometry">
            <mxPoint x="-335.28999999999996" y="5325" as="sourcePoint" />
            <mxPoint x="-450" y="5239.166666666667" as="targetPoint" />
          </mxGeometry>
        </mxCell>
        <mxCell id="y-TOsAkke1c8q-5eCv3_-498" value="TAX_DTLS" style="ellipse;whiteSpace=wrap;html=1;align=center;" vertex="1" parent="y-TOsAkke1c8q-5eCv3_-13">
          <mxGeometry x="-300" y="5195" width="100" height="40" as="geometry" />
        </mxCell>
        <mxCell id="y-TOsAkke1c8q-5eCv3_-499" value="&lt;b&gt;PSLIP_ID&lt;/b&gt;" style="ellipse;whiteSpace=wrap;html=1;align=center;fontStyle=4;fillColor=#76608a;fontColor=#ffffff;strokeColor=#432D57;" vertex="1" parent="y-TOsAkke1c8q-5eCv3_-13">
          <mxGeometry x="-640" y="5075" width="100" height="40" as="geometry" />
        </mxCell>
        <mxCell id="y-TOsAkke1c8q-5eCv3_-500" value="" style="endArrow=none;html=1;rounded=0;flowAnimation=1;" edge="1" parent="y-TOsAkke1c8q-5eCv3_-13" source="y-TOsAkke1c8q-5eCv3_-499" target="y-TOsAkke1c8q-5eCv3_-458">
          <mxGeometry relative="1" as="geometry">
            <mxPoint x="-500" y="5421.5" as="sourcePoint" />
            <mxPoint x="-450" y="5216.666666666667" as="targetPoint" />
          </mxGeometry>
        </mxCell>
        <mxCell id="y-TOsAkke1c8q-5eCv3_-501" value="" style="endArrow=none;html=1;rounded=0;flowAnimation=1;" edge="1" parent="y-TOsAkke1c8q-5eCv3_-13" source="y-TOsAkke1c8q-5eCv3_-502" target="y-TOsAkke1c8q-5eCv3_-458">
          <mxGeometry relative="1" as="geometry">
            <mxPoint x="-676.4205391024138" y="5557.04685523592" as="sourcePoint" />
            <mxPoint x="-383.5294117647063" y="5255" as="targetPoint" />
          </mxGeometry>
        </mxCell>
        <mxCell id="y-TOsAkke1c8q-5eCv3_-502" value="SAL_BRKDWN" style="ellipse;whiteSpace=wrap;html=1;align=center;" vertex="1" parent="y-TOsAkke1c8q-5eCv3_-13">
          <mxGeometry x="-370" y="5295" width="100" height="40" as="geometry" />
        </mxCell>
        <mxCell id="y-TOsAkke1c8q-5eCv3_-503" value="&lt;b&gt;PRL_ID&lt;/b&gt;" style="ellipse;whiteSpace=wrap;html=1;align=center;fontStyle=4;fillColor=#fa6800;fontColor=#000000;strokeColor=#C73500;" vertex="1" parent="y-TOsAkke1c8q-5eCv3_-13">
          <mxGeometry x="-620" y="5185" width="100" height="40" as="geometry" />
        </mxCell>
        <mxCell id="y-TOsAkke1c8q-5eCv3_-504" value="" style="endArrow=none;html=1;rounded=0;flowAnimation=1;" edge="1" parent="y-TOsAkke1c8q-5eCv3_-13" source="y-TOsAkke1c8q-5eCv3_-505" target="y-TOsAkke1c8q-5eCv3_-458">
          <mxGeometry relative="1" as="geometry">
            <mxPoint x="-403.42053910241384" y="5412.04685523592" as="sourcePoint" />
            <mxPoint x="-250" y="5100" as="targetPoint" />
          </mxGeometry>
        </mxCell>
        <mxCell id="y-TOsAkke1c8q-5eCv3_-505" value="PAY_MODE" style="ellipse;whiteSpace=wrap;html=1;align=center;" vertex="1" parent="y-TOsAkke1c8q-5eCv3_-13">
          <mxGeometry x="-460" y="5035" width="100" height="40" as="geometry" />
        </mxCell>
        <mxCell id="y-TOsAkke1c8q-5eCv3_-506" value="" style="endArrow=none;html=1;rounded=0;flowAnimation=1;" edge="1" parent="y-TOsAkke1c8q-5eCv3_-13" source="y-TOsAkke1c8q-5eCv3_-507" target="y-TOsAkke1c8q-5eCv3_-458">
          <mxGeometry relative="1" as="geometry">
            <mxPoint x="-566.4205391024138" y="5442.04685523592" as="sourcePoint" />
            <mxPoint x="-273.5294117647063" y="5140" as="targetPoint" />
          </mxGeometry>
        </mxCell>
        <mxCell id="y-TOsAkke1c8q-5eCv3_-507" value="NET_SAL" style="ellipse;whiteSpace=wrap;html=1;align=center;" vertex="1" parent="y-TOsAkke1c8q-5eCv3_-13">
          <mxGeometry x="-330" y="5075" width="100" height="40" as="geometry" />
        </mxCell>
        <mxCell id="y-TOsAkke1c8q-5eCv3_-84" value="EMPLOYEE" parent="0" visible="0" />
        <mxCell id="y-TOsAkke1c8q-5eCv3_-85" value="EMPLOYEE" style="whiteSpace=wrap;html=1;align=center;fillColor=#e1d5e7;strokeColor=#9673a6;" vertex="1" parent="y-TOsAkke1c8q-5eCv3_-84">
          <mxGeometry x="160" y="170" width="100" height="40" as="geometry" />
        </mxCell>
        <mxCell id="y-TOsAkke1c8q-5eCv3_-86" value="GNDR" style="ellipse;whiteSpace=wrap;html=1;align=center;" vertex="1" parent="y-TOsAkke1c8q-5eCv3_-84">
          <mxGeometry x="140" y="270" width="100" height="40" as="geometry" />
        </mxCell>
        <mxCell id="y-TOsAkke1c8q-5eCv3_-87" value="" style="endArrow=none;html=1;rounded=0;" edge="1" parent="y-TOsAkke1c8q-5eCv3_-84" source="y-TOsAkke1c8q-5eCv3_-86" target="y-TOsAkke1c8q-5eCv3_-85">
          <mxGeometry relative="1" as="geometry">
            <mxPoint x="253" y="153" as="sourcePoint" />
            <mxPoint x="146" y="110" as="targetPoint" />
          </mxGeometry>
        </mxCell>
        <mxCell id="y-TOsAkke1c8q-5eCv3_-88" value="DOB" style="ellipse;whiteSpace=wrap;html=1;align=center;" vertex="1" parent="y-TOsAkke1c8q-5eCv3_-84">
          <mxGeometry x="70" y="320" width="100" height="40" as="geometry" />
        </mxCell>
        <mxCell id="y-TOsAkke1c8q-5eCv3_-89" value="" style="endArrow=none;html=1;rounded=0;" edge="1" parent="y-TOsAkke1c8q-5eCv3_-84" source="y-TOsAkke1c8q-5eCv3_-88" target="y-TOsAkke1c8q-5eCv3_-85">
          <mxGeometry relative="1" as="geometry">
            <mxPoint x="153" y="168" as="sourcePoint" />
            <mxPoint x="138" y="110" as="targetPoint" />
          </mxGeometry>
        </mxCell>
        <mxCell id="y-TOsAkke1c8q-5eCv3_-90" value="EMP_LNM" style="ellipse;whiteSpace=wrap;html=1;align=center;" vertex="1" parent="y-TOsAkke1c8q-5eCv3_-84">
          <mxGeometry x="-10" y="260" width="100" height="40" as="geometry" />
        </mxCell>
        <mxCell id="y-TOsAkke1c8q-5eCv3_-91" value="" style="endArrow=none;html=1;rounded=0;" edge="1" parent="y-TOsAkke1c8q-5eCv3_-84" source="y-TOsAkke1c8q-5eCv3_-90" target="y-TOsAkke1c8q-5eCv3_-85">
          <mxGeometry relative="1" as="geometry">
            <mxPoint x="163" y="178" as="sourcePoint" />
            <mxPoint x="129" y="110" as="targetPoint" />
          </mxGeometry>
        </mxCell>
        <mxCell id="y-TOsAkke1c8q-5eCv3_-92" value="" style="endArrow=none;html=1;rounded=0;" edge="1" parent="y-TOsAkke1c8q-5eCv3_-84" source="y-TOsAkke1c8q-5eCv3_-101" target="y-TOsAkke1c8q-5eCv3_-85">
          <mxGeometry relative="1" as="geometry">
            <mxPoint x="297.16610825412795" y="212.20735708113875" as="sourcePoint" />
            <mxPoint x="165" y="110" as="targetPoint" />
          </mxGeometry>
        </mxCell>
        <mxCell id="y-TOsAkke1c8q-5eCv3_-93" value="ADDR" style="ellipse;whiteSpace=wrap;html=1;align=center;" vertex="1" parent="y-TOsAkke1c8q-5eCv3_-84">
          <mxGeometry x="245" y="260" width="100" height="40" as="geometry" />
        </mxCell>
        <mxCell id="y-TOsAkke1c8q-5eCv3_-94" value="" style="endArrow=none;html=1;rounded=0;" edge="1" parent="y-TOsAkke1c8q-5eCv3_-84" source="y-TOsAkke1c8q-5eCv3_-93" target="y-TOsAkke1c8q-5eCv3_-85">
          <mxGeometry relative="1" as="geometry">
            <mxPoint x="454.71" y="108" as="sourcePoint" />
            <mxPoint x="156" y="110" as="targetPoint" />
          </mxGeometry>
        </mxCell>
        <mxCell id="y-TOsAkke1c8q-5eCv3_-95" value="EMAIL" style="ellipse;whiteSpace=wrap;html=1;align=center;" vertex="1" parent="y-TOsAkke1c8q-5eCv3_-84">
          <mxGeometry x="340" y="270" width="100" height="40" as="geometry" />
        </mxCell>
        <mxCell id="y-TOsAkke1c8q-5eCv3_-96" value="" style="endArrow=none;html=1;rounded=0;" edge="1" parent="y-TOsAkke1c8q-5eCv3_-84" source="y-TOsAkke1c8q-5eCv3_-95" target="y-TOsAkke1c8q-5eCv3_-85">
          <mxGeometry relative="1" as="geometry">
            <mxPoint x="464.71" y="118" as="sourcePoint" />
            <mxPoint x="174" y="110" as="targetPoint" />
          </mxGeometry>
        </mxCell>
        <mxCell id="y-TOsAkke1c8q-5eCv3_-97" value="DOJ" style="ellipse;whiteSpace=wrap;html=1;align=center;" vertex="1" parent="y-TOsAkke1c8q-5eCv3_-84">
          <mxGeometry x="-50" y="60" width="100" height="40" as="geometry" />
        </mxCell>
        <mxCell id="y-TOsAkke1c8q-5eCv3_-98" value="" style="endArrow=none;html=1;rounded=0;" edge="1" parent="y-TOsAkke1c8q-5eCv3_-84" source="y-TOsAkke1c8q-5eCv3_-97" target="y-TOsAkke1c8q-5eCv3_-85">
          <mxGeometry relative="1" as="geometry">
            <mxPoint x="474.71" y="128" as="sourcePoint" />
            <mxPoint x="90" y="86" as="targetPoint" />
          </mxGeometry>
        </mxCell>
        <mxCell id="y-TOsAkke1c8q-5eCv3_-99" value="DESG" style="ellipse;whiteSpace=wrap;html=1;align=center;" vertex="1" parent="y-TOsAkke1c8q-5eCv3_-84">
          <mxGeometry x="80" y="10" width="100" height="40" as="geometry" />
        </mxCell>
        <mxCell id="y-TOsAkke1c8q-5eCv3_-100" value="" style="endArrow=none;html=1;rounded=0;" edge="1" parent="y-TOsAkke1c8q-5eCv3_-84" source="y-TOsAkke1c8q-5eCv3_-99" target="y-TOsAkke1c8q-5eCv3_-85">
          <mxGeometry relative="1" as="geometry">
            <mxPoint x="579.71" y="-32" as="sourcePoint" />
            <mxPoint x="137" y="70" as="targetPoint" />
          </mxGeometry>
        </mxCell>
        <mxCell id="y-TOsAkke1c8q-5eCv3_-101" value="PHNO" style="ellipse;shape=doubleEllipse;margin=3;whiteSpace=wrap;html=1;align=center;" vertex="1" parent="y-TOsAkke1c8q-5eCv3_-84">
          <mxGeometry x="230" y="330" width="100" height="40" as="geometry" />
        </mxCell>
        <mxCell id="y-TOsAkke1c8q-5eCv3_-102" value="POS" style="ellipse;whiteSpace=wrap;html=1;align=center;" vertex="1" parent="y-TOsAkke1c8q-5eCv3_-84">
          <mxGeometry x="190" y="10" width="100" height="40" as="geometry" />
        </mxCell>
        <mxCell id="y-TOsAkke1c8q-5eCv3_-103" value="" style="endArrow=none;html=1;rounded=0;" edge="1" parent="y-TOsAkke1c8q-5eCv3_-84" source="y-TOsAkke1c8q-5eCv3_-102" target="y-TOsAkke1c8q-5eCv3_-85">
          <mxGeometry relative="1" as="geometry">
            <mxPoint x="669.71" y="18" as="sourcePoint" />
            <mxPoint x="173" y="70" as="targetPoint" />
          </mxGeometry>
        </mxCell>
        <mxCell id="y-TOsAkke1c8q-5eCv3_-104" value="EMP_FNM" style="ellipse;whiteSpace=wrap;html=1;align=center;" vertex="1" parent="y-TOsAkke1c8q-5eCv3_-84">
          <mxGeometry x="-10" y="190" width="100" height="40" as="geometry" />
        </mxCell>
        <mxCell id="y-TOsAkke1c8q-5eCv3_-105" value="&lt;b&gt;EMP_ID&lt;/b&gt;" style="ellipse;whiteSpace=wrap;html=1;align=center;fontStyle=4;" vertex="1" parent="y-TOsAkke1c8q-5eCv3_-84">
          <mxGeometry x="-30" y="10" width="100" height="40" as="geometry" />
        </mxCell>
        <mxCell id="y-TOsAkke1c8q-5eCv3_-106" value="" style="endArrow=none;html=1;rounded=0;" edge="1" parent="y-TOsAkke1c8q-5eCv3_-84" source="y-TOsAkke1c8q-5eCv3_-105" target="y-TOsAkke1c8q-5eCv3_-85">
          <mxGeometry relative="1" as="geometry">
            <mxPoint x="340" y="250" as="sourcePoint" />
            <mxPoint x="100" y="70" as="targetPoint" />
          </mxGeometry>
        </mxCell>
        <mxCell id="y-TOsAkke1c8q-5eCv3_-107" value="" style="endArrow=none;html=1;rounded=0;" edge="1" parent="y-TOsAkke1c8q-5eCv3_-84" source="y-TOsAkke1c8q-5eCv3_-104" target="y-TOsAkke1c8q-5eCv3_-85">
          <mxGeometry relative="1" as="geometry">
            <mxPoint x="133" y="148" as="sourcePoint" />
            <mxPoint x="123" y="110" as="targetPoint" />
          </mxGeometry>
        </mxCell>
        <mxCell id="y-TOsAkke1c8q-5eCv3_-139" value="TYPE" style="ellipse;whiteSpace=wrap;html=1;align=center;" vertex="1" parent="y-TOsAkke1c8q-5eCv3_-84">
          <mxGeometry x="245" y="60" width="100" height="40" as="geometry" />
        </mxCell>
        <mxCell id="y-TOsAkke1c8q-5eCv3_-140" value="" style="endArrow=none;html=1;rounded=0;" edge="1" parent="y-TOsAkke1c8q-5eCv3_-84" source="y-TOsAkke1c8q-5eCv3_-139" target="y-TOsAkke1c8q-5eCv3_-85">
          <mxGeometry relative="1" as="geometry">
            <mxPoint x="759.71" y="58" as="sourcePoint" />
            <mxPoint x="318" y="190" as="targetPoint" />
          </mxGeometry>
        </mxCell>
        <mxCell id="y-TOsAkke1c8q-5eCv3_-141" value="STATUS" style="ellipse;whiteSpace=wrap;html=1;align=center;" vertex="1" parent="y-TOsAkke1c8q-5eCv3_-84">
          <mxGeometry x="280" y="110" width="100" height="40" as="geometry" />
        </mxCell>
        <mxCell id="y-TOsAkke1c8q-5eCv3_-142" value="" style="endArrow=none;html=1;rounded=0;" edge="1" parent="y-TOsAkke1c8q-5eCv3_-84" source="y-TOsAkke1c8q-5eCv3_-141" target="y-TOsAkke1c8q-5eCv3_-85">
          <mxGeometry relative="1" as="geometry">
            <mxPoint x="849.71" y="108" as="sourcePoint" />
            <mxPoint x="342" y="190" as="targetPoint" />
          </mxGeometry>
        </mxCell>
        <mxCell id="y-TOsAkke1c8q-5eCv3_-179" value="SALARY" parent="0" visible="0" />
        <mxCell id="y-TOsAkke1c8q-5eCv3_-180" value="SALARY" style="whiteSpace=wrap;html=1;align=center;fillColor=#0050ef;strokeColor=#001DBC;fontColor=#ffffff;" vertex="1" parent="y-TOsAkke1c8q-5eCv3_-179">
          <mxGeometry x="310" y="510" width="100" height="40" as="geometry" />
        </mxCell>
        <mxCell id="y-TOsAkke1c8q-5eCv3_-181" value="ALLOWANCES" style="ellipse;whiteSpace=wrap;html=1;align=center;" vertex="1" parent="y-TOsAkke1c8q-5eCv3_-179">
          <mxGeometry x="170" y="640" width="100" height="40" as="geometry" />
        </mxCell>
        <mxCell id="y-TOsAkke1c8q-5eCv3_-182" value="" style="endArrow=none;html=1;rounded=0;" edge="1" parent="y-TOsAkke1c8q-5eCv3_-179" source="y-TOsAkke1c8q-5eCv3_-181" target="y-TOsAkke1c8q-5eCv3_-180">
          <mxGeometry relative="1" as="geometry">
            <mxPoint x="353" y="563" as="sourcePoint" />
            <mxPoint x="316" y="610" as="targetPoint" />
          </mxGeometry>
        </mxCell>
        <mxCell id="y-TOsAkke1c8q-5eCv3_-183" value="BASIC_PAY" style="ellipse;whiteSpace=wrap;html=1;align=center;" vertex="1" parent="y-TOsAkke1c8q-5eCv3_-179">
          <mxGeometry x="120" y="560" width="100" height="40" as="geometry" />
        </mxCell>
        <mxCell id="y-TOsAkke1c8q-5eCv3_-184" value="" style="endArrow=none;html=1;rounded=0;" edge="1" parent="y-TOsAkke1c8q-5eCv3_-179" source="y-TOsAkke1c8q-5eCv3_-183" target="y-TOsAkke1c8q-5eCv3_-180">
          <mxGeometry relative="1" as="geometry">
            <mxPoint x="253" y="578" as="sourcePoint" />
            <mxPoint x="308" y="610" as="targetPoint" />
          </mxGeometry>
        </mxCell>
        <mxCell id="y-TOsAkke1c8q-5eCv3_-185" value="" style="endArrow=none;html=1;rounded=0;" edge="1" parent="y-TOsAkke1c8q-5eCv3_-179" source="y-TOsAkke1c8q-5eCv3_-199" target="y-TOsAkke1c8q-5eCv3_-180">
          <mxGeometry relative="1" as="geometry">
            <mxPoint x="315.4670239576308" y="690.1199128813432" as="sourcePoint" />
            <mxPoint x="329" y="610" as="targetPoint" />
          </mxGeometry>
        </mxCell>
        <mxCell id="y-TOsAkke1c8q-5eCv3_-186" value="GROSS_SAL" style="ellipse;whiteSpace=wrap;html=1;align=center;" vertex="1" parent="y-TOsAkke1c8q-5eCv3_-179">
          <mxGeometry x="400" y="630" width="100" height="40" as="geometry" />
        </mxCell>
        <mxCell id="y-TOsAkke1c8q-5eCv3_-187" value="" style="endArrow=none;html=1;rounded=0;" edge="1" parent="y-TOsAkke1c8q-5eCv3_-179" source="y-TOsAkke1c8q-5eCv3_-186" target="y-TOsAkke1c8q-5eCv3_-180">
          <mxGeometry relative="1" as="geometry">
            <mxPoint x="554.71" y="518" as="sourcePoint" />
            <mxPoint x="335" y="610" as="targetPoint" />
          </mxGeometry>
        </mxCell>
        <mxCell id="y-TOsAkke1c8q-5eCv3_-188" value="NET_SAL" style="ellipse;whiteSpace=wrap;html=1;align=center;" vertex="1" parent="y-TOsAkke1c8q-5eCv3_-179">
          <mxGeometry x="480" y="570" width="100" height="40" as="geometry" />
        </mxCell>
        <mxCell id="y-TOsAkke1c8q-5eCv3_-189" value="" style="endArrow=none;html=1;rounded=0;" edge="1" parent="y-TOsAkke1c8q-5eCv3_-179" source="y-TOsAkke1c8q-5eCv3_-188" target="y-TOsAkke1c8q-5eCv3_-180">
          <mxGeometry relative="1" as="geometry">
            <mxPoint x="564.71" y="528" as="sourcePoint" />
            <mxPoint x="351" y="610" as="targetPoint" />
          </mxGeometry>
        </mxCell>
        <mxCell id="y-TOsAkke1c8q-5eCv3_-190" value="EMP_ID" style="ellipse;whiteSpace=wrap;html=1;align=center;fillColor=#e1d5e7;strokeColor=#9673a6;" vertex="1" parent="y-TOsAkke1c8q-5eCv3_-179">
          <mxGeometry x="120" y="440" width="100" height="40" as="geometry" />
        </mxCell>
        <mxCell id="y-TOsAkke1c8q-5eCv3_-191" value="" style="endArrow=none;html=1;rounded=0;" edge="1" parent="y-TOsAkke1c8q-5eCv3_-179" source="y-TOsAkke1c8q-5eCv3_-190" target="y-TOsAkke1c8q-5eCv3_-180">
          <mxGeometry relative="1" as="geometry">
            <mxPoint x="574.71" y="538" as="sourcePoint" />
            <mxPoint x="276" y="570" as="targetPoint" />
          </mxGeometry>
        </mxCell>
        <mxCell id="y-TOsAkke1c8q-5eCv3_-193" value="&lt;b&gt;SAL_ID&lt;/b&gt;" style="ellipse;whiteSpace=wrap;html=1;align=center;fontStyle=4;fillColor=#0050ef;fontColor=#ffffff;strokeColor=#001DBC;" vertex="1" parent="y-TOsAkke1c8q-5eCv3_-179">
          <mxGeometry x="220" y="380" width="100" height="40" as="geometry" />
        </mxCell>
        <mxCell id="y-TOsAkke1c8q-5eCv3_-194" value="" style="endArrow=none;html=1;rounded=0;" edge="1" parent="y-TOsAkke1c8q-5eCv3_-179" source="y-TOsAkke1c8q-5eCv3_-193" target="y-TOsAkke1c8q-5eCv3_-180">
          <mxGeometry relative="1" as="geometry">
            <mxPoint x="440" y="660" as="sourcePoint" />
            <mxPoint x="300" y="540" as="targetPoint" />
          </mxGeometry>
        </mxCell>
        <mxCell id="y-TOsAkke1c8q-5eCv3_-195" value="PAY_PERIOD_EDT" style="ellipse;whiteSpace=wrap;html=1;align=center;" vertex="1" parent="y-TOsAkke1c8q-5eCv3_-179">
          <mxGeometry x="470" y="420" width="120" height="50" as="geometry" />
        </mxCell>
        <mxCell id="y-TOsAkke1c8q-5eCv3_-196" value="" style="endArrow=none;html=1;rounded=0;" edge="1" parent="y-TOsAkke1c8q-5eCv3_-179" source="y-TOsAkke1c8q-5eCv3_-195" target="y-TOsAkke1c8q-5eCv3_-180">
          <mxGeometry relative="1" as="geometry">
            <mxPoint x="693" y="583" as="sourcePoint" />
            <mxPoint x="656" y="630" as="targetPoint" />
          </mxGeometry>
        </mxCell>
        <mxCell id="y-TOsAkke1c8q-5eCv3_-197" value="PAY_PERIOD_SDT" style="ellipse;whiteSpace=wrap;html=1;align=center;" vertex="1" parent="y-TOsAkke1c8q-5eCv3_-179">
          <mxGeometry x="520" y="480" width="120" height="50" as="geometry" />
        </mxCell>
        <mxCell id="y-TOsAkke1c8q-5eCv3_-198" value="" style="endArrow=none;html=1;rounded=0;" edge="1" parent="y-TOsAkke1c8q-5eCv3_-179" source="y-TOsAkke1c8q-5eCv3_-197" target="y-TOsAkke1c8q-5eCv3_-180">
          <mxGeometry relative="1" as="geometry">
            <mxPoint x="593" y="598" as="sourcePoint" />
            <mxPoint x="648" y="630" as="targetPoint" />
          </mxGeometry>
        </mxCell>
        <mxCell id="y-TOsAkke1c8q-5eCv3_-199" value="DEDUCTIONS" style="ellipse;whiteSpace=wrap;html=1;align=center;" vertex="1" parent="y-TOsAkke1c8q-5eCv3_-179">
          <mxGeometry x="300" y="670" width="100" height="40" as="geometry" />
        </mxCell>
        <mxCell id="y-TOsAkke1c8q-5eCv3_-228" value="ATTENDANCE" parent="0" visible="0" />
        <mxCell id="y-TOsAkke1c8q-5eCv3_-229" value="ATTENDANCE" style="whiteSpace=wrap;html=1;align=center;fillColor=#d80073;fontColor=#ffffff;strokeColor=#A50040;" vertex="1" parent="y-TOsAkke1c8q-5eCv3_-228">
          <mxGeometry x="370" y="160" width="100" height="40" as="geometry" />
        </mxCell>
        <mxCell id="y-TOsAkke1c8q-5eCv3_-230" value="DATE" style="ellipse;whiteSpace=wrap;html=1;align=center;" vertex="1" parent="y-TOsAkke1c8q-5eCv3_-228">
          <mxGeometry x="340" y="60" width="100" height="40" as="geometry" />
        </mxCell>
        <mxCell id="y-TOsAkke1c8q-5eCv3_-231" value="" style="endArrow=none;html=1;rounded=0;" edge="1" parent="y-TOsAkke1c8q-5eCv3_-228" source="y-TOsAkke1c8q-5eCv3_-230" target="y-TOsAkke1c8q-5eCv3_-229">
          <mxGeometry relative="1" as="geometry">
            <mxPoint x="363" y="423" as="sourcePoint" />
            <mxPoint x="363" y="410" as="targetPoint" />
          </mxGeometry>
        </mxCell>
        <mxCell id="y-TOsAkke1c8q-5eCv3_-232" value="" style="endArrow=none;html=1;rounded=0;" edge="1" parent="y-TOsAkke1c8q-5eCv3_-228" source="y-TOsAkke1c8q-5eCv3_-244" target="y-TOsAkke1c8q-5eCv3_-229">
          <mxGeometry relative="1" as="geometry">
            <mxPoint x="259.9991375347927" y="440.61553144127174" as="sourcePoint" />
            <mxPoint x="374.69000000000005" y="260" as="targetPoint" />
          </mxGeometry>
        </mxCell>
        <mxCell id="y-TOsAkke1c8q-5eCv3_-233" value="" style="endArrow=none;html=1;rounded=0;" edge="1" parent="y-TOsAkke1c8q-5eCv3_-228" source="y-TOsAkke1c8q-5eCv3_-243" target="y-TOsAkke1c8q-5eCv3_-229">
          <mxGeometry relative="1" as="geometry">
            <mxPoint x="406.57946089758616" y="600.0468552359198" as="sourcePoint" />
            <mxPoint x="374" y="410" as="targetPoint" />
          </mxGeometry>
        </mxCell>
        <mxCell id="y-TOsAkke1c8q-5eCv3_-234" value="STATUS" style="ellipse;whiteSpace=wrap;html=1;align=center;" vertex="1" parent="y-TOsAkke1c8q-5eCv3_-228">
          <mxGeometry x="200" y="230" width="100" height="40" as="geometry" />
        </mxCell>
        <mxCell id="y-TOsAkke1c8q-5eCv3_-235" value="" style="endArrow=none;html=1;rounded=0;" edge="1" parent="y-TOsAkke1c8q-5eCv3_-228" source="y-TOsAkke1c8q-5eCv3_-234" target="y-TOsAkke1c8q-5eCv3_-229">
          <mxGeometry relative="1" as="geometry">
            <mxPoint x="564.71" y="378" as="sourcePoint" />
            <mxPoint x="374" y="410" as="targetPoint" />
          </mxGeometry>
        </mxCell>
        <mxCell id="y-TOsAkke1c8q-5eCv3_-236" value="SHIFT_OUT" style="ellipse;whiteSpace=wrap;html=1;align=center;" vertex="1" parent="y-TOsAkke1c8q-5eCv3_-228">
          <mxGeometry x="450" y="320" width="100" height="40" as="geometry" />
        </mxCell>
        <mxCell id="y-TOsAkke1c8q-5eCv3_-237" value="" style="endArrow=none;html=1;rounded=0;" edge="1" parent="y-TOsAkke1c8q-5eCv3_-228" source="y-TOsAkke1c8q-5eCv3_-236" target="y-TOsAkke1c8q-5eCv3_-229">
          <mxGeometry relative="1" as="geometry">
            <mxPoint x="574.71" y="388" as="sourcePoint" />
            <mxPoint x="385" y="410" as="targetPoint" />
          </mxGeometry>
        </mxCell>
        <mxCell id="y-TOsAkke1c8q-5eCv3_-238" value="" style="endArrow=none;html=1;rounded=0;" edge="1" parent="y-TOsAkke1c8q-5eCv3_-228" source="y-TOsAkke1c8q-5eCv3_-245" target="y-TOsAkke1c8q-5eCv3_-229">
          <mxGeometry relative="1" as="geometry">
            <mxPoint x="260" y="290" as="sourcePoint" />
            <mxPoint x="343" y="410" as="targetPoint" />
          </mxGeometry>
        </mxCell>
        <mxCell id="y-TOsAkke1c8q-5eCv3_-239" value="TOT_WRKHRS" style="ellipse;whiteSpace=wrap;html=1;align=center;" vertex="1" parent="y-TOsAkke1c8q-5eCv3_-228">
          <mxGeometry x="560" y="100" width="130" height="50" as="geometry" />
        </mxCell>
        <mxCell id="y-TOsAkke1c8q-5eCv3_-240" value="" style="endArrow=none;html=1;rounded=0;" edge="1" parent="y-TOsAkke1c8q-5eCv3_-228" source="y-TOsAkke1c8q-5eCv3_-239" target="y-TOsAkke1c8q-5eCv3_-229">
          <mxGeometry relative="1" as="geometry">
            <mxPoint x="703" y="443" as="sourcePoint" />
            <mxPoint x="402" y="410" as="targetPoint" />
          </mxGeometry>
        </mxCell>
        <mxCell id="y-TOsAkke1c8q-5eCv3_-241" value="OVERTIME" style="ellipse;whiteSpace=wrap;html=1;align=center;" vertex="1" parent="y-TOsAkke1c8q-5eCv3_-228">
          <mxGeometry x="500" y="210" width="130" height="40" as="geometry" />
        </mxCell>
        <mxCell id="y-TOsAkke1c8q-5eCv3_-242" value="" style="endArrow=none;html=1;rounded=0;" edge="1" parent="y-TOsAkke1c8q-5eCv3_-228" source="y-TOsAkke1c8q-5eCv3_-241" target="y-TOsAkke1c8q-5eCv3_-229">
          <mxGeometry relative="1" as="geometry">
            <mxPoint x="603" y="458" as="sourcePoint" />
            <mxPoint x="385" y="410" as="targetPoint" />
          </mxGeometry>
        </mxCell>
        <mxCell id="y-TOsAkke1c8q-5eCv3_-243" value="SHIFT_IN" style="ellipse;whiteSpace=wrap;html=1;align=center;" vertex="1" parent="y-TOsAkke1c8q-5eCv3_-228">
          <mxGeometry x="260" y="330" width="100" height="40" as="geometry" />
        </mxCell>
        <mxCell id="y-TOsAkke1c8q-5eCv3_-244" value="&lt;b&gt;ATTD_ID&lt;/b&gt;" style="ellipse;whiteSpace=wrap;html=1;align=center;fontStyle=4;fillColor=#d80073;strokeColor=#A50040;fontColor=#ffffff;" vertex="1" parent="y-TOsAkke1c8q-5eCv3_-228">
          <mxGeometry x="210" y="70" width="100" height="40" as="geometry" />
        </mxCell>
        <mxCell id="y-TOsAkke1c8q-5eCv3_-245" value="EMP_ID" style="ellipse;whiteSpace=wrap;html=1;align=center;fillColor=#e1d5e7;strokeColor=#9673a6;" vertex="1" parent="y-TOsAkke1c8q-5eCv3_-228">
          <mxGeometry x="210" y="140" width="100" height="40" as="geometry" />
        </mxCell>
        <mxCell id="y-TOsAkke1c8q-5eCv3_-296" value="COMPLIANCE" parent="0" visible="0" />
        <mxCell id="y-TOsAkke1c8q-5eCv3_-297" value="COMPLIANCE" style="whiteSpace=wrap;html=1;align=center;fillColor=#60a917;strokeColor=#2D7600;fontColor=#ffffff;" vertex="1" parent="y-TOsAkke1c8q-5eCv3_-296">
          <mxGeometry x="1160" y="200" width="100" height="40" as="geometry" />
        </mxCell>
        <mxCell id="y-TOsAkke1c8q-5eCv3_-298" value="PF" style="ellipse;whiteSpace=wrap;html=1;align=center;" vertex="1" parent="y-TOsAkke1c8q-5eCv3_-296">
          <mxGeometry x="1160" y="360" width="100" height="40" as="geometry" />
        </mxCell>
        <mxCell id="y-TOsAkke1c8q-5eCv3_-299" value="" style="endArrow=none;html=1;rounded=0;" edge="1" parent="y-TOsAkke1c8q-5eCv3_-296" source="y-TOsAkke1c8q-5eCv3_-298" target="y-TOsAkke1c8q-5eCv3_-297">
          <mxGeometry relative="1" as="geometry">
            <mxPoint x="1173" y="240" as="sourcePoint" />
            <mxPoint x="1201" y="190" as="targetPoint" />
          </mxGeometry>
        </mxCell>
        <mxCell id="y-TOsAkke1c8q-5eCv3_-300" value="TDS" style="ellipse;whiteSpace=wrap;html=1;align=center;" vertex="1" parent="y-TOsAkke1c8q-5eCv3_-296">
          <mxGeometry x="1010" y="330" width="100" height="40" as="geometry" />
        </mxCell>
        <mxCell id="y-TOsAkke1c8q-5eCv3_-301" value="" style="endArrow=none;html=1;rounded=0;" edge="1" parent="y-TOsAkke1c8q-5eCv3_-296" source="y-TOsAkke1c8q-5eCv3_-300" target="y-TOsAkke1c8q-5eCv3_-297">
          <mxGeometry relative="1" as="geometry">
            <mxPoint x="1073" y="255" as="sourcePoint" />
            <mxPoint x="1197" y="190" as="targetPoint" />
          </mxGeometry>
        </mxCell>
        <mxCell id="y-TOsAkke1c8q-5eCv3_-302" value="" style="endArrow=none;html=1;rounded=0;" edge="1" parent="y-TOsAkke1c8q-5eCv3_-296" source="y-TOsAkke1c8q-5eCv3_-311" target="y-TOsAkke1c8q-5eCv3_-297">
          <mxGeometry relative="1" as="geometry">
            <mxPoint x="1216.5794608975862" y="417.0468552359198" as="sourcePoint" />
            <mxPoint x="1211" y="190" as="targetPoint" />
          </mxGeometry>
        </mxCell>
        <mxCell id="y-TOsAkke1c8q-5eCv3_-303" value="PROF_TAX" style="ellipse;whiteSpace=wrap;html=1;align=center;" vertex="1" parent="y-TOsAkke1c8q-5eCv3_-296">
          <mxGeometry x="1380" y="300" width="100" height="40" as="geometry" />
        </mxCell>
        <mxCell id="y-TOsAkke1c8q-5eCv3_-304" value="" style="endArrow=none;html=1;rounded=0;" edge="1" parent="y-TOsAkke1c8q-5eCv3_-296" source="y-TOsAkke1c8q-5eCv3_-303" target="y-TOsAkke1c8q-5eCv3_-297">
          <mxGeometry relative="1" as="geometry">
            <mxPoint x="1374.71" y="195" as="sourcePoint" />
            <mxPoint x="1211" y="190" as="targetPoint" />
          </mxGeometry>
        </mxCell>
        <mxCell id="y-TOsAkke1c8q-5eCv3_-305" value="TAXABLE_INC" style="ellipse;whiteSpace=wrap;html=1;align=center;" vertex="1" parent="y-TOsAkke1c8q-5eCv3_-296">
          <mxGeometry x="1350" y="140" width="100" height="40" as="geometry" />
        </mxCell>
        <mxCell id="y-TOsAkke1c8q-5eCv3_-306" value="" style="endArrow=none;html=1;rounded=0;" edge="1" parent="y-TOsAkke1c8q-5eCv3_-296" source="y-TOsAkke1c8q-5eCv3_-305" target="y-TOsAkke1c8q-5eCv3_-297">
          <mxGeometry relative="1" as="geometry">
            <mxPoint x="1384.71" y="205" as="sourcePoint" />
            <mxPoint x="1220" y="190" as="targetPoint" />
          </mxGeometry>
        </mxCell>
        <mxCell id="y-TOsAkke1c8q-5eCv3_-307" value="EMP_ID" style="ellipse;whiteSpace=wrap;html=1;align=center;fillColor=#e1d5e7;strokeColor=#9673a6;" vertex="1" parent="y-TOsAkke1c8q-5eCv3_-296">
          <mxGeometry x="970" y="220" width="100" height="40" as="geometry" />
        </mxCell>
        <mxCell id="y-TOsAkke1c8q-5eCv3_-308" value="" style="endArrow=none;html=1;rounded=0;" edge="1" parent="y-TOsAkke1c8q-5eCv3_-296" source="y-TOsAkke1c8q-5eCv3_-307" target="y-TOsAkke1c8q-5eCv3_-297">
          <mxGeometry relative="1" as="geometry">
            <mxPoint x="1394.71" y="215" as="sourcePoint" />
            <mxPoint x="1185" y="190" as="targetPoint" />
          </mxGeometry>
        </mxCell>
        <mxCell id="y-TOsAkke1c8q-5eCv3_-309" value="&lt;b&gt;COMP_ID&lt;/b&gt;" style="ellipse;whiteSpace=wrap;html=1;align=center;fontStyle=4;fillColor=#60a917;fontColor=#ffffff;strokeColor=#2D7600;" vertex="1" parent="y-TOsAkke1c8q-5eCv3_-296">
          <mxGeometry x="980" y="130" width="100" height="40" as="geometry" />
        </mxCell>
        <mxCell id="y-TOsAkke1c8q-5eCv3_-310" value="" style="endArrow=none;html=1;rounded=0;" edge="1" parent="y-TOsAkke1c8q-5eCv3_-296" source="y-TOsAkke1c8q-5eCv3_-309" target="y-TOsAkke1c8q-5eCv3_-297">
          <mxGeometry relative="1" as="geometry">
            <mxPoint x="1260" y="337" as="sourcePoint" />
            <mxPoint x="1160" y="188" as="targetPoint" />
          </mxGeometry>
        </mxCell>
        <mxCell id="y-TOsAkke1c8q-5eCv3_-311" value="ESI" style="ellipse;whiteSpace=wrap;html=1;align=center;" vertex="1" parent="y-TOsAkke1c8q-5eCv3_-296">
          <mxGeometry x="1280" y="380" width="100" height="40" as="geometry" />
        </mxCell>
        <mxCell id="y-TOsAkke1c8q-5eCv3_-329" value="BANK" parent="0" visible="0" />
        <mxCell id="y-TOsAkke1c8q-5eCv3_-330" value="&lt;b&gt;BANK&lt;/b&gt;" style="whiteSpace=wrap;html=1;align=center;fillColor=#1ba1e2;fontColor=#ffffff;strokeColor=#006EAF;" vertex="1" parent="y-TOsAkke1c8q-5eCv3_-329">
          <mxGeometry x="1070" y="160" width="100" height="40" as="geometry" />
        </mxCell>
        <mxCell id="y-TOsAkke1c8q-5eCv3_-331" value="ACC_NM" style="ellipse;whiteSpace=wrap;html=1;align=center;" vertex="1" parent="y-TOsAkke1c8q-5eCv3_-329">
          <mxGeometry x="910" y="190" width="100" height="40" as="geometry" />
        </mxCell>
        <mxCell id="y-TOsAkke1c8q-5eCv3_-332" value="" style="endArrow=none;html=1;rounded=0;" edge="1" parent="y-TOsAkke1c8q-5eCv3_-329" source="y-TOsAkke1c8q-5eCv3_-331" target="y-TOsAkke1c8q-5eCv3_-330">
          <mxGeometry relative="1" as="geometry">
            <mxPoint x="1103" y="210" as="sourcePoint" />
            <mxPoint x="1140" y="210" as="targetPoint" />
          </mxGeometry>
        </mxCell>
        <mxCell id="y-TOsAkke1c8q-5eCv3_-333" value="ACC_NO" style="ellipse;whiteSpace=wrap;html=1;align=center;" vertex="1" parent="y-TOsAkke1c8q-5eCv3_-329">
          <mxGeometry x="940" y="250" width="100" height="40" as="geometry" />
        </mxCell>
        <mxCell id="y-TOsAkke1c8q-5eCv3_-334" value="" style="endArrow=none;html=1;rounded=0;" edge="1" parent="y-TOsAkke1c8q-5eCv3_-329" source="y-TOsAkke1c8q-5eCv3_-333" target="y-TOsAkke1c8q-5eCv3_-330">
          <mxGeometry relative="1" as="geometry">
            <mxPoint x="1003" y="225" as="sourcePoint" />
            <mxPoint x="1117" y="210" as="targetPoint" />
          </mxGeometry>
        </mxCell>
        <mxCell id="y-TOsAkke1c8q-5eCv3_-335" value="" style="endArrow=none;html=1;rounded=0;" edge="1" parent="y-TOsAkke1c8q-5eCv3_-329" source="y-TOsAkke1c8q-5eCv3_-340" target="y-TOsAkke1c8q-5eCv3_-330">
          <mxGeometry relative="1" as="geometry">
            <mxPoint x="1146.5794608975862" y="387.0468552359198" as="sourcePoint" />
            <mxPoint x="1153" y="210" as="targetPoint" />
          </mxGeometry>
        </mxCell>
        <mxCell id="y-TOsAkke1c8q-5eCv3_-336" value="IFSC" style="ellipse;whiteSpace=wrap;html=1;align=center;" vertex="1" parent="y-TOsAkke1c8q-5eCv3_-329">
          <mxGeometry x="1000" y="300" width="100" height="40" as="geometry" />
        </mxCell>
        <mxCell id="y-TOsAkke1c8q-5eCv3_-337" value="" style="endArrow=none;html=1;rounded=0;" edge="1" parent="y-TOsAkke1c8q-5eCv3_-329" source="y-TOsAkke1c8q-5eCv3_-336" target="y-TOsAkke1c8q-5eCv3_-330">
          <mxGeometry relative="1" as="geometry">
            <mxPoint x="1304.71" y="165" as="sourcePoint" />
            <mxPoint x="1184" y="210" as="targetPoint" />
          </mxGeometry>
        </mxCell>
        <mxCell id="y-TOsAkke1c8q-5eCv3_-338" value="EMP_ID" style="ellipse;whiteSpace=wrap;html=1;align=center;fillColor=#e1d5e7;strokeColor=#9673a6;" vertex="1" parent="y-TOsAkke1c8q-5eCv3_-329">
          <mxGeometry x="910" y="130" width="100" height="40" as="geometry" />
        </mxCell>
        <mxCell id="y-TOsAkke1c8q-5eCv3_-339" value="" style="endArrow=none;html=1;rounded=0;" edge="1" parent="y-TOsAkke1c8q-5eCv3_-329" source="y-TOsAkke1c8q-5eCv3_-338" target="y-TOsAkke1c8q-5eCv3_-330">
          <mxGeometry relative="1" as="geometry">
            <mxPoint x="1324.71" y="185" as="sourcePoint" />
            <mxPoint x="1090" y="195" as="targetPoint" />
          </mxGeometry>
        </mxCell>
        <mxCell id="y-TOsAkke1c8q-5eCv3_-340" value="BK_BRANCH" style="ellipse;whiteSpace=wrap;html=1;align=center;" vertex="1" parent="y-TOsAkke1c8q-5eCv3_-329">
          <mxGeometry x="1210" y="250" width="100" height="40" as="geometry" />
        </mxCell>
        <mxCell id="y-TOsAkke1c8q-5eCv3_-341" value="&lt;b&gt;BANK_ID&lt;/b&gt;" style="ellipse;whiteSpace=wrap;html=1;align=center;fontStyle=4;fillColor=#1ba1e2;fontColor=#ffffff;strokeColor=#006EAF;" vertex="1" parent="y-TOsAkke1c8q-5eCv3_-329">
          <mxGeometry x="930" y="60" width="100" height="40" as="geometry" />
        </mxCell>
        <mxCell id="y-TOsAkke1c8q-5eCv3_-342" value="" style="endArrow=none;html=1;rounded=0;" edge="1" parent="y-TOsAkke1c8q-5eCv3_-329" source="y-TOsAkke1c8q-5eCv3_-341" target="y-TOsAkke1c8q-5eCv3_-330">
          <mxGeometry relative="1" as="geometry">
            <mxPoint x="1160" y="281.5" as="sourcePoint" />
            <mxPoint x="1060" y="145.5" as="targetPoint" />
          </mxGeometry>
        </mxCell>
        <mxCell id="y-TOsAkke1c8q-5eCv3_-343" value="" style="endArrow=none;html=1;rounded=0;" edge="1" parent="y-TOsAkke1c8q-5eCv3_-329" source="y-TOsAkke1c8q-5eCv3_-344" target="y-TOsAkke1c8q-5eCv3_-330">
          <mxGeometry relative="1" as="geometry">
            <mxPoint x="983.5794608975862" y="417.0468552359198" as="sourcePoint" />
            <mxPoint x="990" y="240" as="targetPoint" />
          </mxGeometry>
        </mxCell>
        <mxCell id="y-TOsAkke1c8q-5eCv3_-344" value="BK_NM" style="ellipse;whiteSpace=wrap;html=1;align=center;" vertex="1" parent="y-TOsAkke1c8q-5eCv3_-329">
          <mxGeometry x="1110" y="310" width="100" height="40" as="geometry" />
        </mxCell>
        <mxCell id="y-TOsAkke1c8q-5eCv3_-375" value="LEAVE" parent="0" visible="0" />
        <mxCell id="y-TOsAkke1c8q-5eCv3_-376" value="LEAVE" style="whiteSpace=wrap;html=1;align=center;fillColor=#e51400;fontColor=#ffffff;strokeColor=#B20000;" vertex="1" parent="y-TOsAkke1c8q-5eCv3_-375">
          <mxGeometry x="1160" y="230" width="100" height="40" as="geometry" />
        </mxCell>
        <mxCell id="y-TOsAkke1c8q-5eCv3_-377" value="LV_SDT" style="ellipse;whiteSpace=wrap;html=1;align=center;" vertex="1" parent="y-TOsAkke1c8q-5eCv3_-375">
          <mxGeometry x="1160" y="360" width="100" height="40" as="geometry" />
        </mxCell>
        <mxCell id="y-TOsAkke1c8q-5eCv3_-378" value="" style="endArrow=none;html=1;rounded=0;" edge="1" parent="y-TOsAkke1c8q-5eCv3_-375" source="y-TOsAkke1c8q-5eCv3_-377" target="y-TOsAkke1c8q-5eCv3_-376">
          <mxGeometry relative="1" as="geometry">
            <mxPoint x="1173" y="240" as="sourcePoint" />
            <mxPoint x="1210" y="240" as="targetPoint" />
          </mxGeometry>
        </mxCell>
        <mxCell id="y-TOsAkke1c8q-5eCv3_-379" value="LV_TYPE" style="ellipse;whiteSpace=wrap;html=1;align=center;" vertex="1" parent="y-TOsAkke1c8q-5eCv3_-375">
          <mxGeometry x="1010" y="330" width="100" height="40" as="geometry" />
        </mxCell>
        <mxCell id="y-TOsAkke1c8q-5eCv3_-380" value="" style="endArrow=none;html=1;rounded=0;" edge="1" parent="y-TOsAkke1c8q-5eCv3_-375" source="y-TOsAkke1c8q-5eCv3_-379" target="y-TOsAkke1c8q-5eCv3_-376">
          <mxGeometry relative="1" as="geometry">
            <mxPoint x="1073" y="255" as="sourcePoint" />
            <mxPoint x="1187" y="240" as="targetPoint" />
          </mxGeometry>
        </mxCell>
        <mxCell id="y-TOsAkke1c8q-5eCv3_-381" value="" style="endArrow=none;html=1;rounded=0;" edge="1" parent="y-TOsAkke1c8q-5eCv3_-375" source="y-TOsAkke1c8q-5eCv3_-389" target="y-TOsAkke1c8q-5eCv3_-376">
          <mxGeometry relative="1" as="geometry">
            <mxPoint x="1216.5794608975862" y="417.0468552359198" as="sourcePoint" />
            <mxPoint x="1223" y="240" as="targetPoint" />
          </mxGeometry>
        </mxCell>
        <mxCell id="y-TOsAkke1c8q-5eCv3_-382" value="" style="endArrow=none;html=1;rounded=0;" edge="1" parent="y-TOsAkke1c8q-5eCv3_-375" source="y-TOsAkke1c8q-5eCv3_-390" target="y-TOsAkke1c8q-5eCv3_-376">
          <mxGeometry relative="1" as="geometry">
            <mxPoint x="1396.9686052554111" y="304.9857296615505" as="sourcePoint" />
            <mxPoint x="1254" y="240" as="targetPoint" />
          </mxGeometry>
        </mxCell>
        <mxCell id="y-TOsAkke1c8q-5eCv3_-383" value="LV_STATUS" style="ellipse;whiteSpace=wrap;html=1;align=center;" vertex="1" parent="y-TOsAkke1c8q-5eCv3_-375">
          <mxGeometry x="1350" y="140" width="100" height="40" as="geometry" />
        </mxCell>
        <mxCell id="y-TOsAkke1c8q-5eCv3_-384" value="" style="endArrow=none;html=1;rounded=0;" edge="1" parent="y-TOsAkke1c8q-5eCv3_-375" source="y-TOsAkke1c8q-5eCv3_-383" target="y-TOsAkke1c8q-5eCv3_-376">
          <mxGeometry relative="1" as="geometry">
            <mxPoint x="1384.71" y="205" as="sourcePoint" />
            <mxPoint x="1260" y="204" as="targetPoint" />
          </mxGeometry>
        </mxCell>
        <mxCell id="y-TOsAkke1c8q-5eCv3_-385" value="EMP_ID" style="ellipse;whiteSpace=wrap;html=1;align=center;fillColor=#e1d5e7;strokeColor=#9673a6;" vertex="1" parent="y-TOsAkke1c8q-5eCv3_-375">
          <mxGeometry x="1010" y="220" width="100" height="40" as="geometry" />
        </mxCell>
        <mxCell id="y-TOsAkke1c8q-5eCv3_-386" value="" style="endArrow=none;html=1;rounded=0;" edge="1" parent="y-TOsAkke1c8q-5eCv3_-375" source="y-TOsAkke1c8q-5eCv3_-385" target="y-TOsAkke1c8q-5eCv3_-376">
          <mxGeometry relative="1" as="geometry">
            <mxPoint x="1394.71" y="215" as="sourcePoint" />
            <mxPoint x="1160" y="225" as="targetPoint" />
          </mxGeometry>
        </mxCell>
        <mxCell id="y-TOsAkke1c8q-5eCv3_-387" value="&lt;b&gt;LV_ID&lt;/b&gt;" style="ellipse;whiteSpace=wrap;html=1;align=center;fontStyle=4;fillColor=#e51400;fontColor=#ffffff;strokeColor=#B20000;" vertex="1" parent="y-TOsAkke1c8q-5eCv3_-375">
          <mxGeometry x="1110" y="140" width="100" height="40" as="geometry" />
        </mxCell>
        <mxCell id="y-TOsAkke1c8q-5eCv3_-388" value="" style="endArrow=none;html=1;rounded=0;" edge="1" parent="y-TOsAkke1c8q-5eCv3_-375" source="y-TOsAkke1c8q-5eCv3_-387" target="y-TOsAkke1c8q-5eCv3_-376">
          <mxGeometry relative="1" as="geometry">
            <mxPoint x="1260" y="337" as="sourcePoint" />
            <mxPoint x="1160" y="201" as="targetPoint" />
          </mxGeometry>
        </mxCell>
        <mxCell id="y-TOsAkke1c8q-5eCv3_-389" value="LV_EDT" style="ellipse;whiteSpace=wrap;html=1;align=center;" vertex="1" parent="y-TOsAkke1c8q-5eCv3_-375">
          <mxGeometry x="1280" y="380" width="100" height="40" as="geometry" />
        </mxCell>
        <mxCell id="y-TOsAkke1c8q-5eCv3_-390" value="TOT_LV" style="ellipse;whiteSpace=wrap;html=1;align=center;dashed=1;" vertex="1" parent="y-TOsAkke1c8q-5eCv3_-375">
          <mxGeometry x="1380" y="310" width="100" height="40" as="geometry" />
        </mxCell>
        <mxCell id="y-TOsAkke1c8q-5eCv3_-439" value="LOAN" parent="0" visible="0" />
        <mxCell id="y-TOsAkke1c8q-5eCv3_-440" value="LOAN" style="whiteSpace=wrap;html=1;align=center;fillColor=#e3c800;fontColor=#000000;strokeColor=#B09500;" vertex="1" parent="y-TOsAkke1c8q-5eCv3_-439">
          <mxGeometry x="1980" y="250" width="100" height="40" as="geometry" />
        </mxCell>
        <mxCell id="y-TOsAkke1c8q-5eCv3_-441" value="LN_TYPE" style="ellipse;whiteSpace=wrap;html=1;align=center;" vertex="1" parent="y-TOsAkke1c8q-5eCv3_-439">
          <mxGeometry x="1810" y="320" width="100" height="40" as="geometry" />
        </mxCell>
        <mxCell id="y-TOsAkke1c8q-5eCv3_-442" value="" style="endArrow=none;html=1;rounded=0;" edge="1" parent="y-TOsAkke1c8q-5eCv3_-439" source="y-TOsAkke1c8q-5eCv3_-441" target="y-TOsAkke1c8q-5eCv3_-440">
          <mxGeometry relative="1" as="geometry">
            <mxPoint x="1893" y="320" as="sourcePoint" />
            <mxPoint x="2015" y="250" as="targetPoint" />
          </mxGeometry>
        </mxCell>
        <mxCell id="y-TOsAkke1c8q-5eCv3_-443" value="LN_AMT" style="ellipse;whiteSpace=wrap;html=1;align=center;" vertex="1" parent="y-TOsAkke1c8q-5eCv3_-439">
          <mxGeometry x="1850" y="420" width="100" height="40" as="geometry" />
        </mxCell>
        <mxCell id="y-TOsAkke1c8q-5eCv3_-444" value="" style="endArrow=none;html=1;rounded=0;" edge="1" parent="y-TOsAkke1c8q-5eCv3_-439" source="y-TOsAkke1c8q-5eCv3_-443" target="y-TOsAkke1c8q-5eCv3_-440">
          <mxGeometry relative="1" as="geometry">
            <mxPoint x="1793" y="335" as="sourcePoint" />
            <mxPoint x="2036" y="250" as="targetPoint" />
          </mxGeometry>
        </mxCell>
        <mxCell id="y-TOsAkke1c8q-5eCv3_-445" value="" style="endArrow=none;html=1;rounded=0;" edge="1" parent="y-TOsAkke1c8q-5eCv3_-439" source="y-TOsAkke1c8q-5eCv3_-450" target="y-TOsAkke1c8q-5eCv3_-440">
          <mxGeometry relative="1" as="geometry">
            <mxPoint x="1936.5794608975862" y="497.0468552359198" as="sourcePoint" />
            <mxPoint x="2100" y="237" as="targetPoint" />
          </mxGeometry>
        </mxCell>
        <mxCell id="y-TOsAkke1c8q-5eCv3_-446" value="EMI" style="ellipse;whiteSpace=wrap;html=1;align=center;" vertex="1" parent="y-TOsAkke1c8q-5eCv3_-439">
          <mxGeometry x="2000" y="400" width="100" height="40" as="geometry" />
        </mxCell>
        <mxCell id="y-TOsAkke1c8q-5eCv3_-447" value="" style="endArrow=none;html=1;rounded=0;" edge="1" parent="y-TOsAkke1c8q-5eCv3_-439" source="y-TOsAkke1c8q-5eCv3_-446" target="y-TOsAkke1c8q-5eCv3_-440">
          <mxGeometry relative="1" as="geometry">
            <mxPoint x="2094.71" y="275" as="sourcePoint" />
            <mxPoint x="2050" y="250" as="targetPoint" />
          </mxGeometry>
        </mxCell>
        <mxCell id="y-TOsAkke1c8q-5eCv3_-448" value="EMP_ID" style="ellipse;whiteSpace=wrap;html=1;align=center;fillColor=#e1d5e7;strokeColor=#9673a6;" vertex="1" parent="y-TOsAkke1c8q-5eCv3_-439">
          <mxGeometry x="1820" y="200" width="100" height="40" as="geometry" />
        </mxCell>
        <mxCell id="y-TOsAkke1c8q-5eCv3_-449" value="" style="endArrow=none;html=1;rounded=0;" edge="1" parent="y-TOsAkke1c8q-5eCv3_-439" source="y-TOsAkke1c8q-5eCv3_-448" target="y-TOsAkke1c8q-5eCv3_-440">
          <mxGeometry relative="1" as="geometry">
            <mxPoint x="2114.71" y="295" as="sourcePoint" />
            <mxPoint x="2000" y="227" as="targetPoint" />
          </mxGeometry>
        </mxCell>
        <mxCell id="y-TOsAkke1c8q-5eCv3_-450" value="LN_RPY_SDT" style="ellipse;whiteSpace=wrap;html=1;align=center;" vertex="1" parent="y-TOsAkke1c8q-5eCv3_-439">
          <mxGeometry x="2150" y="230" width="100" height="40" as="geometry" />
        </mxCell>
        <mxCell id="y-TOsAkke1c8q-5eCv3_-451" value="&lt;b&gt;LN_ID&lt;/b&gt;" style="ellipse;whiteSpace=wrap;html=1;align=center;fontStyle=4;fillColor=#e3c800;fontColor=#000000;strokeColor=#B09500;" vertex="1" parent="y-TOsAkke1c8q-5eCv3_-439">
          <mxGeometry x="1850" y="130" width="100" height="40" as="geometry" />
        </mxCell>
        <mxCell id="y-TOsAkke1c8q-5eCv3_-452" value="" style="endArrow=none;html=1;rounded=0;" edge="1" parent="y-TOsAkke1c8q-5eCv3_-439" source="y-TOsAkke1c8q-5eCv3_-451" target="y-TOsAkke1c8q-5eCv3_-440">
          <mxGeometry relative="1" as="geometry">
            <mxPoint x="1950" y="391.5" as="sourcePoint" />
            <mxPoint x="2013" y="210" as="targetPoint" />
          </mxGeometry>
        </mxCell>
        <mxCell id="y-TOsAkke1c8q-5eCv3_-453" value="" style="endArrow=none;html=1;rounded=0;" edge="1" parent="y-TOsAkke1c8q-5eCv3_-439" source="y-TOsAkke1c8q-5eCv3_-454" target="y-TOsAkke1c8q-5eCv3_-440">
          <mxGeometry relative="1" as="geometry">
            <mxPoint x="1773.5794608975862" y="527.0468552359198" as="sourcePoint" />
            <mxPoint x="2067" y="250" as="targetPoint" />
          </mxGeometry>
        </mxCell>
        <mxCell id="y-TOsAkke1c8q-5eCv3_-454" value="DUES" style="ellipse;whiteSpace=wrap;html=1;align=center;" vertex="1" parent="y-TOsAkke1c8q-5eCv3_-439">
          <mxGeometry x="2130" y="360" width="100" height="40" as="geometry" />
        </mxCell>
        <mxCell id="y-TOsAkke1c8q-5eCv3_-455" value="" style="endArrow=none;html=1;rounded=0;" edge="1" parent="y-TOsAkke1c8q-5eCv3_-439" source="y-TOsAkke1c8q-5eCv3_-456" target="y-TOsAkke1c8q-5eCv3_-440">
          <mxGeometry relative="1" as="geometry">
            <mxPoint x="2045.5794608975862" y="477.0468552359198" as="sourcePoint" />
            <mxPoint x="2100" y="215" as="targetPoint" />
          </mxGeometry>
        </mxCell>
        <mxCell id="y-TOsAkke1c8q-5eCv3_-456" value="LN_STATUS" style="ellipse;whiteSpace=wrap;html=1;align=center;" vertex="1" parent="y-TOsAkke1c8q-5eCv3_-439">
          <mxGeometry x="2170" y="160" width="100" height="40" as="geometry" />
        </mxCell>
        <mxCell id="y-TOsAkke1c8q-5eCv3_-476" value="BONUS" parent="0" visible="0" />
        <mxCell id="y-TOsAkke1c8q-5eCv3_-477" value="BONUS" style="whiteSpace=wrap;html=1;align=center;fillColor=#a0522d;fontColor=#ffffff;strokeColor=#6D1F00;" vertex="1" parent="y-TOsAkke1c8q-5eCv3_-476">
          <mxGeometry x="2840" y="160" width="100" height="40" as="geometry" />
        </mxCell>
        <mxCell id="y-TOsAkke1c8q-5eCv3_-478" value="BNS_TYPE" style="ellipse;whiteSpace=wrap;html=1;align=center;" vertex="1" parent="y-TOsAkke1c8q-5eCv3_-476">
          <mxGeometry x="2710" y="270" width="100" height="40" as="geometry" />
        </mxCell>
        <mxCell id="y-TOsAkke1c8q-5eCv3_-479" value="" style="endArrow=none;html=1;rounded=0;" edge="1" parent="y-TOsAkke1c8q-5eCv3_-476" source="y-TOsAkke1c8q-5eCv3_-478" target="y-TOsAkke1c8q-5eCv3_-477">
          <mxGeometry relative="1" as="geometry">
            <mxPoint x="2633" y="310" as="sourcePoint" />
            <mxPoint x="2876" y="225" as="targetPoint" />
          </mxGeometry>
        </mxCell>
        <mxCell id="y-TOsAkke1c8q-5eCv3_-480" value="" style="endArrow=none;html=1;rounded=0;" edge="1" parent="y-TOsAkke1c8q-5eCv3_-476" source="y-TOsAkke1c8q-5eCv3_-485" target="y-TOsAkke1c8q-5eCv3_-477">
          <mxGeometry relative="1" as="geometry">
            <mxPoint x="2776.579460897586" y="472.0468552359198" as="sourcePoint" />
            <mxPoint x="2940" y="212" as="targetPoint" />
          </mxGeometry>
        </mxCell>
        <mxCell id="y-TOsAkke1c8q-5eCv3_-481" value="BNS_AMT" style="ellipse;whiteSpace=wrap;html=1;align=center;" vertex="1" parent="y-TOsAkke1c8q-5eCv3_-476">
          <mxGeometry x="2830" y="310" width="100" height="40" as="geometry" />
        </mxCell>
        <mxCell id="y-TOsAkke1c8q-5eCv3_-482" value="" style="endArrow=none;html=1;rounded=0;" edge="1" parent="y-TOsAkke1c8q-5eCv3_-476" source="y-TOsAkke1c8q-5eCv3_-481" target="y-TOsAkke1c8q-5eCv3_-477">
          <mxGeometry relative="1" as="geometry">
            <mxPoint x="2934.71" y="250" as="sourcePoint" />
            <mxPoint x="2890" y="225" as="targetPoint" />
          </mxGeometry>
        </mxCell>
        <mxCell id="y-TOsAkke1c8q-5eCv3_-483" value="EMP_ID" style="ellipse;whiteSpace=wrap;html=1;align=center;fillColor=#e1d5e7;strokeColor=#9673a6;" vertex="1" parent="y-TOsAkke1c8q-5eCv3_-476">
          <mxGeometry x="2660" y="175" width="100" height="40" as="geometry" />
        </mxCell>
        <mxCell id="y-TOsAkke1c8q-5eCv3_-484" value="" style="endArrow=none;html=1;rounded=0;" edge="1" parent="y-TOsAkke1c8q-5eCv3_-476" source="y-TOsAkke1c8q-5eCv3_-483" target="y-TOsAkke1c8q-5eCv3_-477">
          <mxGeometry relative="1" as="geometry">
            <mxPoint x="2954.71" y="270" as="sourcePoint" />
            <mxPoint x="2840" y="202" as="targetPoint" />
          </mxGeometry>
        </mxCell>
        <mxCell id="y-TOsAkke1c8q-5eCv3_-485" value="REMARKS" style="ellipse;whiteSpace=wrap;html=1;align=center;" vertex="1" parent="y-TOsAkke1c8q-5eCv3_-476">
          <mxGeometry x="2960" y="100" width="100" height="40" as="geometry" />
        </mxCell>
        <mxCell id="y-TOsAkke1c8q-5eCv3_-486" value="&lt;b&gt;BNS_ID&lt;/b&gt;" style="ellipse;whiteSpace=wrap;html=1;align=center;fontStyle=4;fillColor=#a0522d;fontColor=#ffffff;strokeColor=#6D1F00;" vertex="1" parent="y-TOsAkke1c8q-5eCv3_-476">
          <mxGeometry x="2690" y="105" width="100" height="40" as="geometry" />
        </mxCell>
        <mxCell id="y-TOsAkke1c8q-5eCv3_-487" value="" style="endArrow=none;html=1;rounded=0;" edge="1" parent="y-TOsAkke1c8q-5eCv3_-476" source="y-TOsAkke1c8q-5eCv3_-486" target="y-TOsAkke1c8q-5eCv3_-477">
          <mxGeometry relative="1" as="geometry">
            <mxPoint x="2790" y="366.5" as="sourcePoint" />
            <mxPoint x="2853" y="185" as="targetPoint" />
          </mxGeometry>
        </mxCell>
        <mxCell id="y-TOsAkke1c8q-5eCv3_-488" value="" style="endArrow=none;html=1;rounded=0;" edge="1" parent="y-TOsAkke1c8q-5eCv3_-476" source="y-TOsAkke1c8q-5eCv3_-489" target="y-TOsAkke1c8q-5eCv3_-477">
          <mxGeometry relative="1" as="geometry">
            <mxPoint x="2613.579460897586" y="502.0468552359198" as="sourcePoint" />
            <mxPoint x="2907" y="225" as="targetPoint" />
          </mxGeometry>
        </mxCell>
        <mxCell id="y-TOsAkke1c8q-5eCv3_-489" value="ISSUE_DT" style="ellipse;whiteSpace=wrap;html=1;align=center;" vertex="1" parent="y-TOsAkke1c8q-5eCv3_-476">
          <mxGeometry x="2910" y="245" width="100" height="40" as="geometry" />
        </mxCell>
        <mxCell id="y-TOsAkke1c8q-5eCv3_-508" value="SALARY_SLIP" parent="0" visible="0" />
        <mxCell id="y-TOsAkke1c8q-5eCv3_-509" value="" style="shape=image;verticalLabelPosition=bottom;labelBackgroundColor=default;verticalAlign=top;aspect=fixed;imageAspect=0;image=data:image/png,iVBORw0KGgoAAAANSUhEUgAAAfgAAAGWCAYAAACU1pFVAAAAAXNSR0IArs4c6QAAAARnQU1BAACxjwv8YQUAAAAJcEhZcwAADsMAAA7DAcdvqGQAANg+SURBVHhe7J0HYFRF/se/6b2ThITepYuAoKgnAqdy6gmKvWM/C2I/rOd5Kgp3/hUb2MVeUey9oaKCVOmdEAKkkd7+v+/MDnnZbEKAzWaTzEeHt/sy+968ad/5TXsBVQI8UF5ero7BwcHqWBcN9Ue2bduGtm3bur55xtv3teHzjA2fZ2z46saGrzY2fJ6x4fOMr8MXUFZW5jOB3759O1JSUlzfPOPrCHBiw1cbGz7P2PB5xoavbmz4amPD5xlv+Qt0HS0Wi8VisbQgbBe9Axu+2tjwecaGzzM2fHVjw1cbGz7PeMufteAtFovFYmmBWIG3WCwWi6UFYgXeYrFYLJYWiBV4i8VisVhaIFbgLRaLxWJpgViBt1gsFoulBWIF3mKxWCyWFojdyc6BDV9tbPg8Y8PnGRu+urHhq40Nn2e85c9a8BaLxWKxtEDsTnYObPhqY8PnGRs+z9jw1Y0NX21s+DzjLX/WgrdYLBaLpQViBd5isVgslhaIFXiLxWKxWFogVuAtFovFYmmBWIG3WCwWi6UFYgXeYrFYLJYWiBV4i8VisVhaIHYnOwc2fLWx4fOMDZ9nbPjqxoavNjZ8nvGWP2vBWywWi8XSArE72Tmw4auNDZ9nbPg8Y8NXNzZ8tbHh84y3/FkL3mKxWCyWFogVeIvFYrFYWiBW4C0Wi8ViaYFYgbdYLBaLpQViBd5isVgslhaIFXiLxWKxWFogVuAtFovFYmmBWIG3WFog3N7C3VVWVtZwXENbUlKC4uJideR3dz91OU/Xt1gs/kVARkaGx5LJQkwCA6vbAAEBATUKMr9XVFSoz8afux8nBQUFiIqKcn3zjKf7esKGzzM2fK0nfM7rSDnGli1b1GYbmZmZ2LVrlxxzsHv3TuTm5iIrazeKinYpIS8rK0NOTo4KG69Bx3DRBQUFIT4+HiEhIQgNDUVkZBKSk6MRFxeHsLBYtG+fjISEdmpLzvT0tkhLS0Xbtsny20r1e2f4+N3g/Exs+nrGhs+Gj3grfHYnOwc2fLWx4fOMr8PHYkq3cOFCLFmyBGvWrMGKFSuwdOlarFq1CLGxFN/O6Ny5vQhvOlLT0tBWRLhNmzZISkpSok0/0dHRiIiIQHh4uBJzd1hh0KIvKiqSxsFu5OXlqcbAzp07sWPHDrXf9tatW1Vjgm7Dhg3ipwrd+3dG365d0b17d3EDMHBgf/Tv30tVOAEBugFBzJHxws82fWtiw1c3Nny12Zs/K/AObPhqY8PnmcYOH4vlunXr8NNPP+HXX39Vjp87duyIQYMGoW/fvujTpw969eqFnj17KtFuKtgYWLlypavBsVS5BQuWYdOm1Rg2bBgGDx6MQw45AsOHD0WXLu2VsFdUlO0ReHfxd9JS07cubPjqxoavNnvzZwXegQ1fbWz4PNMY4fvzzz+xePFifP311/jiiy+QnZ2Nww8/XDkK5dChQ5tUyPcVCv/8+fNVw+THH39ULiEhASNHjsSIMWMwctiRSE1NUsJurHx3sW9J6WvDVxsbPs94y1/9AwEWi6VRYTf3U089hbFjx6J379547rnn0KNHD7zxxhtqLP2dd97BjTfeiKOOOqpZiTtheBnum266Ce+++67q3n/zzTdVj8PsmTPRoUMqTjxxHJ54YiY2ZGyXyqpKLHtOBtRjkLQ96rA/LBZLA7ACb7E0Aa+88gpOPvlkdOrUSVnsF110kZr8NnfuXEyaNAn9+/d3+WxZ8LkmT56Mjz/+WD3vxRefhx/mfYuenTtg/PgJeOutN1BaUeEQ++pZ+xaLZd+wAm+x+IhNmzbhzjvvVOPozzzzDE455RQlci+//DJOPfXUBnUDtiT4vHzuV2bPVvFw+unjVG9Gz25dJJ7ulvjaLOe5nK9a7K3QWywNxwq8xdLIrF27Ftdcc40Sdi5f++ijj/DZZ5/h3HPP3TPW3NphPDA+OPeA1n1e3k507doJN998A9at21jLqrdCb7HsHSvwFksjwWVmtNg50z0yMlItNXvkkUfUDHhL3TB+ZsyYoeIrMjIa/fr1xB1Tbkdubp4IfLkVeoulgQSUlZV5LCGNMcuQk2y4QUZ9+HqWoRMbvtrY8Hlmb/5eeOEF/Otf/8Lo0aNxzz33IC0tzfUXy77CTXxuu+021etxxx33YcKEvyMgJAjBYp8EBXFDHT0DPysry+Y/N2z4PNNawmcteIvFi3CnuCuvvBLTp0/H008/jVmzZllxP0AYf4zLZ599FtOmTcVVk67D7pwCVbmVlXF73eqNgCwWSzV2HbwDG77a2PB5xpO/5cuXY+LEiRgwYACeeOIJ11mLt7nkkkuxYMESPCpx3LdXd4SGcrOcILHgt6ld/Oqb19CS858nbPg801rCZy14i8ULzJ8/H8cddxxOO+00K+6NzMyZT+HMM0/FqSePl3hfiMLCUjU2z225jTVvsViswFssBwy3aOVyrzvuuEOtYbc0PtdfPxl33X0rzjvvPCxfvhoFRcUi8BU1uuwtltaOFXiL5QC5+OKL1TI4ds9bfMfFEt/XXHMZbrxxEnbnFaOwpBTl5VbkLRaDFXiL5QDgMrj27duLRXm968y+88ADD6hxY6fjm99+++03lw+oJXfcw/2CCy5Q3zmzvEOHDuq3Tuo67w6vw/u8//77rjMafud5cx+D8e8pbPzMc+bvnvx4ekY69/vsKzfddCPS01Px0EPTUVRYgiIReVryFHoKvBV5S2vGCrzFsp9wH3kugZs6darrzP5z9NFHIz8/f48ozZ49GzfccIMSdvLVV1+pI1/PShHnzHLu7/7oo4/WENJbb70Vo0aNws033+w6UzecDPjWW2+5vmn4necNpmFBTNgYFp5zNg74vni+8c4Zfvpxhs39Gem49/6BMn36Q3jssQexdfN2FO4uQnFxmVy7Qq2V5z0sltaKFXiLZT+hiF122WXKYvY2nA3OXe8oiITCyz3cuXc919gTvob1qquu2tMQoJguWLAA9913n/r73uCLYEyDgfDI7zxvMA0LNiQMvC+fnUsBTQPEnRNPPBHjx49XG/s0Noz/iy6aiDkffYxCseKLi0tQUlKGctWICLAib2m1WIG3WPaTTz/9VIlYY/D5558jMTERMTExe4R3yJAhuPrqqzFv3rw9wspJZqtXr8acOXOU0P/73/9u8Lr7+Ph4daTlbY5sQHDIwcCGBVcHREdHu85o2ADhfTnBsC641z7DXVcjwJucfvppWPTb9ygoKkGhCHxRqVjx5bTi7W53ltZLINfR+cpxa0lP5/3F2fAdmGtN4ePLUZYtW6be0e4N+EY5irkZm6bFzJfQUFiN8FK4ue0tMcLKc4899hjOPvts9d10pzcEXpvibbrpeaQoNwQKPBsg+4L7M9K5zwHYX5gOa9b8iaKiYhQUFKFotwh9YTFKystUWtF5SkdfOlt+D8zZ8O27sxa8xbKfXHrppXus4APFfXyab54zljiF9/nnn1eCSIF87733lIVvoKjz9+zCd7e09wa30s3JycGqVatU9z6F21uwAeTE0xg8u/K9AdPhtNPORmlpOUpKxFHYKysQIJUuu+ktltZIIHfA8ZULDAz0eN5fnA3fgbnWFr6ZM2cqcWxMOK7ON6w5J7DxM617M3Z+IJgeAY7r0yI33w206Pl2N/dudobBk38n3NmPPQ/72ujYH7Kzs/H667NRWQVUVOoNb4AASfMgBAUFeUw/Xztbfg/M2fDtu7MWvMWyH1Boe/furXawa0xoqXfv3r2GkJoJeBTZA4XiS+uXY/eextpNlz8n8xnY6OCQQH09Bux6f/vtt9WcAV/AuOjata8Iuyh8lVjt5aLw6o1zbBTZNfGW1okVeItlPxkzZowSscaCVjOtZ3fhZdc9l8LVN4t9X6CVzq5/dte7w/uamfRm3Jyiz3PO7vXc3Fw1CdD4YQOAfjjj3uBpDJ7X8sYzvPrq6+g7cAiqAnQvh0i6FXVLq8e+bMaBDV9tbPg8U1paik2bMtGjRyc1U7wxlspZGgbnK3AoYMYTb4gV3wUx0eGIi4lCYmKMNCgiERoaIunJ7vrAFpP/bPg8Y8NXE2vBWyz7Aa3P9PQU3HLLbbjxxhtdZ/0HsyOdJ3egu8f5G5MmTZZnuhYJ8XEi4gGSOHxPvBzF8bs8snpui6W1YQXeYtlPKBp33DEFGzduw4MPPuQ66x+w+5ydc56cN3aP8xemPvggNmzIxCkTzkCVmuQUhNCQIASHBiM4KEgE3oq7pfViBd5i2U8CON4bGIQZM2bg4YefwKxZs1x/sfgCrmKYPm0GLr/qRgQGibiLmoeJsIeFiQsJQYgIPNOH6WSxtEaswFss+4Hp7hb5QM+e3fDc7Bdw1133Y9q06S4flsbkoYem4fbb78Xtdz2IdmmpCBCBp+XO8fbw8FCEhAcjRL4zfUxaWSytjYCysjKfTbLbvn07UlJSXN884+tJCE5s+Gpjw+cZ+mN3d2BgMEorKlBaVIply1bg6quvwpAhA8San+nyafE2F110MRYsWIQrrpqCdIp7sFjukl6lpSXo2L4tYmMjERUVgdCIUIS6ddO3pPxHbPhqYsNXE2vBWyz7ibYMqxAsR3YL05J/9dU3kJ9fiYMO6q82qLF4D8Znr179sHNnCe64a7oS98AQLe7h4WGIighBZGSYsuCZHkwXpo+13i2tFbtMzoENX21s+Dxj/HGXNBahsjK9D3VhcanaC/2dt+Zg2rQHMGrUkbj//v80+AUwltpwx75bbrkVn376DSZOnITDRgxXY+7cpS4sLERcKGIiQ1FcWohOnTogUgSe6Rci4u/ePe/tfNVQf8SW39rY8HnGW/6sBW+xHABGQDh7m2IfIWLD7uFx407CnDkfISg8Xu08d/0NN4jludP1K0tDYHzxDXmMv8rKGDz2xPMYceRh3F8bIcFirUeEKos9LjoC0dGRiJDPjH+9NS0n19mxd0vrxgq8xXKAUEQ4zktRoaMFGR0bjpSUBEyedC3ef/9rZG7LR5s2bXDZZVdg6dKlrl9aPMH4ueSSy1R8rV+fg1nPvo+zzjkXYZGRYrkHIzw0GJFRIYiKDlcb2XDMnfEdKeLO+A8J4b7g1ePuFktrxQq8xeIFKCbcXIXiwu6yqIhwseTDES8C1OOgbrjln7dg7sc/oiooFqNHn4AjjxyJF198UXXvW/Re8YyPo48ehVGj/oaKiig8/9JHuOCii5HSNlkLu8RtVKRY7RKvsRKvcbFRKn4Zz4xvWu5W3C2WaqzAWyxeotqSp9iLlUkxiqSVGYHY6Ch07doB/7jiMrwz52OceOJZePbZN1RjYMKE0/Hmm2/uGU9rLfB5+dynnnqaiodZz7+Go445Bc889zomnH4GklOSlWiHh4i1roQ9QlnscXFRiIuJVp+jxYpnPDO+xasVd4vFgRV4i8WLaJHnjmpa5LkuO1qsS92VTGESJwJ17PGjcN/UBzFnznfo0eNQPPLILLE+QzDqr39VL5FZvHix64otCz4Xn++YMWPU8z788DPo2HUwXpj9MW658Q4MP+xQtewtWP4WHibCHhWmLPZqYY9S8RjNcXdpPPEajGez17wVd4ulGjuL3oENX21s+DyzN38sVnRlZRWo4AvKgwJRKZ9LSsrUb4uLS1FUWoYycSUl5SiT8xs2b8L6NZswf8GPWLxgPnbtysGwYYNw1FEjcNhhh2Ho0KGIiIhw3cH/KSoqUq/TnTfvJ3zzzXf4+ecFSEpKwIABQ9FnwGD079tbva2OW8xSl4MDgxAs8RQkjrvQhYjAU7hDpJEUFR6u1rVzSRxnzgdyO1q15zx/q5fCZWZm2vznhg2fZ1pL+KzAO7Dhq40Nn2ca6q+srEwJPTfEUUKPSrWkrlSEvbSiHOUlFSguLRWBL0fG9u0ieLHiTwS/tAJbM7Zj1Z8rsWzZH/hz7RIsXrkUXZOT0adPHxHJg9GvXx/1nviePXs2qfBTyFeuXIkVK1ZgyZKlWLjwDyxfvhTrduxAvx4D0aP7QTioVz9079YNKclJStCrqioRWBUgljr3jHeJeihXIrDXQ0Rc4jWEa9nZGyLHyLAw1RvCpW/seKR/+ZMSdmO12/xXGxs+z7SW8FmBd8FocA+fe9RUVlYqayuQFbbqGuSYn+dRDvf7euo65LmWEn/Ehq82xp9ZLy9ZSFwVykXgIILPBkAZj5Kvtm7NQGx8vHyuUOJfViquvBJVlRUor6hAhXxes24jNq/fgI1b18lxPbZs2SzPtVrlww4duqB9+7Zo17492qW3k2dNVTPRk5KSEC/XjY2NVRYzGwPhYhEzTO5UyH2Ki4uVaPM97Xl5ecjJyVFL1naIYG/blqnuuWXLFmzevA0bN65Vz5Wa2g3pcs92nbpKODqjc6eOEoZ01XMhEsyaRmRZhFnCycmIEhPqZTDBIaEICaa4i7CLuIeEBSFU4lSJuQi7VFBq4lwwZ8iLxc63w7kLu8Hmv9owfxGnP0/1GtPdhI/5wlf1mr/HX3MPX0BGRoZHgWeiE2dCM+GcmYPfmTGI8efux0lBQQGioqJc3zzj6b6e2J/w8W/Gz86d2diVlYOc7XnIzs7Frsxc7MzKlkqtEAV5Ra5KrkR1oZZJJFaVSyUrt6yqqthznYAAqaDk9gFcmiMRzK7EiAjupBWOqFhOCIpCQpt4JKTEISE+BoltExGfFIfExHj5rVgwEiZn+PQ1dfh4dKep44+4+3Fiw7f38BH+trKSfnmkf26SUyliuhshknfYlV8u+Y1b4LKLX30Xv/RTViYFWu7B+7BDoEquVSHXyN2Vi6y8XXLMwa5s5ukdyM3LRunuPBQW5qlr55YWoDy/UMIkn3PlupV5Kjy8FsNKAgNjpSHAOQQxCOa4dyjHvKMRGRkj+Tpa8m4bxMUlISYhBkmJCfK3eMQlxKnfyhOLq5Rria5zF3gR4yC+rlWeXXRex4GIdLAUGn6ndR6krHIRdREVCjnH30PkPP3wfEUFez/0fIbAQH6ujkd3Wmv+M/fjvbdu3aoaXxQbbp3KhllmZo7UazslzSWPZO2W/LATpew1EvFn443PwGuYfEBHkWejkHMcQkM5WTQJycnRqpEYFZWItLREJCS0U1uzpqe3le+pIm7J8lumf0CN8PE7MUcDv9v6xTPeCl+LteD5WHRrlm/AutWbsG7NJqxftQlbNzHj70SwVEBRUZFiJYRK5PCVFDQ29BInvmoySMQ7SISbEcfuQIkqFXnu6OiTylZqWyZKhVTMFdIIKBfri2GskHNyVp0vl0JVWFgEaS5IYYlHeoe26Ni1Pbp274DuB3VCpx4d1T2c22s672nHGGvTXMNn8qd2rBCrsDUzA22Tk+U3WszLxXIvk3xDgafQ83txSal8F6tesgULNwWwXJx8Q6UcmQ/VN/5O8l6ACCqzqNxF3UPdW/KXzre8RiVOPG4Y5n46X32nxVxl8p4qFfyg/dKajxdBJ+o966pMuD5LOeHnSgkjrXRa5JT5YLHWabFTMDjGzrFzWuzGMg/hi2G4fwDH33kMlgpKPrNE8roVFWWqDFBoPJU/J60h/5k8s3DhQixZsgRr1qxRQyNLl67FqlWLlAC3b98ZnTu3VxsEpaaloa2IsLd7cth4MI0Jug0bNoifKnTv3xl9u3ZF9+7dxQ3AwIH90b9/L5V2nuo1Pi8/+yr+DP6avgZv+WsxAs/H2LZlO5YvXIXf5y/DqmVrsGndFkSKiEdERikLOziIM3PDES5WNiu+poKWW3FRiVTWxVKBS0tanqWosEBcEdp1SkfPPt0xcMhB6HNwT6Sms1WsC4cRePdC4sTb6eYv6VsXzT18pvjxmJGRidTUVCXEYlMhQMSSAk6hpuBXMN+IwLM3SWRVrHrdbV9OUeffKfhynUpx5bT8aQVIHlEHNjTFuuLIAO/F2/JYIfc45i+D8OU3f6jeAIMWbBFZVxbj55zcHCQmJNAIR2CVNBzEj/yvBJ0NYZ7nNYLEL60+NRteGsdBPLLBLJ+5dzy75iWQSvjpT3XZO0Td5HceGX88Ntf0dbI/4WMarVu3Dj/99BN+/fVX5fi5Y8eOGDRoEPr27avmZPjbXAxuVkS3YMEybNq0GsOGDcPgwYNxyCFHYPjwoejSpb1KV9OA4/PySMzRHVu/1GZv/pq1wOfvKsDiBcvx41e/YdGCP5GfsxvxiXFiDYQoYY+KjJTM0nRCvq9Q+AsKC1FYUCiVdilyduUiOj4a/Q45CIcdPVha5Mno1ruLKgCmAnQvFN5Ot6ZMX9Kawsc91xk+LcB0uruNgl8pyRso+aOEFrx8Z3pTjyn6HJ+XD1JZioBLaabQl1HsxUOg+GMXvvyj/DOPaQted6PS7+BBPfHr76t0b5P4VV3iFG0RXv6eUMB3Ze9Em4QkubcWdvazswuef1N7w7saDfw9x9D5CleKepDLvx7bpTUfiFIJD/0rf3KPA83PpKXkv127duGbb77B119/rV6wk52djcMPP1w5CmVzXU3BhsmPP/6oXII0FEeOHIkRY8Zg5LAjpWHLfFV3PiC2fqnN3vw1O4HnOPm3n/yErz77CUsX/on0tDSEhXObSlrqzSfTNxRa9QXFhSgWC3/b9u3oM7AXjhp1KI746zAkJSWqCtNZMBh/PHor3XydvobWHj5TLJ1HirKela8Ft4riKoKtGgDi6IeiTSGnP37mvu1KyCnc6u/an1zRdb1ydO2ahtVrt6rhADYEKNzsNqcwU4xN/mLXbHJyispzlXJuj7jL1eiHn9lFz7+zS51H7VeuoRoOvJb221DLbX/jry68nW7eCh+7uefOnYt33nkHH3/8McaOHYsxIn6jRo1C//79Xb5aDtwP4bPPPsOnn36KTz75BMceeyJOOOFvGHvySWifovMY84Op14gdoqzN3vw1G4H/cu4P+PCtL7Fo4QqxZFMRGhymxpM8VQotFSYVx8GKy4qxLWM7+g7sgePHHY0jjxuxz2OW/pa+7tjw1cQUU16Pn3k9HinShMJN9LkqlInQyieEsiEgf6IzfrS4689crtemTTwys3LUvBH6YT7iPBQ1CY5WvBwJx11TU3X4dAVMUZbrUsDlA0WcPQI6/zmFu7qSNkc+Bz/7Kv4MDb2et/0RT+F75ZVX8Nprr+GDDz7AaaedhvHjx+Pkk09u0PVaCozDd999F29J4+YNiYvjjjsJ5557Ok4ad4pj2EYPUfKtjCYPecLf0tcdX4fPrwU+K3Mn3nphLj55/ztERkYhKjwCCQmJ6u8WiNhnY3fBbhQUFeIYEfnx5x6vhihYIbPrk/UyC4OnAuEP6VsfNnyecV7PWXTdi7G29KsFlH93L+k8R3/cJS4vrwAl8plj/hT1MGkgcha7SPmePJSZuW2PwDNLOfOVsweJ8L41/14zD/pD/NVHY4Zv06ZNmDVrFp599lk1dn7eeefhnHPOqRVHrRHmyZdeegnPPfecGs8/55wLcemlFythz8raro6+rNf2J33rw9fh001zPyNjcyam/vNxnPHXKzH/u6XokNYB7dPaWXF3Iz4+Ae3bdUDH9I5Y8MsynH/itfjvv2Ziy8YMtcSqvJwWle62dRcAS/PHVHJ0qqvczenZ69px2RlnqDsdN42hpU30WDknwol/14Q4LgNVM905MU786+sYV/P6nu7vDJ8FWL9+Pa655ho1QY7j7B999JHqpj733HNtHLlgPDA+OPeAQxV5eTvRtWsn3HDDddi4caut1/YRvxL44t3FmPGf53DB3ydj1fINOHjAwWiT1KZFjq17E8ZPSmKKiq91f27B5affLPH4DPJz86UgcLmeLRCtDae4GudZgHV+YDeoOldl/m5+py1z5++UP9c1nc7iGS4zu+2229R2w5GRkWouwyOPPKJmwFvqhvEzY8YMtTSPPbhHHHEo7phyO3Jz82y91kACysrKPMZMY3RhcAyPGyN44rO53+PZ/76C6LhYxMcmICQ4xPUXy75SVl6Gndk7UJCXj7MuOxWjThiBAO7dLe05bZlVj5X6Kn0N3s5XNnyeaag/bnjCzTny8wvUPvmcic88wv3eOevdWOfExl9t9ubvhRdewL/+9S+MHj0a99xzj+pituwfXGXChhJ7Pe644z5MmPD3Rq/Xmnv+a3ILvqSkBPfe9Aie+d+raNMmFcliiVpxPzAYf22T0ySzpWH2k2/ivikzsDunQGUGzpqWBq9q8dpWr8XSOLBeu/LKK9Wb855++mk15m7F/cBg/DEuOXdh2rSpuGrSdbZe2wtNOsluw9otuHvydHCLi8SEZNdZi7fZlpWJyqpyTP73FejevQP4Mg92bXG/EbUhST3dqweSvp7wdr6y4fNMQ/3Rgg8LC0NRUbGy4NntyTF2bcHzHevVFryNv9p48rd8+XJMnDgRAwYMwBNPPOE6a/E2l1xyKRYsWIJHJY779ureKPVac8x/TprMgl+xeA2uu/AuhAdFWHFvZNompyIiLBL3XP0QFv++AoWFpVIQ9BiWafVaLJYDZ/78+TjuuOPUkjcr7o3LzJlP4cwzT8WpJ4+XeF9o6zUPNInAb1qfgVuvuh8picmIiTUvqrA0JglxCUhq0wYPTXkMa1ZuQEFRiSoMzq4ti8Wy/3CL1lNPPRV33HEHJk2a5DpraUyuv34y7rr7VrXUcPny1bZec6NJBP6eG/6HlDapiItPcJ2x+ILEhEQkJbXBo/96GgX53CGvVFq7FbYwWCxe4OKLL1bL4Ng9b/EdF0t8X3PNZbjxxkm2XnPD5wL/xIMvqHdfx/nYcr/kxtPwwLM3KvefmZPx13FHuP6i4Xee9/S3yfdehH89fi0OObzhy1q69e6If06/Qjl+Ntc3YTDu1AuPc/3CNyQmJqq9y19+8l0UFhShqITdWlxbWv3KSIvFsm/ceeedaN++vViU17vOeI8LLrgAHTp0ULPIDb/99hsGDhyoztHx7xxzdjq+NY7++Hv3v9G5X9MT7teu6ze8B/eW55JAg/nt+++/7zrTeNx0041IS0vB9OkP23rNgU8FfufOHLw5+0PEx/p2wxqKa5ee7TH/28V4beaHKtGHHNlfCa+hU/d09XpYOn5uLFYv24CbL3xQOX4eelR/n4t8clIKvvn0O2xZvx2Fu/nue+56pt9cZgXeYtk3uI88l8BNnTrVdcb7bN68WS25q485c+bsETM6vuKVb3DjrnD8zte7shFi/HFHvfpm9lOgDz30UFx11VV7rsnPPOcUeTYi+LpYwmGKpuK//52Gxx9/CBvXZ9h6zYVPBf7rufPQUVp0nOHoS2Ljo5VwdxTh/v3Hpbjjiofxn8mPY83yjervFPrktCQUSKag42en+DcWX37wE3Kzd6Nn/y4+uZ+B8Z+WnobvPv8JhYUlUhBKUFIirV1ViPUbzCwWS8OYPXs2LrvsMmWtNhZ///vf8eijjyox9RVsEBCu4TdwrJvwtbWGzz//XE0spOMGPk0F43/ixEvwxrvv2XrNhU8FfsFPSxAWFu765ntS05P2dJk76XZQR0THRCBj43bl+JnnGhs2MPhe+PCIUMQlxLjO+oboyGgs+22FmpRSUFSKotISVJaVS2vX7gplsewLfCMaXxLTmHAXPFrPvhRQ7pPfvXt3DBkyZE83Oy1+Wv4nnnii+s4u+Xnz5qlGAMWflrynLnxfcfrpE/D7z1/bes1FINfR+cLxpRZbN2chKjLKdWvf8eazHyNz6071OS4hGpfedHqNbnHTJb9h9VblSGN20/sDTIecHbvU+ufCwkIU7S6Rz9LiLS9TaUXnKR3rc9wy0tN5f3E2fJ4d4bAVnV5mpD+7+7PxV9uxnCxbtky9o72xoYByj/a6xrRPOumkPWPldO5j4vtKdHQ0vvrqK9Wl77y28/6mS56NAYp/p06dalj3voaNkVWrlnm1Xmuo88fy4VMLfsDgPuD2l03B9CnPqDF4w4BDe6lJc6Z7fnd+Edb8uVE5fvZVN31TwXTo0rsLSkvLUVIijgWgsgIBkknNK0gtFsve4ex5vrq6saGAPvbYY2p3vPz8fNfZatzH4CnOFOkDhda6uSbFmzv0maECds+/9957iImJUeL//PPP46233lJ/awqYDmeeeZ6t11wEcgccX7lFvy8TC6HCdWvfQ0uek9tozQcHB6FNagIGDe+jrHpj2dOZ7/xbY8IGRHhEGIqLSpGbXbvANiZMh3V/rgNfEV5RyRPsvuKuZdx/PKhW2jXEccczT+f9xdnweXaE5YGOu9eZz+7+bPx5dtw+NTc3V8VjY0OrnPzvf/9Tx8aEljpnxzsx3fYcn2dXPOcFOBsWPL9gwQKfzhVwkpOTg1dffdGr9VpDnT+WD59Z8Ez8tu1SUVBY4DrjO7jMzX35G7sgd2Rmq4l3FfL5iznz9sxu52ee498aE9O4WLl43Z4Jf76C6RCbHI9KloSqShF8lgjuAMWCatfEWywNgeWkd+/eagc7X0CL/KGHHsKXX36pXjnbmLC7231IgL0CFO/09PQ9XfH0Z6Alz6W4tOybAoapa9e+tl5z4dMu+oGH9EJJWYnrm+9476XPVbf7qJMOU2vP26TE4/tPdQszPjFmT/e8wXTT829m7XtYeChOv2TsnvXrntbLN4TufTrtuQaXyHHYgD0LvqagoABdenRBVYBueUvWt6JusewHY8aM8Wm3NJe+TZkyxfWtGvcxePfx8n2FQwK//PKL6pI31zv77LOVyDMMfOZRo0bVWGrHBghn09Oyz8zMVOfcw3UgYdobr7zyKgYOHm7rNRc+e9kMJyAsXvwnrj//X+jft7/Pl8pZquELRhYvXYyJN1+MxORExESHIy4mSlreMdICj5S0CZH01C8ZaWj6Evsyktr4e/jsy2Y8sy/xt2lTJnr06KRmkDfmUjlL/XB2Pyf5PffCh0htm+KVes3f89/e/PlM4HmbzZsz8PYLH2PBD0uQmlr3BgveYuCwg3DW5Xo5h7/z8hPv44+f/3R9a1w2b92MtG7tcfQJRyIsPAxRURFIjItEnBSEuOhIhIRw/IbvVw5ocPoSKwC18ffwWYH3TEP96VnZlbjnnnuxdu1KvPrqq66/+D+cYc8JdF9//bXrTDXsajeWenPhlFMmIDa2HU6ZcIbX6jV/z3978+dTgd+yZRvatEnElWf8E8EIQUJCkuuvFl+xc+cOFJYW4oyrz+QMS0RFhEtLNwLx8VGIi4tGTFSYpCUrd92d1tD0JVYAauPv4bMC75mG+qPAq3FeVOGYY47FuHEn4MYbb9B/tPiMqQ8+iNdfex933H2/V+s1f89/e/Pn0zH4gIBKVAUG4fp7rsSOHTuRnZPt+ovFF+TkZmP79h047qwTECTpECwuLDRYKnNxISEICQpS6RMQ0HrHrCyWfYXlheVmxowZePjhJzBr1izXXyy+YObMmZg+bQYuv+pGW6+54TOBZ6uJTqIZnbu2ww33/wM7srKwK7txZ4JaNLTcM7Zm4uSJJyM5NQEBYqWFSiHguFR4eChCwoMREhKk0seklcViqR9nvdazZzc8N/sF3HXX/Zg2bbrLh6Uxeeihabj99ntx+10Pol1aqq3X3AgoKyvzSRc94azKNm1SUFpRgdKiUqxesR6P3P20+m1qSv1dG5b9Z1vmNhSXleBvZ41FYmqiFIJAaeUGIjIiHAlxUYiNjVTjVaERoQiV1i57ZE1B2Jf03b59O1JSUlzfPOPtfGXD55mG+mMXfVRUFPLzC1QXPbf0DAoKdHXRc+1wdRe9jb/a0B+HHwMDg/fUa8uWrcDVV1+FIUMGiDU/0+XT4m0uuuhiLFiwCFdcNQXpSty9X681h/xH6vLn4y56tqCqECxHdp907tYetz18PVLaJ2HlqpUed2ey7D+MzxUSrzFJ0TjjqjP3iHuYZIbwsFBEScaPjAxTLV2mB9OF6dPaWrkWy4HgXq/Rkn/11Tek/FXioIP6q7XkFu/B+OzVqx927izBHXdNV+IeGGLrNU/4bJId4SSE1NRU1eItK9P79hYWl6KgoAhffPAd5r78CaJjY9AmqQ1CgkNcv7LsK2XlZViw/Ffk5mzHcSePx4hRI6T1Kpk8OEiNSYVJIYiMCEZ0dATi4mIQKQWB6RcihURXVtUFYV/T107Cqom/h89OsvPMvvpjb4eneu2dt+Zg2rQHMHr0kbjvvv/UWDNu2Te4c94tt9yKTz/9BhMnTsJhI4YjMChQ8qfUa5JfVb0WFiQaEiHWu3fqtYb6I/5YPnxqwRMT0XpbzCBEsMUVFYFRY4/Ebf93Mzr06oA/Fv2BzKxtewJvaRiMr8ysTBV/UZLJ2/bsjBmvPoYbr5+El196BX8u+1PFe0y0XkISERku8R8irV9W5DorOAuBxWJpGHXVa+PGnYQ5cz5CcHiC2v3t+htuEMtTv/jK0jC4Y98NEm+Mv8rKGDz2xPMYceRharY8DcFIl8UeJwYLjZZI1m0S/3prWk6uqynurQmfCzxhZNMo0PtdB6mWVnRsOFJS4nHmpeNww/2TkNIuGQsXLVTjx0WFRa5fWjzB+NmWsVXFV2xKHC644SJcedO1uHrStXj1uVdx9XU3IT45Aa+/8iKO+cvBuOmGyXj91Tewcd0GiX9pATv6cGiF1NGpY7FY6qHuei0B10+ejJdffh+Z2/LRpk0b9d7ypUuXun5p8QTj55JLLkNSUhLWr8/F/814FWedcy7CIiPFcg9GeGiwiHkIoqLD1UY2asw9JgJRynIPUuvenePurRGfd9E7uzB468pKXqNCjhUoLi5DQUEhCopLUVZahi2bsvDDZz/hjx8WIiw8ArExMSqxLRpaArl5eSgpLkLfIX0xYMTBiImLRlVggMrcwQFS0YQEIVRcsHwPF2u9QiL89/kL8fX8b/H9J/olEccccxJGjRqJ0aP/IvEbLwWierzKvBwoJGTvQya2C7c2/h4+20XvmQPx56zX+Ppd1muM2/UbN+GH737GG2+8gXXrVqgy1rNPV1x60UU455xzWrUQGRh3L730Ep56+mms+nM9xo4dj6NH/RXJbRKRk5+PxPgEsdoD1Uz5kFAR98hQRESES2NKj7nrneqC5HNYveLekvOfkyYVeKILA18KwM8VIvDFKObuUCUVKCwpFfEqRZEUkD9+XIT53/+KTas3o01KMqIiItWrAVtToWBc8W1JuwsLsDNrB9p1aYd+hw7AQQf3lHgQD5KxWbOw9crMHiRpwvWgoaFB1Z/lyGUjVbQ0AgKxadMW/Pjj95g793N8/fUHOOSQQ0TwTxSxH4nDDx+iBJ6CT4E3cV1XnFsBqI2/h88KvGcO1J+zXluwYCFmzXoRr776NEaOPB7HHz8OQ4cNkbgvw9dffo/PPnsf3377IcaNOwVnnHEaTj755AY9b0uBcfjuu+9K/LyOd955C0dIHP3lqLEYfuiQPfVaoHwo2J2PlJQkMVZCEBEeot4PEiVCHhYhIi/5laLPTYeCpBrkVuj1aYO38wHxx/LR5AJPGARdICCt3RJXwahCkRQALjtRRxH7YqmAdmXlYNnvy7Dkl2XYuH6jtOzaSAsuEjFRMYiIjHBdseXA7ve8gnypgIuwY0cWOnTpgB4H90KPPt3FWo8SoeYEEol/KQQUdg6lU8yjosIRLlZ7CDO+fOffuEY0UESdE+4qyspVAWC68ahdlYj9T/j44y/xzTcfYvPmzVIhnSCCPxJjxhyDzp3b7fFHTAEyRysAtfH38FmB98yB+uM2sC+88AJefPFFZGVlYeLEiRgxYiR69u6FkkKp04pKtAEjhkylWPk7tu/CTz/9jB9++AzfffcpjhkzBn877jj1Ipv+/fu7rtpyWLx4sTRsPsMHH32Erz7/HEcccTyGHvYXDBYDIzEhrla9xl7IPLHg09NSEBomgi7WO5e/8ci8yjxKf5WVul7bW49jS89/Br8QeGJEvqyM3Vqi9KJUlfJZVzrs5tJCz6579SJ/qZC4dnfNyo1YuXAlNq7biNLdxYhJiEdESBgioyIRFRkpia0rp+ZAVVUlCgoLRdSLUVBSiPzsHETERKBdxw7o2rcr4tomoG1qm5qZX+KJE+S4WxPFnJWz6roKF4GXVm6wWO8hQaysKcJaiHmfMhF4pjwLhnsWYAHh+czM7VLZfIuPPvpCCT5nAPPtUaNHnyjHI+VenMCiu/PpTPoawfeEt/OVt/KfobWFzwq8Z/bX3zfffKNEnY6W+FlnTcSxx/Id7pXYsiUD8fFJantb1W0vvy2Xuqy8knVeBcrKK1FeVoqc3HwsXrgM8xf8iMUL5mPXrhwMGzYIRx01AocddhiGDh0qRk3zMWZonMyfPx/z5v0k8fMdfv55AZKSEjBgwFD0GTAY/fv2Vm+hq69e43K3vPw8tJP0pbBzSZwSdg4/Sh1Pv6yLdI+jNlzqo6XmP3f8RuANzPwMEjeOUEIvBYNLT9idVSotXXbdF0ulVFxYogoILX2Oc5WVVqhW8MZ1W7Bl1SZs3bQVOzN2IiwiXFn4oWoMWkSPLiJMMkHTCT8Ftlha8MUlxcqVitgWFRagpLgEbdomIrV9OtK7piG9UzvEJ8buyfj5OXlISEyozvzsepdKmF1TzPAhXPMpfoPlGCmVtnl7EudSGtFl3HKMvlIqEr4jmeNVPMdeE/agqL87sgTPE3br//HHInz//Y/48MN31XuXR46k0B8j7mixMnqpjYzS0lKVf3M/d7H3dQZ3YgWqNlbgPbMv/nbs2IGXX35ZiToF5uyzLxVhn4Dk5ERUMvvLOZa1rVu3qTlE5VKmqqRuY/3GosbfVKBKxL1SDJcSVc8567WtGdux6s+VWLbsD/y5dgkWr1yKrsnJ6NOnj4jkwejXrw969eqFnj17NqnwU8hXrlyJFStWYMmSpVi48A8sX74U6yR++vUYiJ49eqNXz77o3q0bUpKTVL3GujCwSgSZc4bqqdfCQ0ORnbsL7cTIYL3GpW+s1+if2ZP1DF1jpC/x5/xH6vLndwJvrmfWlVJfWDjKJSNACgQbAGVyLBYrt7RUCoL4KRPRZ6Eok+9sBVdJi7ichUY+b92YiSwpIFkZWcjK3Im8HdnI2ZWnhDA8MhyhwWEIEvEKkgaF7g6So2SsoACOW3P3I52JJKpqiRXR0cfCSIGUQsuJNVVyfwkLn0W1zislnGUSxvISFBUUqTDHJcQgrk0iEpPj0SYtBW3Tk5HUto3quZA7MWUk+8q91f2lkhWXn5ePRKkgOMkkhOPpUghCwoJUF7zK9FIQJEEl88szhIWqlq1a/+6ysk14q6oCXA0pbcGzEgqU+GU8a5HXz0J/fAb+hulBeB3+hpvozJs3T8T+CzV2z3O0Lv72twlqsl5CQmyN+5ojKzPirXzVUH/EClRtrMB7piH+Pv74YyXqr732mpokR2v9L385TJWnAGWVm4azbjyzAZycXL3TGYuEKRcsexVS7kqlkc96TaouVYfUVa+tWbcRm9dvwMat6+S4Hlu2bJbnX63SqkOHLmjfvi3atW+PduntJE5S1cx9Ni44byk2NlZZzGwMhIeH7ynbTlhOi4uLlWhzuCEvL0/N/+HEXjZotm3LVPfcsmULNm/eho0b16p6IjW1G9q1a4/0jl0kHJ3RuVNHCUN6nfWaxJAIu9S7IaH11msh8nsul0tNT9tTrzFbMv5MHJLWlP/I3vwFZGRkeBR4Y7mZwk0YkVrQNPxuKmzjz92Pk4KCAnBbzPpwv68WJBYUXleLkPiSQiCZnWLKbyKe/FwmYSmVz+q7+GUBo+UvP1TXEA3WR/mwO7dAMm0+dosryS9GvmTiwmyxokX4Sth4KJCCRhFUM2F5X7mm6968hs5U3BqRGUyP/7BBwAkgoVFiPUuGDZdjZFyUeuZIrtGMi0FUbCQiYnUc6LiqlKPkf+6WLNfSXU1ylMdXcaCurV15SSkiY6KUNc2tF3lPdlGFiD/jh9HHzM/KOTCwtsAy7MSkmw5DdTe9qozEKwXfCDzPBUiDR6dNdfrykvw9hXy9VDLffz8P33wzDz/++CkGDRqEI444VnUrHnJIf5e/6rjjs5kwecJf8l9dtJTwsaHHd5ivF7GgsPBn/AmtJ/aise4317DxF6AE7Y033sCbb76pRHL8+HNx8sljRTSjXcKu6yj+npfQ9ZWmqKhQfhOprqmd/N3Rk8jfcojSvV7jFrg8b+o1vp6WQ2wSESouVL3mul/Orhxk5e1Crhx3ZecjOzsLuXnZKN2dh8LCPKnzCpBbuhvl+YUSt7uRm8vehTx1f16Lz0gCA2PlmVinxCA4JhJxodz6lY0CqcOiYqWhkIi4uCTEiKGSlJggf4sXoyVO/VaeRJxbvaYEWT+zilN5btZjgVJ30NgKUlZ5kLLYlVXuVq/Jr1Rjg3Fu6jUTVictPf/ta/j81oJ3vx6DWe0ClHCzWytEMg4zvHIiwmVSIFgQVEGR78UiipVlIiySFxgZFP1ycfINlaobTP6mrg9kSwsxNjZOfZa7SCTrqKmSTGiiiRHPj3xrkUfEL6E/iWsEBejnUJY0/5Nz6rMkCD+z4cDWLFuuLA7B0qply1Zt0iD3UBmdmVw+5+buQkpaW/mu/0aBp7XFNyVJMVLXragoU4nsnPXuCRPPpvVuno9xy898dh5pQVDs2ZXPuHNa9zot9O8IJxPpnQorReTn7Zmsx3Q3S/GOPvoIEZQ0V/j0b004neE14fOX/OdOSwmfteA94+7vnXfeUcu3PvnkE2Wtn332RBx66CBVPijMbOSzXMj/rvJRnbcZf4xCWr4cwmJ55d4Tqh6Qv9MZ/96u19ijqOsiNuLrrtdITk4e4uOMSLvRSPWa6XEMCacFX3e9xrpCDwGmyefqesIdb+erhvoj/lg+mo3AG0xwdRezzjDMsCwUzm4xFgx2ebEg0AqX7CetX/k7CwwzP//OgiHXqxQnXrFj5w5plcbL7yVi5J9KWpzymffkbXmskHsQTy0wZnRDpfyQ39VENPEaSCvZVdCZ8fl7nmfLO0gyrFrWQSGX1msQjxwiUC1ZnpPP4plvhEsTgVddWzUyvy4APDL+eNyfdHNmBf3MetIjj6zsVQXGgizPxjjSjQAt+PzOSXkpKcmuK1RXbhkZ2/DDDz/gww/1Urz27duryXpjxlD0j3Q9Q81W+YE8R120ZoGqCyvwnqG/1atXY/bs2aobvmPHjiLsl+LMM09RgsT8ShGlJc2jFlBdTzALM+/quGM51uV027btSqA85XeDt+u1cim//B0DpQ4sqx7qNcIu+Lj42gIvoXR98n69JhdU8UN/9dVrhAJvy29N9uav2Qm8gf4YdPrTGZVOt4RZMIwQlbClK9+ZSZjBWTg4jiUfVMHk07NA0P92EajExEQRcZ7UokUB0y1dfW0TPhZAZ8Q5i6m+Fws9u59YGegCICVA/tcVptpDWS7AazIzc6wpgH+nc/nnPfg3nmNXXtY2tmD1LHX3CsIc9yX+SH3+zPPyqOO5On7V0RXHKr7FMX2Tk5Nd8ab9GExYOXFo4cKFmDfvZzVZj5/1ZL2RarJe375c0697IohZ7mKez52GPi9pbQJF9ubPCnxtzIQ5TiTVY+sXYcCA3kpsmd+N2DKfa0HWc1SYR1XZluji0QiWsdb5tjFa8CYve8rTDB+vx/CZMnQg9RqHLbm5FdeR11ev0XGMm/VfdamVMLqORN/Lu/VaqYSH/pU/uX5d9Rqx5bc2e/PXrAWeGH/mMZxHZl7nZDLOHncKEv2Ygsqjep1tSor6zMIQqP6u/ckV1fXMfZlJ3XFmRgoZvzN8zMyV8nlPIZC/82/8zK4s/p1CxqP2K61g3l/+zkvSLzO+acGa+zjvZ9jf+KsLp7+acavjQx91/GVslwaIWPA6fumPcavj1/yOlQ7R8RKoJu/8+OOP+OijL/HVV++reDjmmGNw9NFjRfCPqrWznvuxoc9BbAVRGyvwmj/++EOJOt3BBx+MM864CKeffrKrDGrRZL5WxoDK27os8Dvzop6zoK11ZdG66hxdppXXPV3M9eEePnMf53Ff6jX642fu215fvUY4xMbJeO446xlv12tmSJHXM/cxR3ds+a3N3vy1GIF3xzwW/fEz/fFoMjMzONHnxEkGZPgoUPwpnfGjC4Hzeryv5zF4kznpT2dcbYEyg/NPdCqjywdmdlNB6G4//VtPgkb8qYvKxIfzmJGxHampbCDp+DLWhh6715WO6fJnITeouFCuCitXrsIPP8zD3Lmfqe78ww4bI0J/jNpZ79BDD1b+zE/5uTqe638OYiuI2rRmgednsxnNmjVrcPbZZ4u7CD16dEGJCE+g5OP6x9Z1vmf8UODr617m0RvxZ+5Pf/xMfzzWVa+VidDKJ4RKGPlTOk/1GmH9Utf7zM1z8L787K16rfp63k/f+vC2P+KP4auuZVsYzDTGsQAaxwqLjpUYHddTcivXUDkXIgWUGZetTmZMdhtpx/cKhymnP1d/d3fufs011EQSuS6vzxnwvB/vy/szHCZcpkI1zvkc/oTnuGXPho5TFX+qK44iIRWfxAFFQz+zduZZibIupCHQrVt3nH/+eXjlleewZUsmbrrpWtW1edll56N9+3Scd97lePbZ17Bx4zbl31S8pvJ1VlgWiyd+/vlnXHXVVao7es6cObjyyuuxevU63Hnnv0TcO0m+Kkdlablq8HBlARulpueJ+VXnX10/BCrLnXlfyrccWZaZpbWrLr/ewlyvdtmru14LbWC95vzu7lpLvdbSaLEC7wlnpnJmNuOMQOmCojOou9PiVb/z9Dter67MbpwzfM0NZ7zqo45LPruKF/WMFHV3wWcFQacFn781Qk3r6fDDD8e//32HWPU/iUX/A0aOHCHW/UcYNKivWPRDcOutN+Pzz39QYl89Nlot9lbwLYRruWfMmIEjjjgCF1xwgViqXbBgwVK89tqb+NtJxypRV0vSuPZcLcHVXd46H+oyyzzK/ErHHjzmZYon87cp184y4Ct4L+Oc9YlxJmx09dVr5liXc/+Ndi27XmvutCqBrw9nJjTOU2bdX+fp+i0V5zOa56+uYFiJuFv3utLUVoH+zAk45hqsZCneXIJ36qmn4JlnHsf69ZswbdrDcr043H33LUhIiMO4cWfjkUeextKlq11ir7sqrXXvmdrxYaoDfTR/bs7x9vXXX6t94Gmtf/fdd9Ig/Bf++GMJbrzlWrRrlyL5pAKVZRT1MrHUtbXO/EKY94y1zsZooBz1BLHqpVyStffkcZNf/QkTJqcz4fWG83R9i/8QUFZW5rH0NsYYBbta6xrjMfh6jMKJDV9tGiN8FAxez4iu+2S9Sqk0K6XC5SQ9NgK0Va7/TpyCwwqa44D5+bvVyzo++eRLqdTnqq7EkSNH4phjTlCT9fi+6KysTNVIIKYicq+Q9ideTHic4TI0RvyRfQlffdBijYmJQm5uvrZcKyvUWmR2s+reFlbk2m9zyX+cLMblbXTMO2effQnOPHOCmrBZypeRcOa2PKOZOEdM2jE/qAlhEg9skLI7mvlTCxoFTFv0Jt+Yrvt9CV99+EP81YcNX934Y/iswDuw4atNY4fPXRx5ZIVKa4qVMy0mCj4rZf6NFbIRe37nLGHC61WLNtSe2JysxxflcLLeEUcch2HDDsWJJ47FkCEDlF8jXNW/q14l0ZB4+duw813fmjfrty1B57b9XN+aLzm7M9B9SBrefvttnHXWWTjjjAtx5JHD1ARavcMcl5dVNxxNnmO6m/ygGzSB0hAQgZd8yF4lbanWniBGGppfiK1famPD5xlv+Wuxs+gNNnye8dfwmexohDsoKESd08IuIi+VtZ6Zzwqb/vR6YFqb9OfMzqbi5vjqDz/8KBX/B/jll6+QnZ0tVv3fxXHt/V+Qnp7i8qvX/fMzw+esyN2hv2MHn40hhwxxnbE0Ne9+/iquvfVyjBs3DjEx0a6zROcdnV9MvmJXu+6doDVvxN1Y67TgmR84gczkI0/4unwYvO2P2PDVprmHz2XDWCz+galMtdWkrSo6PXYfuGeyHmftqolOYZ4m6+lNR3TDQO8yxslVt956PebN+xVffPGdsuzee+999Ra84cMPVZP1vvjiR2kMNGyynvt3S9PTPrE7TjppnBLyvIIiFBaXqA1h+HppvpFS5wWdt/TYup40xzkgbCAyXzEPMa85J4zxNxZLc8QKvMVvYcVqKmTjak3WU9aXFvXqyXrO2c7VlTQ1mTOl+Xat006bgOeeexKbNm3FAw9Mk7tFYcqUyUhOTpK/XYAZM57F8uVrXWKvBb0+wbf4B9m5fIFKIQp2F6KkqFS9qKUqgF3yesa3Fna9bl1b8dIolPzBc1rU9aQ5k/csluaMFXhLs6G24FcvxVOCr86ZyWFSebMB4BJ8bZnppT6m4qZgcznUoEGHKOv+s8++xh9/LBOB/zvmz/8Nxx57NPr27Y2rr/4H3n33E+TnF+0RfDqL/8G3pdF6Ly7W4k746mfVGJS8oGfC17bWTb6yom5pSViBtzRb3AW/pnUvVhqteiX2rnXLSuxNdz67+fmb6u58zojmu7KPO+44PPLIQ1i69E88//xsdO16EB599HEkJMTgr389Gfff/zB+/XWRKxQWf6JQrPbysjL14hVqNV9ooqx1iru11i2tDCvwlhaBu9g7BV+N3Yu1xp0KjXVvNtrZ8zc1dl/Tuqe13rNnL0yceBHefvsVbN++C9deexk2b94s587Gym1LlF+L/8Blfny5CgmskvRnvuCadTlaa93S2rACb2mROAVfH2mt6X3WlairRoBjsl6NnfXYfUvBrzlZj/6POuov+M9/7sIPP/yC7m16u+5m8RtE1CX11UeOuytLvYqfq/MEncXSGrACb2nxmErdk3WvBT+4xs56zrF7fayerEdMd36gNAws/okRcZP2xlksrQm70Y0DG77atPTwOWfD8zPXSXMtNIWef6Llzo12+GYxPYten+OGKWcfe6VdB+9H/Pr7r7hu6vWIDA9DXFwkEuNi1JEvh2KvDRto/pb/3LHhqxsbvtrszZ+14C2tGqd1V6d1r8bu6fQsbFr0YWF7L/AWi8XSlNid7BzY8NWmtYfPFA9z5PwtfuYGKn8fcYG14P0IWvA3PHQTIiNCxXKPQlK8seDD/MKCt+W3NjZ8nvGWP2vBWyz14LTueay27u34u8Vi8W+swFssDcSIvRZ810mLxWLxU2w1ZbHsIxR4i8Vi8XfsGLwDG77a2PB5prS0FMcPPbfBY/CHHN4XJ587GmHhoep7SXEp3n3xc/z+41L13TD53osQHhGG12bOxZrlG9U589tFv6zAm89+rM650613R5x+yd9QXFSC6VOecZ0F/jruCBw99lAEuQ0pZG7dqfxdcuNp6NA1rVZY6jrvTn3PVV+4ef2Y+GgVBvdrGEwYG4odg6+NDZ9nWkv4rAVvsTQyRsA2rc3AzRc+qBw/8xz/ZqAYU9xJt4M6qmNDGTS8jzry985rEr5g54s58/bc+7WZHyI+MQanXngcZj74OnJ25ePovw1z+dbhoLh//+lvDRL3vT1XQ5n/7eI913lq6mvqWRhGi8Wyf1iBt1gamTapCeq4YfVWdSS//aCFs2uvDupIOnVPR1bGTuX6DenpOtswOspvVy5epyz4wSPqF1eKNkU9oU2s+v713J/3CD7hvSnUn77zvfpeFw19rv2BvRd8FhNGi8Wy71iBt1gamTV/UqxKMeqkw/aIKEX2jise3tN1zS72xOQ4JZYUSU+WeF3QH/2vXbEJS35dqa7D69UF/VPQs3fkqe8MCwW9Z/8uOOvyE9W1vvzgJ/W3+mjIc+0v7mG0WCz7TtBtt912l9qty82xb59H4v43p2uoP7rdu3cjIiLC49+M8/Z9bfg8Oxs+z66h1+OOd688/R7S09KV3/rI3pGL7z75VQQrFkOP6o8xJ49Qjt+XLVyt/Aw9sj/SOiTjh89/x7IFq8XfADVmzL+ndUjBQQO7InPLzj3+nYwYPRhRsZF4+/lPwW3Y+wzqjpLiMiXAFHpa0zya+/Yb3APrV27GSzPec10ByM3Ol/M9VS/C4vkr8MNnv7n+Ujd7e676ws1eBo65z/tywR5/Hbul1xvGvbE1YyuGjR6+5w1yYa43B3JP+oAA/Q7/lpL/bPg8Oxu+ms5a8BaLj6BVa8aYOSY+4NBearybUFgTk+Nx6U2n44Fnb0RqepLqdm8I9Ef//B1/z+vwegbnGDzHuTkRznSlG9glzi7+3OzdWPDTMtfZhlHfc+0LzjF4Os4PsFgs+08gZ9/5ytEi8XTeX5wN34G51ha+hsLua86Od2K6t2Pjo1V3NCe1OQWOE+GixSrfm1Dy7+zKNgJOx89pHVM8dvFTjDn+ftypR9Xbjd8Q9vZcTUGQ2lZYv+efmxFp5zn9fO1s+T0wZ8O3785a8BZLI8OxceckNsJZ79ExEcjL2b1nQhr9GdhlXl5WUcMS9wT/TkGlsBp2ZGZL4Q6qc6IbJ9WFR4TumXm/v+ztuSwWS9NiBd5iaWQ48Yxrw9l1zW50ukMO74OvP/xFzVRnFzutavozsMucs+lp2Xfu0U6d4zi3+T3dRdediuS0JOXPrJknvA6vx0lznmahm0l1DI8nK7+h7O25DO7hdjYILBZL42E3unFgw1cbGz7P7OtGN5bGx250UxsbPs+0lvBZC95isXiEY/T/nH5FDevbuP/MnLxfE+ksFovvsAJvsVg8wm7//0x+fM/kPaf75yXT97oRjsViaVqswFssFovF0gKxAm+xWCwWSwvECrzFYrFYLC2QgIyMDI+z6LnNHeHMUwPfg+2cdM/vFRUV6rPx5+7HSUFBAaKiolzfPOPpvp6w4fOMDZ9vwsfZq+f/7Xo7i96P4Cz6i2+/DJFhIYiJjUB8TBRiY8MRGhqK4OAAlaa2fNjwkdYSPrtMzoENX21s+Dxjl8n5H3aZXG1s+DzTWsJXfzPCYrFYLBZLs8QKvMVisVgsLRAr8BaLxWKxtECswFssFovF0gKxAm+xWCwWSwvECrzFYrFYLC0QK/AWyz5iVpYWFuero8VisfgjAWVlZT5bB799+3akpKS4vnnG1+sEndjw1caGryaLFy/GK6+8gldffRVVJSE4a+zlrr9Ymhqug79u6vWIDA9T698T48w6+FC/WAdvy29tbPg84y1/VuAd2PDVxoYPyM3NVaL+2muvYcOGDTjttNMwbtwZuOPKB10+fMeO3RnYvXsnOrft5zqzf6zftmSfr5G/OxsbstagXxf/2Nxn/rqvkRzRFu3adEFIcJg6N/lBCnwo4mKjkGAF3oavDlpL+OxOdg5s+GrTmsM3d+5cJex0EyZMwBlnXIixY0ejAlUoLylBWVkFSisqsDu/CHl5BSgoKEFxSRnKKyuAqgB1nQp+FoICg9SxPnKkIREfF+f6VpuFCxdhys0Tcd99MzFg0ADXWd5K3ytA/jPUd98tGRmY+u+78L8ZT6itLgOlBggI1v6c13AnOycbV93wD9z1z3+je9curDzUeef9G/q83vC3buNGfPXxp3jzzSdw6qmXY8iIw3Fwv76IigxFrAh8omsnO25Va3eys+Fz0lrCZ8fgLRYHS5cuxe23344uXbrg3//+Nw499Ghs2bIdzz33Iv56/DEiiOWoKC1HqbiyMilcFVVq/+eQkBCEhIaobVKjwsPkqD+zu1g5ft6bC3P9xoNb8eefStynTn8Wg4YcLBar3E9cqNw3gveVe0SI5brnN/XcN2/HTqSnd1K/C5ffh8qRnyPE0q1xDTfH55p49qV49723lX/e29x/z2/ruW8N5wV/fXt1xz+uuRJz5v6AlHZtMfV/9+Lef92D33/9HUGSJgEBVWq+hNNZLK0Ja8E7sOGrTWsIX35+Pl5++WVlqa9evVpZ62eddREGDOitrPXAqkoR9ir1Agi+A4LHsrIy8HUQLDwVpRUookVfUiF6Tz+V6jwxL4MICqrfUiW7du1CYmKi61s1P/3yK6685AzMePIVDDp4gDyzhMllNQcGBSJYXGAQBU07Ut9933j1TWzdmYV/XHopSuU5WAOEhASLlayvQ8x1nDB8CQkJ+PsZp+HWybdi0MD+6nxgYMCe3/K+/O3enreh8VKfP1N1SZSjXPzt3LkLC/5YhPfffgvbC3Nx6Vln46KLzkFUbDRCGD4xZ0z42CCrD1s+PGPDVzf+GD4r8A5s+GrTksP30UcfqclyFPdx48bh9NMvwPHHj1KiHiqiWVFBsdbCToFnUWFpofaZtz1ReCqqKkRgxG+Z9u8sUuXlWqCCXV3g9ZGVtQPJyW1c3zRffz0P559/Mp596W0ccdgwFJeUqvtQVAMCRLRCAsWSDxKLlQJWLfB13Zdhu+uuf6NX/34Yf9LfUFKqBZ5WPP0GgW9dq76Ok6ysLCQlJeGduR9hzpuv49HHn5TGj/xY4sqEoYpqK9fY2/M2NF7q86fTQ9JHglpeVo7M7Vlok5CIKlHyRUuW4b03X8EHH7yFCy74By7+x8U4qEtnSR8KfJUSeD6jp+cktnx4xoavbvwxfFbgHdjw1aalhY9WqBlXp1ideeZEsdjHyed4JRQVpSKgItIcr60WdV1EKAY8T0uQQsbvtHz5ZyPsTv9kXwTefZLOV199LQ2PE/HWW3Nx5F9GoEyuVVpUoq4ZFBSsrhkYEoRQEfmgAPks4TKCVZ/Ajx17Cm699SYMPvQQdT3CiWhB8izBrufzJHyZmZnSAElVVvDo0X/DNddcizFjjha/ovGhQWIlMy4YL7pHoD68JfAcZWR42GeyNWObCHySOs90CggOQMbmrXj22Tfwwgv/w6hRf8eFV56HkcNHqAaN8iNib57V+cyttXzY8NWkuYfPjsFbWjyFhYWYOXMmTjnlFKnkR2H37t2YPfstfPvtD7j0igtF3GOVSFSINavH1iuUM1Y6hSA4WKxUEa1QEbIgJQ5yFJHVQhusLEJO5qLj60mrHb+7n/PsnL/98svvlbi/OXcujj12JEKUlSxCLoIeHh6G8KhQRESEITYqHNGR4fI9vMa16rvv2rWL0KdPTzX+HhKuHf1y9nlYZG3/ThcufqKiwjBlyg14+OH/IZS/D5PfB4fI3yQOIuu+b0134P7Cw/nMIYiIjpA4CEOMxEN0dDgi5UgBZ4OjY8eOuPPO67Fq1XocffRhuOnqf2LkyKPw6qsvqzkUHO5wNuR0o8FiaRlYgbe0WD799FNceOGFatz4448/xgUXXIENGzbjvvum4uCDe0vFXo5KqeQp6kbY2S3PSp7WXFAQLXSxkEXUKSRBoVrQOZ5LsQ8WC5F+6PiZjrO199eZ33/22ccYP/54vPPOxzh+1Bh5kgAJk7YuOeYeJH4iQsNE4NmtrsMUKmFgON2v6e4KC/NRUFCAdu1SdbgD5Lw0VvicnEmvn82zM+ELFOEce+JYxMfH47133nUND9AalvBJm4jWtvtvG8vxmfnswdLA4H3ZSIqURgbjhmlGP0GMs6AgnH322dKo+xQ33HA7XnrpXXTr1hnTpz+IrVu31xB6NYfCCr2lBWAF3tKi+PPPP3HXXXehZ8+eYmVOQb9+h2LNmk1isb+K0ccerUSd3b5a1CuUqJeXO0U9SISCwhGsBCJQhJwCSoud4mdEXT4qUfO2+/DDD3HSSSfh3Xc/UZa7BFh1w7HhQaGnIIeKqKueBNV7wKMZOqjf8flWrVqFHj16qLjid+P4dz3+vvfnUo0ZCcdtt03C1Kn/lt/rOQns8KgKrO7mNtf1hTMNLS3ojBfdIGM6svFCR39k5Mgj8corz+HNN9/HihVb0KVLO1x66bWYt+APyQ9mQqV+Jiv0luaM3ejGgQ1fbZpD+IqLi/HGG2+oCXNLlixRG9Gcdtp5OOSQ/mpcPUCJTyUyM7cjMZFjtGb8VosQUTPBxdLjJKwqOYaKlarFgwKoxd/45bEx4o/zAs4//3y89daH+Otfj5YwVqqGCBsklHctT1Uu0QpV4aVmGeFyUtd9Z8+erdb3P/PMc+raJSWl6jrs7tfCqEXZEyZ9GXcUwTKJ0zNPuwCjRh2Bc845xxEeDiP4fhIbw5ecnKw+M4xapLVFzjRkI6m0tEx9Zy+EyQO5ufl47bVX8eSTj0jjZxAu/Mf5OOGYMfI8bBgwH1TnE/fn2dfw2fJbExs+z3jLn+eSbLE0A7744gtcfvnlSE9PV6I1ceLVWLduo+qCP+SQvlKhc826HlentU5L3UyGY0VN8dbWOrt2pSJ3WeshAbpir7bWtZVYn2AdKLTc9ybuugs6WMJgup3rFuO6oAXfvXt3FQcufRNMA8b1tQHwtrT4b731OjzwwL91OCVuKaIVIqYU16bApBEd40cPK+geGKZtoGocaauecUh/cXExYsFfgt9/XywNlTMx48HHMWzYEDz99FPIzy+UZ7Pd95bmiZ1F78CGrzb+Fj6uU6cVSms3KipKLPUL1Cz49PTUPda6roydS9t0FucyL4aP4kRhpABUUixV17QWhcpKfV+zjKouvBl/bJyceOKJePbZV3HGGeMlvHoIgd3FVew9qNJdzxR3PhOFicMH+xO+M844A8cdN17i7STV6OF6fjZyODGNAsg4qeu6zvRlnDIsFPYLL7wSffv2wJVXXsG/qHCGhobJdavF1h1vxp+hrvxn8gCdnjwpcSqNpYBKzrnQom2OzCoM7i+//IZZs57Fxx+/hYsuuhoTr5yI3l27uPJJdY+OWad/IOFz4u148Ub8ObHhqxt/DJ+14C1+T2lpKZ577jkce+yxOOyww7Bjxw6pfF/Cjz/+jCuvvgQpKYmqotXWeplU4nrCHCtsQjHXs+D15C8KELtf2U0bqsbctbVnxM1Y677AiDvH3EeOHCECU7e4BwRoq7M+Ea4PCtzKlSvRo0c3JWT8bqiQRs6+YhpKU6ZMxv33/wt5ebuVeNKKL5cGFqPfeY+mwqSpdqwMJU7VZ50PdINEW/XsJaH/wYMPxuOPP4yff16gfjfy8EPVPgmffPu1VKq6ccPnMxa9PzynxeKOFXiL3/LVV1/h0ksvVbu7vfPOO7jggiuxZcs2PPjgdAwdOkAq2epZ8BR0PQteV7aspCmErLRNBc4146qbVs0a920XvCec4s4JdY0p7gb2gHTvzS56/Z3X2p9nN/4ZJnb5n332pZg27QkV97TqdU+Kf4mf81kZj87ue57n8kfGt7P7Pi2tLe644xZpGK3D6NFH4pZrp+CIIw7Dyy+/JOlkl9lZ/Bsr8Ba/Yu3atbjnnnswYMAA3HjjjejWbQCWLFmJ1157E38fP1aJOgXECKEWdT2JTlfcesY0RbF6FrwW9mA1tq5FUurz/RI2b+FJ3HUjpfHEffPmzYiOjkZMVKTcT4sv4SUDxPIWe1R93xfYXc2w/fOfk/HYY/9WS854WTUWD23l+pvomTRn+jMfMF6VsFPk2QCUPMN41z0+WvzpzjzzTHzzzafyrP/Cq69+gC5dOqpldlu2ZNYQemPVWyxNjRV4S5PDcaQXXngBxx9/PIYMGaLGsmbMeBo//PATrrnucrRtmySVZ4XLWq/ugjfjn6yszUY0RhQ9d8Frv0bYm4q6LHe1XK+RxJ3o7vkeCBLhdYfXNq6hGP+Mz9TUVEyaNEUE73ElcBQ7+Uc++7dla8JPZ4SeeUZPytMC7xR6+v/LX47A7NnP4J13PsSaNZk46KCuuPjiq/HDbwtUA829+95iaSqswFuajG+++UbNgmcX/Ouvv46zz75ExD0L06b9D4ceOlAqSueb2ypcoq7FghUtK2SzZl2JuhJ2/+mC90R93fK0nxtL3IkReMYfxYeYONnf6+vfGiv+OnmuZ7B69VpJJ92z4q9WvDt8DpNHdL6i0z0/1eP0WuhNevTs2R1Tp96DP/9cpyYZnn/6KdJIHY/XP5gj6cm9C8xYvRZ6K/YWX2MF3uJTNmzYgPvvvx/9+/fHNddcg06d+mDhwmV48813MH7CiVIhunfBa8vWCFKtLngl6roiNruwaVFv2i54T+xtzJ2FsbHEnWiBP1juy2+66PPSOo7U1/2Cv2d8R0VFi8jfJVb8/6l7aCve/8bi68PkFzrGPZ0Zp6/uvudYPRuQOn/FxkbjkksuxoIFS3Dhhefh8WlPYsCAvnjiiceQm7vbdt9bmgwr8JZGhxXaSy+9hBNOOAGDBw/Gpk2b8MgjM9VSpEnXX4n09GRV8Tm74J2iTqGuswteKt7qLnhdMRth9ycaMqHO9EY0hrgzDfQa+K7yudqi5uUrXUsE9/de5rcM8+VXXYaffvpCGm2LVPrRkqeFz6RsTsJmnol5iY0XpgXzGbvvlVUv6WSseqYb/fH5xo49FnPmvIHHHnsG33+/EB06tMXkyf/E4lWrlcgzHlReF9ec4sPSPLE72TnwZvi4vpg4/bkXaM40Lisp4R8QzHXXUnnwVZd14Qyfp8qY5/wp/r7//nu1uxwdl7dxzfr48X9T8UArXFt2ekKWGas1UBgYFdxbXFeyASpuAsULP2sRp2Wkx+H39n5v0lT5j6+l5Ytu9raJTW5utoSPe8TXLe77Gz7Gbd++fSUt3kG3bp0kf+p448S6oLAQRKid8eoX+frij9enaBUXl+GFF56VBs03cpyp0okiaIZNmKaNkU9JY6cvn9HkUS3UVZKOpSofslHGvMjzTn8ZGdvxzDPPSwP3SQwZcjQuv+4SjDniLzXysIlzfyu/nrDhqxt/DJ8VeAf7Gj5TiEnp9s3KlWVtQdnObSjZthaVOzJQlpOFyt3ZqNidh4rCQlSWloilWooquU5VpVSyrspAFXJxAVIRBsi1A6XCDQwNQ1BkJIKiY8UloDw8BtEduiI4uTdCktoiNCUdIeKC26TsqSic4TMVB3F+Jo0Vf9w21og6K/zTTrsQp58+Hu3atRVLUSpFsdAp6Kzc3CtDhpGOIsBzqhIMDUFQFc9V/83pd1/D5+v89/777zdI3GkN7tixE23b6pfA8Nk8sb/h4/eIiAhk5xfIF72rH2G+YW9IRES4itu67kv2Fn9Mbz5bqeTrw4YOwQMPPIwRI4ZLGHTPhO7m1s9mGmbeimfiq/Q1+ZVHNpTUxjnyTMzfAa7GqnujlcdnnnkWL7/8llyzCP/4xz+kXJwlcaIbrybueV8evRUv/hh/Tmz4POMtf3YnOwf1hU9Fk7j8lQtRtGYJytYtQtEq+bx5DUoyM9S7p8PUayqlcAaUIiSgCCHBlZC6W+7NLj7tpCxD6jkRcnGuazthYogGgNov9YNUFNrxMaRelmOgVKDhKKsMgWilep93VXmViH1bRLTvhtBu/RHW5TBE9+qPyK69UCWVhbuVQBgv3qxIXn75ZTz//POYN2+eWk7ETUFGjBjq2l1OWzYUAO59zqhkxUYYBjp+pQDwSAuWFae2/rhjmw6/Cbs5Em+lr8Gb+cp0y1Pcx44dLc9du1veOebOnfbYEHI+nzv7G75ly5bh5JNPxsLFS9WGQIxf3kfny2C1d7y2KOu+997ij2WEFi3z69tvv4EnnnhJdVfzunpyWrUV3xgC3xT1C3vq+Nx8Nr7xTwm7K89z7N3sqMi8v317FlJTU9Rrip988mn8/vu3uPDCq3DxlRehQ2qqxAt/X6bSwJc7KRqac/1ssOGriRV4B87wMVpKtqxD/pKfUPDbpyhY9gsK1q1GaFQEIqKkQpRWeERQEcIjgLAwipP6WZNA8WRPf3ERUCjiX1wageICsaQKixHZqSui+hyDyEHHIKb/UISkt1cVh6lIGC+mIvFUodQXfz/88IPaMpZu6NChOP74U3Dppeer61CUtRXD8FV3XTqvxzjTY+l6nLOKAq/En1vG6heEmK53T2Ej+5u+deGtfOUUd1rutFzrE3c2arKyMpGWlua6gmf2N3zvvvsuZs2aJeF5W/JKmfxd96IESoTzzWtG4OujIfFHgVdpLdc6asQYXHfdNTjuuNFK4Ok4b4Jj2RR4k//qo6HPS5qyftECr6tSnee1qMunPQKfkZGpXoZj/HG1wcyZz+KFFx7HhAkXYuI/LsahA/qp/M+hKfeGrRNvPwdpTvVzXdjw1aQJZcn/qMjJwa4v3sC6O87AopPaY+m5/bDzyasRvGA20gOXY2D/MvTtnoeuabuQnlyEhEQgQgR+L/Vio8P7MxwMT7s2xeiWno2+PfJVeNsFr0DwHzOxa9alWH7+QVg6rgM23DkR2V99gNLtOaryMRUQHSsfUwF5YsuWLZg6dSoGDRqESy7hNrFdxGr/He+99wFOGne8qpRYeRsxq2/CnNmIhueawyz4huKcUOfslq9P3Pc2/n2g1HzJDB0bTRwG8W7m5TPwktzf//bbr5O8Mk2dr5nP1KkWhX5unV+Zlp6W2THNdU+GTmtOeHzggXtE6DdiwICDMPHs0zB27Cl47f33VLlxxtneyqXF4okmlqampyRrCzJf/x+WX3IoNp3XG5mPXInQle+iS9JWDDioCN3a7kJqcjmio5teyPcVhpfhbivh756WjQG9i9G1TQbCVr+MnTMuwZLxqVh9+ShkvvoYirdvFyE2FQotkOpKhe61115TXby9evVSy62mTn0ECxYswo23XIuOHdvK78RKl0qJ1qEWM70RDX/rFHUjbKz8zEY0RtRNxWcqyuZI7dnyTS/uRC+RGyjpyvTk/bQo6aPLkxfQ12QaBmDMcWPVHgdvvvmWyk+6W54CX52vWhrm+elMntbDElrs3ZfZMa9HRUXi4osn4rffFmHixAsw6/+eQb9+vfHYY48iOztvT7lkfJlyabE0hFYr8FmfvIIVlx+BhSd2Qt7r/0ZS3nwcMhgihDuQklCiLOKWCJ8rNbEUPdtnq+dN2v0NCt6+A0vEsl9z9bESL2+gVCpiVio//vg7rrvuOvU61qeffhonnXQGMjN34tFHH8dRRx0qlU71RjR0tNRNRWQqOAqZcc1hI5oDoa6lcJxQ15TizvTQAl+9Bz3hfStcce7tMEhyKit+ypRrlZVK2HBUYuXa/KYlY+JU52124TOvo9Yyu+qhC73MjsMZ77zzKp566gXMm7dYGs9pmDTpFixauUrFHeNN94JYobfsnVYl8KWZm7Bp+tX4fXQCsh6/BnHZ83DIoAp0Tt6purebr7TsH3xePneXVBF7iYfE3K+x68krsey4JPzfEWmYfMUExIm4f/7dj3j3/bk4++zxqrJqyEY0FHBaKqYLntZ6S+mC90R94s6YaSpxN7CLvlu3zkrgTQOM75WXf10+vIdJU1rxhx/5F/TtOwzPP/+CS5j4Iho985zhaA0ipeNCN2KZ5mzY1vU2O36n/4MP7i8W/H/x++/LEBkZieOOPhKnnnou5n75uW4keehps1jcaRUCX7x5LdbffTZ+P7Ejyua9jO7tc9BDLPWkxBZuRuwjiQkV6NluF3p0zMMJaYV4OHwdLij4E2mlpSgtKkVhYSmK5Ki74Wnlu3fB6+52VlZm/NF0wRtr3VR2PLYU6hJ3NoCYw1jImlLcc3JysHv3bqR34AS+aiHg7fmSGY7FNwaSzC4r/nr1OlnmFwpTa7Hi3WF6G7dH6FUDWAs732ZntsNleaK/1NQ2+Oc/b8CKFWvVSoy7br4Hw4ePxEsvveBqXFd331uht7jTogW+Qiq1zQ9dhiWn9QKWfYyBA4AObXa12O53b8H46ZZeoOIraPWXWHtxP2z/760o3pUjwlWGcrHAqgI4C5sVlK6QKF7+9jpWX1CfuLNbngXMrHNvCnEntN7NHvTG6bSoFh1vY67LPDJQMtLo0SfjySefVPfWVnzLHouvj+q4qe6+Z1kxL7mpfpudturpj3F02mkT8MUXH+Luu+/AO+98hq5dO+H22+/Fuq0ZDqvedt9bqmmxAr/jo+ex6JTOqFgwBwNEqNol7kLw3jc7szhgfHVI3KLiD0vewdYrDkPhZ3NQ6dokRVdMukJSy59EwKpFnRZcyxR1w4cfflivuLNbvqnFnZiXzARWVVf8Jl1MWBorTCYfTJkyGffddzdyc/OVEHEJZbmacKeHDForjHct9Frs2dNjuu+Zd0wDms503x9xxHA8//xTeP/9T1XvzIBe3XHBBVfgm19+dQh9dfd9U8D7ujvT+DCuvJyTckvU5lg88ru7n7qcp+tbahOQkZHhMWYYiYQZz8DM5YxIftczY6v9uftxUlBQgKioKNc3z3i6ryfqCl+FZJTc/16KkqU/oWNqLmKiXX+0HDD5u4H1mW0R1GUYgq/8D0IjI1WFpKwOSYeiot3qfeNMh7o40PT1l/z32Wef4fzzz8ezz76KkSNHyD317nBqZzP5O3+trS+KKIcoON6qr+vr8sFljfx+3XXXqx4YRhnDwmWKEmPip3odrbfjj9fiKXbP3377f+S+Ebj55n/IffR2xVyDb+LFPW6aMn09+XO/d2OEz1yP16ms1NdiWLh5DhPOrK9nXtP+ApVAcp+D55+fidTUbjjr4jPw9zHHqQYB/XKvA34m7nHsZF/jz3kd0RG1hJZrwTMzM7Fr1y45cmhopzTqcpGVtVvqh11KyLk5EBsmfFZeg47PS8dwxsfHS97gcEUoIiOTkJwcjbi4OMmvsWjfPhkJCe3UjnHp6W2RlpaKtm2T5bfcN0Pvn0EYPn43OD8Tpz8D/Tifid+be/5rURvdFK1djjW3nISIgBx0TNzhOmvxNuu3d0BhZQxSb5+NiG7d9Xp2sTiysrapGffMZHXh7XzVFPnPdMs3ZIc6WlO03BlH9cULaazyccYZZ+C448bjtNNOknBSJCqVuDJ8LP3sVWjIXv77Ez5WL3SMh4yMbapbecGCpVIxtxU/EkcR4cpi1b0+tSu9hj4vaez6xRONGT4Td1zWyDSjuHPuAoc3dEON4q1FnDB/ffzx53jiiZnYtGm5elvjhAlniyDGSlqzjCpvyp+nvFhf+ExYFi5ciCVLlmDNmjVYsWIFli5di1WrFiE2luLbGZ07t1d1QGpaGtqKCLdp0wZJSUlKtOmHBgC3TA4PD9/T6HBCwWKDpaioSM0bycvLU42BnTt3YseOHWo72K1bt6rGBB3fTpmXV4Xu/Tujb9euaq+H7t0HYODA/ujfv5frWXUDgpgj45mfmzJ968Nb/lqMwO9eNh8rrz1WWrBVSInJUecsjce2XW2xfVcQUm97HVEDBoiA6b3U27VLVxWJpwqEeDtf+Tr/OcW9ITvUcR18YwpoXRh/rET5Bj++ve/gg/uqsLLIM3xqaEU+N3b4eD9qECeF3XbbvyWf5GPq1NtV2CIi+JIbPV+DAu+ebxr6vMQfK1gnBxJ/1Y5iX4WS8jIl9LTgKfBm/N2waNESPPXUs5JPn8f55/8Dl15zCfr36CFxzTiutpid8e0MH++1bt06/PTTT/j111+V4+eOHTuqTa744qI+ffqofTF69uypRLupYGOAw1C6wbFUuQULlkkjZzWGDRum8v8hhxyB4cOHoksX7+3k6Y4/5r8WIfBF61dg+SWHIb1NAZLiS9V5S+OzIzsEW3emIPXfHyC8Rxfk5+aqrVb1zOADKzD+mP+cE+pGjTpSKkFtVdUl7qxMad2bimRvNEb5oIjSclq9YTOiQsOUyBKmEddiU+CZVo3dADEilJ+/Wy3X4/hxr149xJIL1Y0NNZO8thXf0Ocl/ljBOjnQ8Jmqmkc21Jj3dKNI95DQ+tWWfrVfvs3u2WdfwIsvPoGhQ0di4lUXYOzI0fI706Cqtm4pkIsXL8bXX3+NL774AtnZ2Tj88MOVo1ByO+qmFPJ9hcI/f/581TD58ccflUtISMDIkSMxYswYjBx2pBiESer5nY0eYo7NPf+1CIFfelZvxAVuQ6q13H1OhljyuyraI/6hD1BQnI9O7dtLmuhZ9J5E3tv5ylf5z322fFlZqcsaDqhT3ClYZoysscPnjvHHsdHhw4dj1dr1NV4yw3BS/Dl2yYq+sQWe1QzFh42hGTOekMp2Ph5//GEJhxF4vdOhe55p6PMSf6xgnXgrfIxL+uMxKCjEJerV3ffamjdLEquv98Ybb+KJJ55RefIqEfqzzz4PWVm78PHHc9QY/scff4yxY8dijIjfqFGj0L9/f/XblgQbMJw/8+mnn+KTT1iWT8QJJ/wNY08+Ce1TUiT/mZ4NLfiMPx59mb7EW/5qNpebIdy4JqR4h8/E/fcsIOkJINTNzd1Q/99HfQDs1q+Ix0VfAl1nS+VbpL83BP6W1zDX2Vs4fEVa4jaEl29D4dP3oaiwBEUlfJtY9Rr5OtqPzYq6lsKpZ6xH3J1C1VSw65LjkkFS+Zu00BWYOfomnOY+jJsrrrocv/zyldrqWFv2bHToBkBLyC+NjYlLNorYIGJeM8vsau6Sx6EPPezBeOVriz//fC7uvfdf6k1/Bx3UA926dRCL/VtMnDhRGl9lKq9PmjSpRYo74XNNnjxZNWb4vBdffB5+mPctenbugPHjJ+Ctt6p38jTDHs05XzZrgS/N2oItr81AuwTfT6i7d7jc/3Jg10TgyPbA1d/XFGzzd7qfTgEWbgYeX+r6oxdx3oefx33ke5HvkLQZ+Z/+Hyq3iNDvLkJxMV+hqS2I5l5h1yfuHPH0Z3EnZokc08GkhXt3pK/QoiSChADceuutmDbtYXVeW5oUelakdc9SttRGx6legcC4pdDXXGZHsdfL7LZv34H7738Il19+PuLjg0Xo75W8XIpXXpmNU089tU4rsKXC5+VzvzJ7thL7008fh6eeego9u3XBnXfejU2bNqseJ6fYN7e82awFfue7TyG5Q7xkYNeJJiA6BJgsjd3N+WJVb3eddCMtGoiLAZbvcp1oJK7oqxsb0xdjT2+BL2D8J6Snour7j1AoVnxxcQlKSqQVrESl+VbYdYk7Cz3FnYXHn8WdaIE/WMLOb7q4a3HnUX31Gfq+2oo/54ILsXHjJnz33Y97rCSnFW9Fft8wQq/jV1v0ao+KwCBs2LAVt912K/r06Srlc6fqmuYY+7nnnqt+Y9Hxx/hgvNC6z8vbqVZ83HzzDVi3bmMtq7655M9mnbq537+D+LBs1zf/JWO3hFUaAL0TXScaCTY2OkUC63KBfD004zOSIrch8M/PUFBUIq4URaUl6u1y2iprfpV1feLObnkWHH/YxKY+GO+6i76rfK6eeMUwVnIfejn6Orz6nlUIlhi87bZrMXXqdHXe3Yq37B8mTemKigrw73/fjQEDeqllaVxm9uijj6oZ8Ja6YfzMmDFDxVdkZDT69euJO6bcjtzcPMmf1dsDNwehDywvZ4B94xghns7vj2OXSvGm9djLvgKNDi1lWsztxUI/JMV1UpjyU/W4+PC3gFuGAzce7PpjC4TpUJW9WSqVYrESClG0u0Q+iyVfzold2nlKR1+6hua/999/X4k7l8Jxtjwn1OmeiVKUSQGvLOfEOT37nAWds+n1kARb+Z6v2RDnzfJhHLep7dKl05745z0Yzv0JqzfCZ+7NSWB/+/vJqot47txPVPj4uVzyS0mJxPN+5JnGiD9vOl+G79lnn1XjzWbd+AMPPKDWo1saDuPrwQcfUPGXnZ2FwYMH4sUX31Cz8wvFgOFQJBv9zLfMq/6Y/5q1BZ806BCxmlxffIwR8MSn9fj6m38F0hwrSDgebsbnSZ8EfWypMB3Cuw5SGb64RCppCrtrz/HmZJF99NFHGD9+/J517uZ97mbMvablTqvd/yx3A4WUAt+1Z5caloay8Cr1OHxTwPuycRQk+YKvk3Va8awktVOnLPsIxebKK6/E9OnT1SueZ82apZauWvYfxh/jko2madOm4qpJ12F3ToESUC47ZV5l+fJHaz6QEw185Tje4+n8/rqdC36XSsH1JD7GObltp7hDkl1/cMAu8weHAWLc15qE1xiwN2FDIdAlTu7p4/kyTIeiNb9DdEMyvAiHVNZSlasxQC7H8pR+vnZ7y38cm6S4v/32R2qHOgo3lx+xgRLICUtBwWrddmRkGEJCQhEWRhcin0M8Xm9fnbfLBzcq4QS7UAkf04DXN2mhw7xv9/NW+HhvOu6uduzYE5CSkixx/o66PvMMw2Xyzb7kHW/Hn7ddY4dv9erVGD2aa9wD1W5zXOpm8R6Mz+XL/0B4cABOOukkLFu5Rom6bidrS9Nf6jrjmq0Fz4gN79gFBQWuE34Khf/vPfUkvJdWuE42Et9sBb7brCf9sXHhS5gOAQldlSBCrF5aYxR5LZA6vfwZjrmfcMIJStxpubML2Tnm7u+z5T3B8XfuMtbUS+TqgnrOGfW33TYJDzxwjzpHa0iNcUqYrRXfcLjT3LHHHosJEybgiSeecJ21NAYzZz6FM888FaeePB7z5y9Ur9Hm2DyNHGPN+wvNVuBJzLDjkF3m/+NK9x6mx+jv/0mvXycU/E7PV4/Tc027+du+4Bzr5xK5d44H/tbJ9UcfsrMoDWVdDlNiqDO4f3ZZecKI+3vvfbpH3Nn11pzFnbB7nmvgmQ7aUdg5d6Dpw20aFwzL8BFHYsCAw/Hcc89L3LN7nkM7HKc34W4e+aipYEOOy73uuOMOXHfdda6zlsbk+usn4667b8V5550nVv1qFBQVi8DresOfRL7Z7mTHsaaSzEwsPbUT+vfj3tquP1h8jiQFliwJQOYlbyCscxfERIcjLiYKiYkxiImJVF2xZq9xb+erA81/TnHnbPnSUr7tipv01NyhTu+yVi3uLMykscPnzr7Ey2WXXab24L7wwjPlufQ2puz+1i8H4rNUv32rKcLHqoddmrTYFy78A3/727GSj1aq/ML45oYtnMPBcDb2TnvueNsfaazwHXnkkTj55JNFdK5X5yy+Y+rUB6XumIvZs1/zy508m60Fz4gLbpOCtuOuxuZc31jxr6+ptpb93TGsvmL9jq4IGnYpCmPjlEUGNflMjuL01o+1M7o/4C7u2nLn7PKaO9S5i7s/Pos7FE9a8D160IJ3nRQYdrGP1bGpn8OEgXlkwID+kganqO5lhp1pwT5Pa8XXz5133on2IireEPcLLrhgT5o4XYcOHdSWx+S3335T7zbgShMD3/rG/d35eyf8zvP8e314uq/zWnsLF//u9O+Ef6c/9994i5tuuhFpaSl46KHpfrmTZ7O14LksQY3zogorzxuOhKCVaBtfqP9o8RkZO9sgq7gTtl0xA3kFBWib0kYs+AjEx0chLi4aMVFhkpac5KULmLfz1f7mP8/iXq6WwtGm5YS6+sS9scNXFw29HstHp06d8N13PyM1NVk9G+GOZkG0kMW84PM0tCeCNIYFSgueVRCteL6C9JBDBooVvwqJiXwneDAqA6sQKvHP4RE9Ca9uGstCro+G+iPeDh9fl9qlSxf1ylQKl7egAB566KF47LHH1HJRJ04hfe6551yfav+GDQDO5v/ll1/2OovfXNNcjw0CXoP5t757GNx/bzD+r7rqKtx8883qHJcLci+AhoSroWzatEmF9Z13PldvbIyOjkRUlH5LIsuYM9/6Ov816zF4jidWSeFPv/0lbM8MRlZOuOsvFl+Qld0G23YEYfepdyJQBDBYMnKYVMR8dWwYZ0qz8pb0YTr5E3WJu/sOdc3RcjfwHdqsKNM7sBJzxr88h1jF/pImxrJiHFOsLrjgH5g+/Ukl+py4FFBhNr+xVrw7s2fPVsMw3hT3+qBgsjHB98wvWLBAWfMGiiWFl6L++++/qyO/74+I8p3xDz30kNpVznmPfYXr1wlXFhg4Zk44KdFbMP4nTrwEcz7+xO928mzWXfSqYpAKK6JrN6T96yNk7EjCtmzHbjOWRoOW++btQSg95xEUpqYiQCroULEOOX4aFhaGkHBawCKOftIdbKhP3NktzwJRPYbWPMWd1J5gR1GnNVFddvwFHR6Oxwfin/+cjJkzH8DmzVskbdhLLwIvf/OniUv+Apd18gUyvoKiSEv1kEMOwVlnnYXPP//c9RcNrWouJeP713l0t/73Bb5nnvnXiPT+YK4xZMiQPUMKbHDQ4j6QsHni9NMnYNGv3/ndTp7Ndic7OnYvqndyS10V1rsfUu5+BzuKE7Aus53r8SyNwZptXZFZkIKic59ETtsOKv6DpZKmKIaLBR/Ol1uIOPI800ePSXlOQ186viaS4s6lcNyhjhPquNue+w51FBs99svCeeA71DXUebN88N3e3bp1k0qGO8JV7yBnHP3s63N5u/w6HcPC6/N93ddcc6tYcE9IuLlTWBkqSkrUkd/pPP2erjHD5w3nzfAxHpYvX67e0e4r3nrrrT0NClrF8+bNqzW+bv7uy4ZHXbAn4KuvvsKcOXPUunXTsHXOH/AWTIe1a1f43U6ezbyLXrf8KS7sFg6VCi3+/k9Rkj4Ci1enIr/+uR2WfYTxuXhVKnYnDkHWpU8iXyz3wJBAhAVzA5gwREWEqE1guBkM04PpwvTxB2vxww8/VN1zznXuZkKd6ZbXlrt+QUdztdwN7ha8RqeFPz6SKcuM91tuuRYffPACVq5cLcJPUWT49e521oqv5tJLL0VcXJzrW+PC7nl2mRuhpFX85ZdfqoakgX7YNX/++eerI7/vL/n5+WrjHm9Aa92UA/ZCMGwH0vXvCabDaaedLQ3RcpSUiPOTnTyb9U52dFw+o3cTC1WTG6KT4xFz0/8h4tS7sW5bO7E206Uidz2tZb9g/DEe12xti7LRNyPz1MkIiAhDSGgoIsMjEBUdhfjYSETFRCAmLhpRUREqPby5y9uBOHZl/v3vf8dzz72mdqjjrG3qhPsOdRHyTKGhYRLupgm7N8sHJ6z16DFABJONFU720cMn7GXhc+3PszVG+XU6homT6aKjYzBlyhRMn/6ICje3BOb+A3prYL0rn6ffN3b4DtR5O3wzZ85Ebm6uq5Q2Li+88IJqMFJ4jVgyjR555BGXD6hXALNrnpPdeOT3/cV0zaenp6vj/kBL3X12vTe6/j3BOS+vvz5b7eQpbVK/2cmzWVvwRLf89asRGZERUjlTYCKOPRkxD3yF0m4nY9EiYOP2VEijyrIPML42Zqaq+MtvfyJyrnkNuwaNYKsQIcFirUfobVvjoiNU4ypCPjP+dYZmhdz0FrBzzH3kyBEuy732JjbNfczdCStf/Ra5bq6GjLZ6+UxcIuevmPzCNLjiqmvE2voav//+hwo/u/D10EnTjmn6C4yD3r17q9ngjQ274fkK1eOOO051exv69OmjrHpa6pydzs/33Xef+huP/L4/3eG83w033LBnPH9/YS+DexjYZU/r/UAaDp6YP38+unbtK/mTBc5/dvJs9gJPWClI41iJCl2kWGPRseGITElA4MQbEXnP1yhIG40/RKjWiSVa1Mh7wjd3GD/rxFpnfGUnj0LR1e9jxwkXoSwyEoG0dsXKiowKEcs9XG1kEyvWu4pvEXfdzU2x1OnSlOxtQl1LFHcDuze79dYCT/QzSTmR7/78fKYsc3LmbbfdhmnTHlbnWWE6XydrRR4YM2YM3n77bde3xoPd8GafeycUUEJL/ZZbbqkxa97Mqj/77LMb1B3+/PPPq7Sni4mJqbVEbm84f09Hy51hYAOIXfLmPMNDkT+QhoMnXn31dfQdOETVKzpvOofGmo5muw7ekz8+Csfp1LiqVOZ8nV9BQSEKOImqtAyVW7eh6rPXUfrrqwgLDUBKTAbsGxSr2bkT2J7XFiWlkiUOPh2FQ49Hflw8qgIDECoWe0iw3q41JFTEPZJd2iLq4XrMPTw8BFlZO9CuXXq94u7tfFWXP0/ivmXLViQktKlX3GkpksYOnye8VT44S3j48OFYvmo1AkQYOdeA6cG0Y+8Kn5vdxTzXFOEj9fmjlc5yXCppMWTQEbjnnjswcuRREm6zHp7pVV2ZG1rTOnju5LlpUyZ69Ojk9XXwln3DrIOf8cQbYsX7106eLcKCN7CwU1wYmRx3jBQRioyklRmB2OgohHaSQnDO1ai4/2uU/+1uZISMxO8LArFmazqyd7HN1brg8/K5V21JU/GwJXAUdo+6HVk3zcGOY89GYZtkJQjhIVrQI6MiVIaNi4uSDBytPkdLZmY863FeyVB+bLnTAmzpljvR3fPdESQNXtN+12LI9NHC7s/PqsPHybOBmDLlGjz44H/VeacVzwZAa4ZxlJ6eItbz7bj++htdZ/0TWtMmz7m7xpjR7msmTZosz3gtEuL9byfPFiXwhBGpJ7NokWfrKVosTd2VTGHiDmtRCPrLKJRe9ziC7vwOBYdNxuaAo/D7b8CKjWnIzApssd34fK5t8nx/bkhVz7u5aiTyD7kaRZM/xvYL/4Ocgw9FAF8jKqIeHibCHhUmwq7jTwt7lIrHaI67S+OJE6MYz6aF2lQZ2VBftzw1oaWLO6HAc4kctb1a4PUM+uYAw6nLcQBOGneKsug//PBTdaTTM+p146WODshWAePo9tv/iS1bMqUR9JDrrP/BrnaTVu7O2+vRfc3UBx/Ehg2ZOGXCGahSuhOk9gMJDpU6USyepjZ4WpzAk+oKgjuS6dmEYZFhiHVZoIkiVPEUezmGdUxD1V9PQsm1jyP3xo9RPPZf2N7mDKzM6IEFS5OU4GdkBYPLPZub1cDwMtwZWYlYsaEtFixJVM+1Pf4M5I28Hbtv/gKZE+/HzhFjUJSYoEQ9gt3v4WHSKApTW85yfF1tO+tqGKmGksQj45PxqoWyOs6bkr2NuTOzt3RxJxT4Hj0GqgrUFHGdPjyqr36PKb96LJ6vk9UCRiueznTjt2bYaONOkTNmzMD//d+T4Kx6i+9gfE+fNgOXX3Wj3+7kGXSX4PpcA91S1l169dFQf4SzI52zMD3hrfsaweFmJfQSLFYmv4eGsmKn6AchhAkRHCLCxlZXMApRhZCuPVF28BEoOWICggeORVl8PxSXpSJ7ZzC2rt6GrPxk5BZGq+0IK0p1GNg13ZQVJ6OiuFjiNx/YlRuMbdnJ2JIZia2bSpAbOgS7045C0cGno2z0xcg55hzs7n84ilPTURUqIi0ZMUyePUyEPSJCPou402Kndc5JdBxjV99F1CNF9OlHjeOKozjSyjKWuy/T12D8ffTRR3udUFdaWiSNFXaj1S3ujRW+vfkj3og/ijqXLo0c+Vd0795FvutzfN4AaZCxEtLdhvq5fR0+w978OcPXsUtXfPD+x/IcFWrmNv+kukCl8WJ+3tT5z9fxpxtvKgZUnh4y/DBMuuZ6OV+Oww8/TP3N0ng89NA03HvvQ7j9rgfRqUM7KVsiAlLnJCTESRqHIyJK6srwUGXF63pSp6ev819AWVmZx+aFtwb5nWzfvh0pKfVvJevt+xp/FCUWCsYHu/fK2WFbXqlFgJtplJYhI2M7YuJiUVZSgdIKikM5ytm1KwlXXlGBqvIqhG/ZiIDMjQjJXI1AcZU716MyexWCQuLU6y1DI8RKDKxEeOAusRQrJIEZRt0IoOMQjegLh2k8LlhiYkibhHlFr6nUL9WS5xAnx7KKIBSXJ6KsMhCiVygvKUNleR4C47sDSZ1QmdwLpSldgPSOyE9OQ4UkPCs/VoqBVZLRKGwMhNwpiI0c1cDRVm2oNHxCwqSxIwHmZKZgEf1AiSf+LYgz5FWFqi0rfc2aT9BU6UtxHz9+/F43scnJ2YXU1LaSDnVb7o0RPrI3f8Qb8cc8ThGcPfstdOvWUb7rZ+RrYp0vmTHP7uvwGRrij8+idwCrwvz5P2HixIlyXKjCrjYkknzpfJ6mrF+aIv4YP4GBwWoyYmlRKZYvX4mrr74Kgwf3x6xZ1ppvLC666GIsWLAIV1w1BelpqWpIk5t9cWfMju3bql5PLtUOjQiVOrVmN72v81+rEXjjj4XCKfS6BcTJOxUi8JmIS0xApYgDBaJEfssj9xQuE3/0U1JcJr+X30iCVbq6CivkOpF52QjK2QnkZiMgLwcBudsRuDsLgQU7EVCcjcriPFRJBkB5vhyp2jnqOkx2hocZgAnBzTwgjQVaWwiOQYBY2YHhsagMi0dZmFifCWJ5xySjIiYWiE9CeUyCmulOeA2Km6oApeAHiBhTzNm6C5RKMEiOvD4FnfmNlWOIWOisLJlBdaUpAq96OPR4Ep+Zv+dcBpNRTWZ1pynSl5N0GiLufLadO3ehbdvUOsWdNHb+qw9vxB//HhERgR05uaiSeNAxwKEJWhKMh+ohFeLr8Bka6o8Cr9YUS0k555xLxDodggsvvECeRa/oYG8M53/webKyspq8fqmPxog/lk09bFGhXnSSnZ2PO+64G3/88QtmzPifWktu8Q5cU3/lldfioIMG4YKLLtNlSepS1pfcybOirAgdOqSLBR+h9gdheXNa78TX+a9FLZPzRF3+jNBrR2GswtbMDLRNTpbfUMzFUSwoFC7B5/fiklL5zm5fWtbc11saB6oCEn+qoMnf+I2/E/GnoDKG5S7qHureHDtzRTv98GMQzXpPOMZv8vLyEB+rxVx1s/I/CYf6LJmInylwFPIQqfzkqgimsCsnn+UeFHAud5OEVxk0JDxUvuu/aVGX8Mpnjn3yuhUVZary5GS6ukTR4Ov0NWPuFHfuUKfFvWa3vHPMnQLQrl3bep/Dm+EjDfVHvBF/y5Ytw8knn4xfF/6BihI2RrX4qR4Z+Y37ZEhfh8/QUH8UeF1WgkS0Fkk6/xWLFv2pKlTVsyTPZaz4zMxMv6lfPNEY8Wd6JpnnWR+pl50UFOHdt9/HQw/dr965cP/9/9mvt7pZNNzI55ZbbsWnn36DiRMn4bARw1VPKOsU7njJnS9jIkNRXFqITp06qH1YmH6se1jOnPWNr/NfddOilcFIV5atq3JgxccXpPDd5aGhoWoSWbRrYh67XDjBLD4+WrmEhCgkxscgIVFcgv4eHxONONdMc/rnZDS66Bhu5RohGYAz0eWaUXoCG2f2czIbM0MUd4TjPu5ujufpR09643h4qPo9r8Pr8bq8vpr4RsdwqpUCkSo8DJcKn4RThdeEVZ5Bvaudywfl+ficfF4+t3p+NgbUKoTqOHJmUn/AKe7Vlnvd4q675ast15YKJ9j17NnTtUROn9OVjDnWrHD8HRNeNjb79++H44+fgP/+9yklakxzUTU5moZ6dWO4tWDih71ULKdmJ89x407EnDkfISg8Xu3adv0NN2AnN7qwNJhdu3apHfUYf5WVMXjsiecx4sjDmtVOnq1W4A0mEbSQsUWsxT5UHSn2WvDDuVRMXKxryVhsbIQSUS36LiFNiEFSQiwSRTz5PV5c4h5RZSMgRs3eV59djQUlyDwnv6HoGqe/65nrxq+6J/3yOuqe0tBQ1xeXKPeS32gh12K+5z4STv6WDQC1kkCewQi63oSBoq6fW4u67vrzhwzqCeds+YaLu38+i7cxa+CpdVr0mMc5Vtu8n93kSb5O9v/+726pfHNU75nqQavSM+pbo8ATXX9xGIY9NK6dPEV0UlISMHkSX9zzDTK35aNNmza47LIrsHTpUtcvLZ5g/FxyyWVISkrC+vU5mPXs+zjrnHOlzmxeO3kSCYbFYARNi70WBTqKBQWQs+/1CzH4MpKwPaIfJ603JrS23iO0SCsrmkvMRGwpziK6iSLCSnzjaFHrXgCnS3I49V0aC6rBoL5T2CPV73kdXo/X5fXVkj8JA++rRNzVg6DCJeFjOBlehtusW+fz8LnMM5pnNnHgr3heCkdnxZ2YJXJm6IePbdK0uUaBCT/TsnPnTrjooqsxffqTStArKsrVG7vMe7etyOuhGFqWUVLuWWd079UVt/zzFsz9+EdUBcVi9OgTMHLkKLz44outNr7cYTwwPo4+ehRGjfqb5KcoPP/SR7jgoouR0jZZC7vErd7wSww91q/K2OKEunBERYRL/vQvcSdW4OvAVCpG+Izg63FqvdzOKfo1hF9a0BTVCHafR4UhVlrTzAjsxlGb7aiGAI8UZS3I5rPT6caC+aw3l9FH3XjgdXn9CDnS6de00irXQu4Uc4aX4VazqR2CTmee1d+pS9w5oc6Ku66k+JrYHj26u85o+Px8yUxzSWdP6LDr5X604p9++kFs3LhJWe4Ud8kB8rl171HPOJLirMo5yz13mKT4mJ08u3btgH9ccRnemfMxjj/+DDz77BviNxgTJpyON998c894bmuBz8vnPvXU01Q8zHr+NRx1zCl45rnXMeH0M5Cc0jx38nRiBb6BmMpRF6Kaoq+FXztl7bvEP9Q1pq/FlkvPqrv82RAwVrV+Pan+7u5q+jW/19fjdc2YuRFx3t+ExYTNGV7nczQnPIs7t5/Vs+Vbu7gbKPDdunUWodPfm2t6e4LPwDzMruZJk6Zg2rSnJB/o7WtF5ZW4G9daMXFkRJ51hKedPI89fhTum/og5sz5ThqEh+KRR2Ypv6P++lf897//xeLFi11XbFnwuaZPn45jxoxRz/vww8+gY9fBeGH2x7jlxjsw/LDmvZOnO612Fr0nvBk+zv4lTn+eonp/w+cpI/FcS4k/p7+6xJ3d8mUV5aqVyt6LvYl7S89/2dnZ6qUXmTt2oaSwSPxWSjzobkM9NljdyDP4MnxO9tefWpZaUaU2jenevasI1Cfo3buXPFuQPP9OpKWlq7Tnc3qiscNXH76OP8YVe7jYwwEpE1wNVFLCfQXKUVxciqLSMvUSrpISKUtyfsPmTVi/ZhPmL/gRixfMV/Mchg0bhKOOGoHDDjsMQ4cOVUswmwtFRUXqNa7z5v2Eb775Dj//vABJSQkYMGAo+gwYjP59e4tQR6stZlkk1EoiVXeIocByIwKvjDYxqKLCw9W6di4n5sx5rkbiuxLo12wD7Y+rOKzAO7Dhq01Th++TTz6pU9zZLV8pFjzFKyIirF5xJy09/n7++Wf1aszvfvxpj8DTwnC+RY7x0pwFntWVFq5KPP74o/j2298xa9ZjKt21wKfJc9Y9DtrY4auPpog/s8yQG+IooYeOu1IRdm7mVV5SgeLSUhH4cmRs3y6CFyv+pHyVVmBrxnas+nMlli37A3+uXYLFK5eia3Ky2khpwICD0a9fH/Tq1Uut2mhK4aeQc+4JX2u7ZMlSLFz4B5YvX4p1O3agX4+B6NmjN3r17Ivu3bohJTlJCbra4bQqQCx1afwaUXftcsryovYFCZO/id9gOUa6elBZhtjxTf8mj5l85o/1ixV4BzZ8tWnK8H344Yf4+9//Xqe4s1uerWdab6Gh3FiibnEnLT3+OEmIvR3PPfe82vSEFTqHeKq3Z65t2foyfE4OxJ+x4rn5VJ9ePfDUUy9gyJBBYnHuVBuN6IaeZyveF+Gri6aMPzbwdOOI8adXHkDyBxsA3MmTAr91awZi4hJQXlqud/KUY5k0Equk3HEnzwr5vGbdRmxevwEbt66T43ps2bJZnmu1iusOHbqgffu2aNe+Pdqlt5NnTVXDKZyNHh8fj9jYWGUxszEQLhYxw+QO1/IXFxcr0WYvDff+yMnJUUv8dohgb9uWqe65ZcsWbN68DRs3rlXPlZraDe3atUd6xy4Sjs7o3KmjhCFd9VxIjUClE1mW+kHCybwhMaG2kQ0O4T4gFHfOVaKoS10icarEXITd7BcSzBnyYrFzNYq7sBv8sX4JyMjI8CjwLETEWUj4QM72AL8zQYjx5+7HSUFBAaKiolzfPOPpvp6w4fNMSwnfZ599hvPOO0/E6jWMHDlCfqe7GtnlyCvw1xR2CY5ci3MdzCQXts5bZ/xNnTpVXfvaa69TXbGsyDmpUu/4pgWe9zf4OnxODiT++Fs6/unNN1/Du+9+LiL/qAhDEeLiYpRf9urwJ/TvxBfh8+f4I/ytnpDII/3rjb3y8nYjRISXXfmc28ItcFV543fxSz9sYMsP1X3YIVAl1+JOnrm7cpGVt0uOOdiVnYfs7B3IzctG6e48aWzmqWvnlhagPL9QwiSfc7l/QZ4KD6/FsJLAwFhpCDD9YhDMce9QjnlHIzIyRhoF0UhMbCNpnISYhBgkJSbI3+IRlxCnfitPLI6bi4muc6suEWPu5MlNwETndRxwJ09ONJaPtM7V9s00EFQPlwg6xV7O0w/PsyFJUWcDOTCQn6vj0R1/rF+sBe/Ahq82TRE+M+bekB3qWEHRcue4mKkk6qKlx98ZZ5yB448/BRMmnKgseBZtzk3QXfR0ta0OX4bPyYH60yIFJUKHDj4S99xzpxqL506FfN6AADb69PM6n9lX4fOEP8Uf80a1q97JM7VNsohGa93JU+eZ5rKTJ9mbv/qbERaLj3GKu93EpuGwwtSb3HRVFaYTLpFraTC9abSw2/T226/DAw9MU+eV4Ig4mQaAxTM6/vSkS5YfNZlMypOesxHaSnfyrF6VxPhgvJg4aq71ixV4i9/gnC1vxX3f4RK57r31LnaE8UILKlC+t7Q40s+mrayTxp2iPn/xxdcuYaey6+5nY6VaPFMdjxQyjtVrseey2+a+k6feCExcC9vJc1+wAm/xCzwvhaOz4t4QNm3aJBVYrFRekSJo7PbUolYdPS3TnFWihADcdtskPPLIY+ocrXg6a8XvGzXFXpcvOpY7CiCHefZY+GH+v5On3gisZe3kua9Ygbc0OXWJu92hruHoHex6iNjVtFYZRS2x4iLmmWjFHzPmWKSmpuK1115Twq4nH1krfn+pjlstfHQsc81lJ0+9pK1l7eS5P1iBtzQpnsXd7lC3r+g96HsoIdNd1FrcW0M8SR2trPjrrrsCDzzwb3VOj8WLJa8md6lTlgPAiCCdUxxZFrXwa6esfZf4N+VOniZcdM7wOp+jNWAF3tJk1CXu7JZnnczMacW9YegJdgNF4PlNF2tdkWmhb6mYyppW/KBBB2Pw4L/gmWeedTV0KhAgzlrxjYOJex3/1SJqnFNkjeXv7nT5rt8Zv/o6xtW8vqf7O8PXWrECb2kS6hN3dsszY1a/etGKe31QuJwz6I2QMaoqA1p2F6RB6nNxAepFNPfddzeKi7nRj7XimwqT55zOkwjvr/N0fUttAsrKyjw2a8u9vF6PbN++HSkpKa5vnvH2fW34PNOU4fvoo48wfvx4t6VweszdWO5cOduQHepaY/wR5/Uo6Nw+9LXX3kW3bp1ccVkufgIRFhmhNu5o6fHHOMjI2I7ExERceeVktGnTDrfeepWIAbtu9T4AtPw4Ns948HX4SEvNf56w4fOMr8NnLXiLT2mIuGvLnTuRWcu9IVC01qxZg269uuyx3gnjLKCyqtXEndlp7JZbJmHGjHuwY0e26tFQG7eoCXfVvRsWS2vA7mTnwIavNt4Mn+mW9+YOda0p/oin6y1btgzjxo3DgkVLUME3hEmDiRPtOOkoLCxc/OruUU/x2JLiLyMjQyyotipPXX/9FBH2YPznP7eqBiLzFK14kXsVF5ygVR+NEb6Wmv88YcPnGV+Hz1rwFp/gFHe7iY13MTPouUTOvb2urHiXa+no59QNQ47FP/fcdGzYsFGNxbPBaMbirRVvaS1Ygbc0Os4JdVbcvY+eYMcd7MxscYodu6xbX/FmnuFz8w1m1113G6ZNe0rFB7evFaVX3fUmniyWlo4VeEuj4nm2PJ0Vd2+hLfiBykrli0MYddqa1ULfmnBa8bfcci0++eRlLF/+p8QNN7/hy0+sFW9pPViBtzQadYm73aHOe1CotMDrPeiNcDEKK5TYtb745POy84LzD6ZMmYIHH/yfihuzha224mu+VtNiaYlYgbc0Cp7F3e5Q1xisXr0a3bp1ViJGjKjzv9aIeX7mqUuv+AcWLfoR8+f/5rLiuUyOVrzuqrdYWjJW4C1epy5xZ7c8xZ2Zzoq7d8jJycHu3buR3iFNvlULlhI5tUSudYoYn59WvH4RzW1ixf9XnTcWvLXiLa0BK/AWr1KfuLNbnhnO7lDnPcwMegqVcUrcHa41Yp6d+evMc85DVlYWvv76OxU/FHe+iEaLvJ1wZ2m52J3sHNjw1WZfwvfKK6/gvPPO8+kOdS0p/vYnfC+99JLaPOjpp59FaWm5Ei3OIuemL1z3HR4eor7XRUuOPyPe3K723Xffwv/+N0sanq+r+IiICFUNTDY2PeVBX4TPE/4Uf56w4asbfwyfteAtXuHDDz/cq7jbHeq8D18TW71EznVSGlHGgm3NmDjgdrUnnjxe8lsQ5s79VI2/ayter4+3VrylpWJ3snNgw1ebhvgz3fLPPfcazjhjfK1ueeeEOm/vUNdQf6Qlpu8ZZ5yB448/BRMmnCgWvN7BrvpNW8GtfidAI9604j///BPccMPd+OabTyQv8pWjbGh6tuJ9FT53/C3+3LHhqxt/DJ+14C0HhHPMfeTIEfWKu7XcvQuFS29y4/4WuQC1RM5S04ofOfqvaN++HV599TXVEOKMeo7FWyve0lKxAm/Zb/Y2oc6Ke+Ojuuh76zXwRAtaoFoiZ+O5GjOjnlvYPvjgveqcfZ2spaVjBd6yX3gSd463W3H3HZs2bUJsbCxioiJF4PWMcMIo5hI5WqeWmlb8kCGDMXTo0Zg162kVX8y3AeKsFW9piViBt+wzdVnu3O/birvvMEvk+JIZgxazalGzcV4NrXjOoL/llutw//3/QmFhcS0r3gq8pSVhBd6yT9TXLU970Yq772D3vFkDzzFlwo1trLDXxsQJrfjevQ/CSSedhf/+ly+i4br4cvUiGmvFW1oaVuAtDWZvY+7MTFbcfYeeYDdQBInfdFHWQsaj+mpxQ43FS76cMmUy/u//7kJW1i5luXPZXLka5rC721laDlbgLQ2iIRPquDzLirtvoAjVNYO+kpPslNDbuHdi4oTd9B06dMDll1+PadMeV3GnZtTb18laWhh2JzsHNny1oT/ulDZ+/Pi9bmKTk7MLqalt6xX3xggf8ef4I94OH9dv9+nTB6+99i66deuk0oOoNfChIQgQs5RpwPXe9dEa44/DGQEBQdi5cyd69OiGb7/9GZ07d9RxFxaCEGkgVVVVqIZAU4SP+HP8ERu+2vhj+KwFb6mXhoq73aHOt7Bgr1mzBt16dalhbSortVKPw1s8Y6z4+PgE/POfd2H69CddVrzEo+Rra8VbWgp2JzsHNnw1Md3yFPexY0d77JZ3jrnzhR7t2rWtV1y8HS8N9UdaUvqye37cuHFYsGgJKkrLVKOLosWGlr6X+e49C74lxR/jhoJeVFSEbt26SB6fi759e6v4Cw01Oy4GyOdQ5b8uWmv82fDVxh/DZy14i0ec4l5tue9tExttHVkaH+cSOWcbndGvrHiXs3iGcSMaj7CwcNx+++148MH/STzqzW+0oxVvJ9xZmjdW4C21cE6oa7i4W0HxJXqCnXnJDB1Fq0rSw6ZBQzANIMbXxZddgaVLf8b8+b9JXtdb2DIu+dkKvKU5YwXeUgPPs+XprLj7E9qCHyjpQ3Fn/Dstd5cnS71ogddb2E6ZMgVTp05X540Fb614S3PHCrxlD3WJOyfUWXH3Hyg4WuD1HvRGgJgOYnu6RN6myd4w8cR8fMbZ56pZ9V9++Y3LiucUUtNVbyfcWZonVuAtCs/izu1n9Wx5K+7+hX4PPGfQ6+9GrGx67BuML1rxwQHc/ObaGlY8hV47dcpiaXZYgbfUKe7sljdL4ay4+w85OTkoLCxEWnvO2HVal5ImaomctTYbimkUcSz+xJPHq1nzc+Z8qOJUW/H2dbKW5osV+FZOfeLObnlmEL3O3Yq7v6Ct9+oJdsSIlBEsy75RPRZ/LR544CF1bs+MeteLaCyW5oYV+FbMhx9+WK+4s1vebmLjf5glcoGuV8RS47Ww6yOxadRwdNzpBtLRo8agU6dOeOWVV1Xcqhn1Ui6sFW9pjgRkZGR4zLEceyLcEMLAQuDM4Pyu9nAWjD93P04KCgoQFRXl+uYZT/f1hA2fZxoavs8++wznnXcennvuNYwcOUJ+p3fw4qQ6XoG/prBLcORaevMUrnPndW38NW34pk6dqq5z7bXXqcYY78GGFzdoCQzU6WSw8VeTusLHa9LRYl+w4A9cfvnF+OKLb5U/1cAVFyJxGxjIIZDqRpSNP8/Y8HnG1+GzO9k5aC3hM93yDdmhTu/oFYiwsBCVeerDpm9tGiN8Z511Fv72twmYMOFElJbSuqxUIkSBDwqiqy74Nv5qUt/1WBVS4Dmx9JxzLsbgwQNw2WWXit/APY2n4OCawyA2/jxjw+cZX4ev/maEpcXhFHe7iU3zgyKkx+BrvkWOcImc5cCgIURr6NZbJ+OBB+4Rq6zIJfrVY/F12EQWi99hBb4V4ZxQZ8W9+bJ69Wp0763XwBNtUdpXxB4oJv44Ft+rV0+cfPI5jhfRiKVUYcfiLc0LK/CtBM+z5emsuDcnNm3ahNjYWMRERYrI6El2hMnEJXJQMygsBwKteOb/W2+dhEceuRuZmTuU5c45KuUqzuseh7VY/Akr8K2AusTd7lDX/DBL5JwvmdGWZ7UFatNt/zHxx276du3a4corbxQr/gllubOrnla83d3O0lywAt/C8Szudoe65ornNfDSSLPC7jV0XOrJpf/852TMnv0I1q/fIMKuxd2OxVuaC1bgWzB1iTu75SnuTHwr7s0LCjxfMqO1RRdfLUg8qq8WL8A4pRUfHx+P22+/Bw899ISKc23FmxfRWCve4t9YgW+h1Cfu7JZnwtsd6poXFBMKfNeuNWfQM80q7SQ7r6LjUlvxV199Ob788g0sWbJUypHed0C/TtZa8Rb/JqCsrMxjDi1vhHWC27dvR0pKiuubZ7x936YKn8SrOjr9uVcGqrIor5A/iD8RWrEHlNVQF87wearIeY7h4w51p5xyittSOD3mbix33lSvnQ6rV9ybKv687Y809/Ax//Tp0wezZ7+FXr26qjQlXKcdFBqCEMk7Jh1t/HlmX+7L+GZ55BK5WbOexGefzcMzzzyuzul18WxUSXmSAhUSEuL6Zd3Y8lEbGz7PeMufFXgH+xo+p2AX5BRhd24RCvMKUbi7GPk5hSjdXYriwhKUFJWhrLgMpaVlKC+tRCXH8sr5EguaALriVuKqKguppKXCDgwKQnAoKxKpuMNDEBoRioCgSsQnxSIyNgIR0eGIjotCZFyEfA+X3+trfPDBB3vEfcyYv8i1K+W+5apL0Yg7LXf6p+UeFhaqKqi6GhatOX3roynCx0Yjd8rKys5BUBVFnCmqdxwMkvyie2OqG3rExl9N9vW+LBfsli+TcjSofz88/PCTGDZsiPxeizyLMHcOpMB7aiA7seWjNjZ8nvGWP7uTnYP6wmeiafvmncjelovcHbuxKzMXeXLM31Ug4huAqJhIEd4wJcZh4aEIpTDThYWIWAcjhDuNibhqAdddqu7wPpUc45PKm9Z9mYhzubjSEmkgSCOBDYXiwlKUFJegqKAUhfmFqJIKKCYxEiu2LsWd/70ZM6Y9ifGnjENMmxgt7lI5cRYwK/+QIGkwhASq7xR6VlIMR12VU2tJX4M/h2/p0qUYN24cfl34BwIoOmLBM92Yhrw+d1nTVmXjCHxrTF82nNgQpxX/8ssv4oUX3sZbb72s4pkNK5ZXNqxMOaoPWz5qY8PnGW/5swLvwBk+Rkt+9m5krt+JbRt2YvvGndiZkYNIsZxjk6IRFRcpFnSkOkbFRirRbirYGCjIK0RBbiG+/OYL9Ok8AHm7dov4FyMhNQ6JbeOQ0C4OyR0TkdAmVlVGtEq4oYezYvJUQbXU9K0Lfw7fu+++i5kzZ+L1199Q6UcLnkITGsp3BUgj0iXwxMafZ/bnvhR4WuqlFRUYMfwY/POfN2PUqL8ogWeRYU9YuDTkWX7qE3lbPmpjw+cZb/kLuktwfa6B6j4WTIVRFw31R3bv3o3o6GjXN894+777Er5dO7KxY0MuFn37J+Z9sBCLvluput5phad3SUGf4T3QpW97tO2cjKS28YhJiEKYWOsUyqaE92c4GJ4BB/dHWucUdO7dHl37d0R0bARKikqRuW4nln6/Cmt+34jszFzJGBWIiAlDcEiINGZ4lZrtPFNRtaT0be7hmzNnjirIo0bx/QF6kpfuHqbQBMo9qgXGxp9n9ve+KlqrAqQCj8f99/8P5557Fs/ypDryHQDO+PeELR+1seHzjLf87T3ULRxavkt+XIX3n/wKcx/9XsR9pURWEAYe2RujzxiBQUf3Rdd+HcUKjpdC3Lyii+FluLv174TBx/TDmDNH4OC/9EFgUAiW/7gGr/xnLj56+lt5/pXIF+tf7bctliHzDDMOezHq6OCxNAH6NbEDXWlDMdENMe1cnixex8QxBXzsiX9HREQE3n13rkoHzm2hyNstbC3+SKsV+FUL1mPurG/w0r3vY/2SLUjp0AZjLzgag0f1Q+c+7ZU13BLhc3Xt2x5DxwxQz5vasQ02Lc/Aaw98iE+e/Rarfl+ruiKrxV5PBrQVV9PC+KfAd+/ebc93QuHhS2aMCFkaDxpJQRLXU6Zci6lTdccny4hz8xuLxZ9oVQK/O6cQP3/4B56/6x3V/Z6YEofjz/sLBhxxENI6JyOgibvafQ2fl8/N3grGQ5v0RCyZtwav3fc+5n+yCLk788B1806xt0LfdOhd7LpIGujvRtStsDc+Jp5pxf/lmNHo0qU/Xn75ZVUeKPABlfZFNBb/o1UIfN7OAnz71q948d/vIXt7PoaI9Tp09AC0695WSq7LU2tH4qFdt1QMGzNQxU3+jt14/cGP8PP7C5C7I6+WVW8rMd+Sk5ODwsJCtG2X6iYiIjwiLFz2aGl8jBV/++034r77/qXSgcKuyoa14i1+RosW+LKScvwkFvtrD36I0qIy/PXsI9Dn0O4ttvvdWzB++gzroeKrQiqud//vc8z/YAGKC4pF4LmPvRV6X6PH33uIhFSLu7EorRXvG5xW/CGHDMIRRxyHmTNnuUS+Qr2IRk9+tOXC4h+02I1uVv++AfM/XYw2aYnofnBnNcvcsn9wFv6K39diV0YO+h/dC10HdkBASBCCpX3IiXxmk52srCy7EYUb3grfSy+9hI8++ghPPjlT7W2gZ83rJXKcwe1cIkds/HnmQO9L4aZjI/fPP//EyJFHYf78RUhMjBe/kiahwQhRaaMbBISCz+1tTfi4tr6uWc/u9/XUcOO55hp/7tjwecZb/lqcwHNzmO/f/h3bNuxA76Hd0SY9wfUXy4GyY2s2lv28Cont4jH0+H7SaApTFRU3zGF9RYFPTU11+faMt/OVv+U/d7wVvjvvvFMdb7jhJtcGN3pZXFhYiBIMblFrBb5xwue0xjdv3qzcxo07sDVnK9568UWUlASgQ4d2yM/fqZZK7dq1S86VqJ0Hs7OzlbhT5A1MJ6ZZQkICuANeWFgYoqKSJOyxiIuLQ3R0Etq1a4M2bTqqddXt26fLd7oUSXfdmHaGz9kIcG8Q+EP81YcNn2e85a9FbXTD9d1fvPwTouMjVRezpXFYPG+F2r1v2EkDVQNKb5YTJAK/Denp6bUqGSfezlf+lP884a3wnX766Rg79lSMG3e8WPAVSiT0uwSClQXv/i4BG3+e2dv1jIW+cOFCLFmyBGvWrMGKFSuwdOlarFq1CLGxsSK4ndGpUzuV1+lYqbdp0wZJSUnq7XP0w/XQXE4XHh6uxNwdin5xcTGKiopUoyAvL0/Ns9i5cyd27NihxGLr1q3YsmWLchs2bBA/VejevzP6du2qXhncvfsADBzYH/3791Jpb8SfmCOfl59t+taktYSvxQj89k078fGz36FLvw7odFA7dc7SeKxdugnrxR02bhBSOiarnbyysnYoS4OGpFNsnHg7X/lL/qsLb4SPRfSQQw7Bo4/OUpW5U+D5kplQlwXvjHMbf55xvx7jdt26dfjpp5/w66+/KsfPHTt2xKBBg9C3b1/1gp9evXqhZ8+eSrSbCjYGOBdDNziWKrdgwTJs2rQaw4YNw+DBgyWfHIHhw4eiS5f2Kj9UVJTtEXiTP+oqmy0xfeuitYSvRQh8zvY8vPfEl+gxsBPa90hT5y2Nz6ZVGVi5YB2OOGUwEtrFIz83F2lpaSI81S89ccfb+cof8l99eCN8LKIxMTFYs3ELwkXM2UVPq5DxHCQWPAXePb5t/HmG12MX+tdff41vvvkGX3zxhepGP/zww5WjUA4dOrRJhXxfofDPnz9fNUx+/PFH5dj9P3LkSIwYMwYjhx2J1NQklT+MlW/yijPPtJT0JTZ8mupBu2bMl6/+jC592ltx9zEdJL47926H3z9Zht15xSgsKZUMVyECVA4OOdbRdrTsI5s2bVJjszFRkTVmaLNu5hI5qPcEWuqD3dxPPfUUTjzxRDVP5Pnnn1erEt544w1kZmbinXfewY033oijjjqqWYk7YXgZ7ptuukm9r4Dd+2+++abqcZg9cyY6dEiV5x6HJ56YiQ0Z26WMmlUwdsfKlk6zF3huXBMSFqJ2n2tsFi9dhH7De6JT37QabsTIodielYnPv/5UfZ/8z2tcv9Dwb/Rj/NV1ncefnuH6Rd3w2safp+vwO8/7Cm6DGxoRgj9/WIWiwhIUichzfJFCbysO72CWyAWpJXL6nLbCzLFm97ylmldeeQUnn3wyOnXqpKz2iRMnqslvc+fOxaRJk9C/f3+Xz5YFn2vy5Mn4+OOP1fNefPF5+GHet+jZuQPGj5+At956w+5Y2Qpo1gJfkFuEBV8tQ69DurjOND5xEXH44PVPsGFpxh73w1fzkZKsZ4+3T2mP5cuXKiE3LFr6hzrGxseqI3G/zvyvF2LOB2/vszi7X+d/9z+KMyee6lOR73toD6xfuBkFO/gu/CIUF5dJRVGhKg5bYRw4e9bAOxpMVtjrhj0eXHXAcfRnnnkGp5xyihI57jx36qmnNqi7tSXB5+VzvzJ7toqH008fp3ozenbrIvF0t8TXZjnPpXx2f4uWRrMW+JW/rUMnsdzDo8JcZ5qe9p3ao0P7TntEnXz46QcYN/5U1zfPREVFIzYuFplZ21xn9o/RR/8Vfz3mODw7e5brTOPD+G/fMw071nO3tRIR+BKUlIh1oAQpwFYWB4gW+IMlHvlNC7oeS+VRfbUI69evxzXXXKOEnePs3Dfgs88+w7nnnmsbQi4YD4wPzj2gdZ+XtxNdu3bCDTdch40bt9odK1sYzVrgN63YhtQOSa5v/kPPnr2UqBNa8lu2bsLB/Qep73Wxdt0abN6wGanJ9U/SaAhj/3qCumdBYYHrTOPD1+kW7ChAQVGJuFIUlZagsqxcKgpbSRwIjDsKfDexthiNJi5ZUVcGcJMha8Vzmdltt92Gww47DJGRkWqp2SOPPKJmwFvqhvEzY8YMtSwvMjIKRxxxKO6Ycjtyc/Ok3NodK1sCgZyF5yvHjOLp/P44tYlEZh7i2lR3e/uC3KJcnHDasTXGvd3H3I8YfuSebnpa8u3SO9QSbvfr8PPdd96L/n0HuHw0L+LaxKBktwh7UbHaM71od4l8Fku+vEylFZ2ndPSl82b+awxXV/j4kpkuXTrtiUPOcTDO3W9jOn+MP3bB9+vXT81g5rrx+++/H4mJia5caWkIXL8/deoDKv6ys7MwePBAvPjiG2p2fqE01Dnkxt0TS0tLm7QcN9fy25SuWVvw3QZ0QEiob8fTPI3BT//P/7n+qunauZvqps/cnqks+R7dern+Uo2n67B73RusWrPK9cl3MB2SOyepiqCkRByFvbICAZLp2U1v2T9YSLnZSrdetOCrrShluauXzLTOuOVOcVdeeSWmT5+Op59+GrNmzVJLNC37D+OPcfnss89i2rSpuGrSddidU6DyoHNljLXmmw+BnIDhK6e3NfX8t/1xaxZtQpkIir/B8fRBBw/GG+++pix5WvS+ZNWaFarXICrSdy/VKZd0yFy3A1y1VcFVWxWsBLh9KjdhCfKYfr523s5/3naewrd27Vo1wS4k2GxJWx2X3OaU+587/Tem85f4Y4/GmDFjVHi429yoUaNUHrR4B8bn8uV/IDw4ACeddBKWrVyjRF23JfU++k1Rpptj+W1q12wteGa4+JRY9SpTf6RHtx54/uVn1MS5rl26uc42Plyq9+mXH+PCsy92nfENOTvy1WQ7vk0LVXpGLkVevyO7euzYsm/UXCJXHYesbM34e2uy4rmhy3HHHYfTTjsNTzzxhOuspTGYOfMpnHnmqTj15PES7wtRWMglsOz6Zbm2Zbo50Ky76Nv1SEXmxp2ub77B0xi8p7XnA/oOVEvmjj5ydKNa0u7hmXTLVXjl6Td9Ppa/dV0mwhJDURVghMh25XkDWqvcd5xxaRz1nC+aaW1wi1Yu97rjjjvUGnZL43P99ZNx19234rzzzhOrfrWaREuRt5tZNQ+a7Va1nPCxO7sQrz/0EY457XC/WirX2iguKMGXr89D4sGJiEttg5jocMTFRCExMQYxMZEIDWVXsn7bmbfzVVPlP1+F7+KLL8agQSNw4YVnqj3oOcmJr+iNigqX+Kz9FjlDS4y/I488Um1ac/3116tzFt8xdeqDeO+9uXjhhdmIjIlATGSkpIneLpnZz70XqSXmv73hj+FrthY8M1REbAT6H9ELf/6+xnW2+WN2w/Pk3Gfr+wtLfl6JlB5tUBmiX2GKAI7RyVGJD7uQa1cAlr3DtrfuoqcFX20tMSor0Lq657lxTfv27esV999++029yc3EC/di5xI6J/zO8xdccIHrjIa/7dChgzo2lIyMDPUbcz863t9cw9Pf6Zzh8nRffuZ1GEbz2fl75z3ef//9Gtczz+fp3AMPPLDnevzshPdyP+fkpptuRFpaCqZPfxiFBUV2x8pmQrPuomdmH3xsXxQXlmLd0k2us80bzqR3zqx3OvfZ+v7AmiUbUbC7CGEdYlClJpkEITQkCMGhwQj28BIUy76hu+j1GnjirOhbC9xH/p577hErcqrrTG0oXBSx2bNn7xEcbk/LveeN0JGvvvpKHfn6VQqwN5gzZ86ee06ZMgU33HBDjXs6/56fn6/Ocf25J5zP8dxzz6lzfA8B33JnrsG/0Q/98nW13NTHXJdHfqfjkIbz3OjRo9V38uijj+7z8//3v9Pw+OMPYeP6DLtjZTOhmQu8ZKzAIBx+0iAl8JtWbnX9xeILNq7YinWLNyJRrPfAIBF3UfMwEfawMHEhIQgRgWf6MJ0s+w7fcsY9BdLas9uvuhJVAq+WyLWOeKWgXXbZZcrSrQuu4aYQDhkyxHUGuPrqq7F69eo9QkfeeusttUc7xf+FF15wnfUeFFGn4LrD98RzkuDy5ctdZ6qh4HIIgs/Lhkld8G/jx49Xm/nwNbZc988GAOGRr7ml+/zzz9U5xk2XLl2UX8LPnNdx6623qu8NhfE/ceIleOPd9+yOlc2EZt1FTyfygYS2cTj8lMFYtXA91i7d7PJhaUzWiuW+8ve1SBnQFoHRwQgQgaflzvH28PBQhIRzGVeQSp/WZnF6C1rv7nvQExOfrSVOP/nkE7WffH0YYaeIme5rvh+d+9LzSCigtNzpl+I/b968Gpa2N6CoUlzrWpPP+3GL2N69e7vOaCjChx56KK666qp6xd3A+OCzEDYYli1bpj7zyGvz76YRwTDFx8erxoVh2rRpWLBgwZ64aiinnXYqfv/5a7tjZTOh2XfRc8JRYEgwUjsmY4SI/NZ12/DHD3+6fFgagz++W46NqzLQdlAagmJDAUmDsOBghIaFICoiDJHhYYgIDVPpwvSx4r5/cPydllZgVXXlqYVdH833lgyf+88//1TvaK8PCirFnF3kFHDGi3OsmtC6peVOv8aadVr3+wvXiut0CVBd3/fdd5/rLxrn3/lef4bh5ptvdv0VyM3NVX42b94/46RPnz6q0cAGDBst7EVgHJhhCAq9ewOJcXDWWWfVGk7YG0yH1auXo7S0TG02VFbMGfUVqHD1MFmR9y8CJAN4TBFuu0ecM3SZQZ0JyO+caEGMP3c/TgoKChAVVf+SMU/39YTxRxiEyspyFBWVoSC/COvnb0HBrmK1fK1NeoLLl+VA2bE1G4vnrUBIVAgC00OYSAgIFss9SCz3MLHaAyuRlBSvZnhHRIifQAp8zbTc1/T19/zXmOEzk56uvfY6qUS5t0Cl/L4KoZzfoDa+qTucLSX+OEv4//7v/+qdAFYXnIDG3e5++eUXJWicSMb3wDvh1rYUWzYE2D3O96kbi39vUDxpdT/22GN7rG7ndTg+7vy7p3vwHMfT2TChMJvxd0/Xc4aL8UFR5zNyOIBiTaucccVGBjnnnHPUcsL//e9/uP3229Xveb2LLrpI/ZaNDd6HQxYcuqDl72x41MVlV1yN446fIHkhTBpRkXKdCERHhEp+1HmS6dZS8l9zD1+zXSZn/HFHJT4CK0CeKywulYguwsY/NmPtbxuQlBaPg4Z0R5hkQMv+UVJUiuW/rlYC36ZbIoKSI9WYO5dphYnVHibiHhMZiuLSQrFOOogFH6rSLySk9stQvJ2vGuqPNLdlNqeffjrGjj0VEyacqJbIsdAbgQ8LC5e8X3c3fUuJPy4L5Ox5WtrsZq4L0wBwChQFmN3X3K+eeBJXI3bsIveGwNMaNqJJK9r97wwnBdg0OtwF3L1RUpfAm1UAZiIehxwYP+zFMOd4L85L+Omnn9Q92UXvfGZe39yPPUWMq70JPHsbunXrhlde/0zELAKJcZGIS4xBXHSkWjLHnRWZJ1tK/mvu4au/GdEMMALC2dsU+wgRG2a8jv3bY+gphwChgfj8lR+wfP5qlJWUuX5laQiML8Yb46+sqgKpQ9ohJDWK+xurrVMjpdEUGRkmhVta8FLAI+Qz419vY8nJdXULkKV+2GjVXfRd5XP1EjlS0YrilM9Ny3L+/PmuM56h9UsRo4AZOImOE95oSXMcmiJmuuaJmYFuJqh5AzZEOLGP1/bEP/7xDxWOuib4sSHArWJpkdfVdU5Rfvvtt5WoG9gI4mx9Z1e86bofPnx4jfF3J+Z+X3/9tetM/TAdunbtK41NZkq7Y6W/0+wFnlBE2ENBUaGjBRkdG464hGh0Gd4Zh/y9n1iXZfh09veqizk/23evUW2OMH44j4HxlZdXgA6HiVXeJQ4B4cFiuQcjXCzIyKgQREWHq41s2E3H+I4UcWf817X5hWXfUEvkeus18ETnc7GQXBMXWwvcd56CVh+0bmnlsoubcUNnLGV2RVPoaKE6hY4WLMWNL6zhagVap2b8ns59DL8unGPs/D0t9rp6AXh/Wvf33ntvndfmGD4bCRRfT+E6++yz1XI/5z3M7H1nw4K/4T3atWvnOuMZ3o8NhIbwyiuvYuDg4XbHymZCs++id/rjo3DogpsvVFZWqHWaBQWFKCguRZkIfP6OAuxcsxPb12UhMi4KnXqkoV03CY/VIZZTbFmzDRtWbkVBbiHiO8QjPCUSVaGBqAoMQKhY7CEcbxdxDwkVcY8MRUSEiHp4mJo1Hx4egqysHVKZpNcr7t7OV/6U/zyxv+HbuHEjDj/8cKxcsw4Vknc5kYlxqsfdgyTuQ7XY+yieSVPEH3es3LRpO3r27IT169fXu1TO0riw+58TBJ974UOktk3x6Y6VpDmV37rwdfhahAVvYGVHcWEmCxJLM1JEKDKSVmYEYqOjkJAWjw5DOqDPif2R2DkOG9Zk4KPnv8HvXy1FxvosVLHbqRXB5+Vz//bVEhUP60TcKeppIzoislMsAqPCVHd7eIgW9MioCFWQ46RxFBcTrT5HSyFnPDO+tfjULe6WhmNm0DtfMmPilUfjWjp8xvT0ZNx88xTceOONrrO+gV3kzh4Bp2uodd+SmDRpMs4//xoR9Hgp55L37I6Vfk+LEnjCDMYWpBF5tiqjxdLUXckUJnEiUKk926LLkV3RZ2xvhMSGYO2yTfjwua/x8ycLsW7Jphbbjc/n4hr2nz5eqJ537dKNCIgMQocjOyKhfxuEpkWrmfHBIurhXPYmIh8ZpeNPC3uUisdojrtL44mvLGU8m5a7LeDewbxFjuLuFHjjWhN83jvumIKNG7fhwQcfcp1tfNidzq5wkwZOl5eXV2c3fEtk6oMPYsOGTIw79TS1LJZDcXbHSv+nxQk8MZUgM52e2RmMsMgwxLos0EQRqniKPY/JMUjtm4bOIzqj/ZHpiG4Xgx1ZOZj/5SJ8+vJ3mP/5H1izaCN2bcsBlyk1JxhehnvN4o345bM/8Ik8z69fLEJWZjZC24Si4186IX5AMkLbxyAgIkSJegS738PDpFEUhhgRcY6vx8dXN4xUQ0nikfHJeHWOt9sC7h0oIFrgD5bPPKOLKWfQ63hWX1sNfG7uiMjtXR9++AnMmjXL9ReLL5g5cyamT5uBy6+6UbRdRJ2rZ9RKDrtjpb8TdJfg+lyDA1mvVxfs8qprNqfBW/c1glNVVakEKFisTH4PDeVse4p+EEKYQYMpbGyNBqOkogzxbRMRLVZsXMcExLaNAe+yO7cAW9dux/Jf1mDz6gzs3JqD/JwClKm9mKvk9xS5pqt1K8orsVvCQzHPWL8d65Zuxp+/rcWK39YhZ2ceyirLEBwbioRuCYjuHI+Q5CgERocgUAomRT1Mwh8mws6162Ei7rTYaZ1zEh3H2NV3EfVIEX36Ybc9C7V+k1m15e7L9DX4a/4z7G/4uA3pqFHHolu3LuCcEqI2dZLL6LfI6esx3j3RUuKP5YvIkyMhIQ5DDhuOSddcL+fLcfjhh6m/WRqPhx6ahnvvfQi33/UgOnVop7rjw0L10CeH5yKipE7gstg99YFOz5aS/5p7+ALKyso8NrsaYxLC9u3bkZKS4vrmmcaahGDWyzM+uKSjnNItwsj3GpeJpVteWoaMjO2IiYtFWUkFSl3vPC4vqxT/FSiv4FuTgJJdRSjJK0Jlsfy2qAwlu+mKERgSiHAuE5MMHy6CyM9cex8aHqJ2eGNXVoi4IGlYBAVLdVXHDm8qjBIeinaFVOxlpRIGcaUlZSiVBgXXpBdzH+iCYhQVlKBIPldJGEPlvmEi2sERco8wabDEhSMwKtjx1jHJBFVSAOW+QaoxUqXCwuVuwRJ2WuKh0vAJ4W8lTtVmKiL6gRJP/FsQZ8izmlWCXt2ActKU6euv+Y/ruInTnxEtAwspN6ww4WNh7devH15/by66tW+nJtiphiTzjprnwPSpexkiz7WU+KM/PjufuVTiqFTy/7JlK3D11VdhyJABYs3PdPm0eJuLLroYCxYswhVXTUF6WqoeupO8GRkRjoQ4DtVFqiXJoaznJGOaeoG0pPxHmmv4Wo3AG3+sLJSIuoRet4BE8EVMMzIyEZeYgEqpUFmplshveeRey2Xij35KlNUuv5GMXKnWf0rlzMl5xdIIkL+Vl5TKUc6JIFeWy3mJXnUN+S0Fm+c4uU3t3Sy/lSpahYcFQ/6CACklFGDu7R6o5hFIwWGvgxQubggZKlZ0cKj4ESFWAhwehAr5THgNNkZ4DJEKMUCuw2tRMAKldR0kx4AAjq/zCPEjwi4WOveM51azPAayN0P1cOhxNj4zf8+5DHJQ1zaF2J3WWgCZfgZuN0rHN6BxVi3vmZHBl4/sQE5OjnzPQ0HBTr3Np4g/XyhDcTctcWJa40lJSZIm0kAMjUNiIodLYtVmJjFt2qB9cjLatOmoZu22b5+uVi+0a5ciaaPzkjN8zvRyTzt/iL/6MP4YJ1xzzbgqkMZtdvZu3Hnn3fjjj18wY8b/1HI3i3f44osvcOWV1+KggwbhgosuUw18GjDKAJDPMWLAxMdHi7UaofbBYB3ltN6Jt/MBaa31S33szV+LWibnibr88bGrHYWxClszM9BWKs5ysZ6VE7Esoyi7BJ/fi0XAK8Vilp+oyoaVTjk3exDxpeAr4eY3/o4CLoLKGKZ4q80heO89a0i19caPHNvyiGNcixN74mP1bl5q1qqyzl2fpXDxMwWeQs7eArkqginsyumxMwo4l7tJwqvCGsIXw4iQ828UdE6W43gaXxLD61ZUlClRoNDUJeyG1rCMxeSZhQsXYsmSJVizZo3a3GTp0rVYtWqREuH27Tujc+f2ak1yaloa2kqhbyOiTMGmQNMPu/IiIiIQHs4d6WqnPfNWcXExioqKVNcf054NhJ07d2LHjh2qMuHua2xI0HHf8by8KnTv3xl9u3ZVM/C7dx+AgQP7o3//XirtjPgTc+Tz8rOv4s+wr/5MD5z7jpXvvDUH06Y9gNGjj8R99/1HrW237B/cme+WW27Fp59+g4kTJ+GwEcNVj59zx8pIMSaiY9nYjPHpjpWkNdQvBm/5a7UCbzCPzyMt+NTUVCXEfHlCgIglBZwiTMGvEMudAl8l4i2yinK+C5kNAYo6/07Bl+tUiiun1U6rTDK9Osg/lQG02o1I6GOF3IM4W78GCriBhScnNweJCQlcnYLAKq5PZ+Fj44BHKWTymb0CQeI3NDRUd6mxS57HALayxZ8URo6XSSCV8NMfj05R14W12hLksbmmr5P9CR/TaN26dWq7T+54RsfPHTt2VG8N69u3r9oxjDuk9ezZU4l2U8HGACfn6QbHUuUWLFiGTZtWY9iwYWrW9yGHHIHhw4eiS5f2Kl1NA47PyyMxR3eaOn2ZFixLaujs/9s7F+ioqnOPf0kmyUxmkkkCCYWAtAi0+KC2CsqyUgWxaCu3Cmj1Wukt4qOXuizoVatFV3srlleLV61XoVYUH1SXFeTaRV31Ulupi+UFF6IWW0UQIcgjIYRk8rzf/ztz4JA5CY8Mk8zk/4O9zpkzO3u+8/zvb5+9v633YJ3ei5h7Ys+effLwo7+Wxf/9S5kxc6bc9eMf2xSq5OhAgJz77rvPYtlfc810uXzSZKt4qrpbXxvrTIfgYaGgrudIQWFICgsK9Jzo9/Du9bnT9ppJ9nUAMvH50h7JytfjBd4LarCwD4fESU7zuTXl6/WLWb1i8OD1My5oPGwg+ng/j3CN5r3r0YTQN0LsNUO25rMmfP0O+dG873jwTtmufeah2JqD93bBbyHt2btbepf00nVH2FXZ9b/bBK8pXmmASKNJHc38EPWceH78Br7Dtga1B/ktn5Xv7BOS+5vgWI5fptyAeOCtXr3awneiuRLN6Ag6gwShxIxaXSnkxwqEf+3atVYxeeONNyyVaEURY7zPHTdOLjj7PK3Y4rpq/zoA3eH84vq2VjMVeNxndbGY1B9olJoD9bL+rfWycuUKWbr0Ubn++hvl5punWwWM+IMK4K9+9YAsWvSoTJx4nXx9zIUy+OQvmOOAZwaGweUHAyr26FwbVFEP2utBeO55eXi15y/uINnXAciU5wtIlX0UeA9e+9zD4l1ClPHeFJsgqojwBtG3CoAm5IHX7ngZjbaOuO1YQuSz7Xsnn5Zo5bn2+TXTem8cPHjRNFtWhk5YWrnQ7w6Ku33vrKOJHt+jSR1LJ6969/h9/R5FIu/Rem7He/za42jLS3Y+0JF9aOZeuXKlvPjiixbW9JJLLrEQqXi3e/rpp8dzZQ4bNmyQP/7xj7Jq1Sqbb/0b37hUvvWtb8ol354g/cudawzXg7dZv7KyslucX+c+w3doJXMiVtbXN8iWT7ZJOByRLVt3yO9f+r2seHGZDB78eRX779vMan7Xd08Dx+6pp56SRxcvlg/e36zX+eVy/tiLpKx3qVTV1EhpcUmHESudeBc5JvrtiTtI9f3rkorrrz26o30UeA8d2eceJpSHdZSHJUQaQLiBs61VGvXBo2uSh4qAfoXk5tFPlgc45cE+/3fw3hsI71379HHscx7A+F7LhYDrCkQcXg3WUbt2/9b7kHaX+F2sp+r4uRxtecnOB/zse+aZZ+S5556Tl19+Wa644gq5/PLLbfauoykvU8AxRBz3F7Ry8zs9FuPHT5DvfvdKmXDZRM9rm1YTeLzjdq8hP1J1fnH/WMW5GevNEos1ypZt26UoXCQHYg0SU8GvU+H/82t/1grbClm9eqWe20ly5ZWTe+z5ffbZZVqBfUG+dsHF8vXRl8g5IxHfXjOoYKOlsXZ/jZSX97Khs6EghszmWUwMjAYK5aOzZ8BaT+CL2CvAFF4HIJ31wyXV9lHgPRyrfd5D1/YwOp7+IQHF935HGvlAR/a5N1Jl5Y6DAo9N3hvMFXGvfYd/f/jN2B2OX0ecSPsQUxvBUh5//HF7d37ttdfSw4uD6xQeHqYcxfv8a675N/WArzNh/+yznbZ0PTe/45XK8+vcU4e8ebxiKy4ulbqGRhtOZ0sV+3oV/12Vu+Wvf10jf/nLKnn99VUyZtw4+eb48dZKk8ktNC+/8oq89uqr8rWvXSwjRn1dzvzqV6W0JGrN8Dh9budaNMfvUw++X99yyctXQVfvHcPfsEQHO7T+IV9Li+MYoIWwI07k/dsRqbz+2tId7aPAe0imfX7C7Xeoj9c+v4crtmXK8TsR9uEd9NNPP21BZKZPny433ngj39F2AN7RYmY0JExzetVVU+QrZ50hAevTAc8+UehTfX5dkUdlGqMKepWX26gXePT4WzTdQ+gx2VQs1iSxunprit6w/l1Zu+4N2bBurezZUyVnn/0VGT36XBk1alTa9rFYs+Zvsnr16/Lmm+ukV68SGT58hJwy/Ew5/dRhNmrjMFGP989BJ7pc6yEfUIHfJxV6/0LYMWzWhF2FH+cbeeFEuC2EqTq/XnqSfiQrHwXeA+1LJBPswzCz+++/36bovP32223SEgxZI0cHOh3ef/8vZO7cOTJz5u12DDEfQVaW02nTK/RdcX4BHmPw4MvLP6cipC69IIhVizTAi29ukqZYs9Q3OEGiEN/CGVPfpMLfLJ9u3ykfvL9J3n33bXn/w3dkw6aNMqiszEZHDB9+hpx2WvcbJfHOOxtl/fq35b33NspHu3bJaUO+LEOHDJMvDj1VBp98spSX9TJBt0ierSrIuYgZHxf1eDRPNLlb/AsV92Benuyt3iMVffvq9lz10NGzx8nfHc4v4PMvkSPl63GBbjqC9iWS7vYtWbJEfvrTn9p82T/72c84TroTQEDvvvtua/qdNWu2TJ78L5IFDy8uBF3t4eH6K1Nhhtij2R59XtpGrKw/UK+ij62t7UasbG5qlQ83b5FPNG3d/pFs+3izbNv2iT7A/6lil21xDgYM6CsV/ftLRb8Kfaj3SXqcgx07Ku030flz69btmj6y/erTZ5BUVAyQvgNgw0AZeNJJ0q+fXtPmnUOEdbVVK10Qc618adXnqCJW5mr+6uq90lv3paOIlck+b8d6fvn8O5wj5aPAe6B9iaSrfYgU96Mf/ciGhC1cuJCRzpIIhg5Onz5DzjpnpPzi57Mtoll3eEfrvf4ghl6ht5gUKnb19TEtEzEpdHs8gNWxRKys2r1XKqt223LXbgjyTqlSz7dhf7UK9T4V6hqpiu2XpppaFfFaFW309K8+aJMrltnZUYlGccwiEigMS3F+xAkeU1CoxxORC1FZKJOi0iLpbRWHEikudYJcoYxkR6zUUnVfdlkcED9hd0nV/esHn3+JHCkfm+g90L5E0tG+9957T6ZOnSrDhw+XRx55JL6VJJtp066XdevekQf1GJ/6xcHmDXa3Xtau0Dspy5rsMb4lVwUxlRErQVXVPimORuOf2qB5gVOWSE6Ws782ggH/dJutm3gjX3IjVna3URJ+8PmXyJHy4UULIRnD2rVrZfz48TbkjeJ+YnnssUflqqsmyaRvX67Hfb0cONCgwococ47n3I7vkFIgVubZaoIAQtgwMUoggGFfeTbtcUQTpkAuKipwppAujlgqKQlLaXGhlJRqKnE+FxdGJFro5EN+TJ+MFCkMSTiCCG9B/axlhp0plxH9DUPNnJQrBaHEFA45w9Es6d+Eg5i9Md/KQXkoF+XbVM1IsBPTXes67IFdZp/aafa6tuo+RKMR/TvdN90/7Cf2F+/Ybf/tODgVA/cYdSTuJP2gB++B9iWSTvah89FFF10ks2bNMg+epIZFixfLvffMlmXLnpdBg0/q9pHO8MhDeVg66cRHrERCZ0WE0PU+cL1HxvktePBqH5rebbSCfhF/n+40wWvSAlAePO9kRawEfL4kku72UeA90L5E0sm+8847z4KYzJw507aR1DFnzlx56aWVsmTJ0rSKVe4+/rxLiLITxwLN4smJWAk+++wz64zXFu+xQQsIPsM+iHSqIlYCPl8SSXf7cM0Qkvbcc8890r9//+MS9+9973v20POmAQMGWK9xlxUrVljv6Lfeesv3s0t7273gO+RBLHj0oHbBOra5f+9nl59tXtwy8LdevNvxtyijbblt7TkW/uM/bpO+fctlwYKFcqC2ziaCgYeLDmuOaPr6EV2Ou+8moPHkNOWj8xk8ZHRGgzeMzmkYPhZv2s93QrcGw0EJoUITzpeiSEiK0VwfQTN6ON6MjyWa9NGUHzy47k1FRSHPupvCVg7KQ7koP6RLJPwuZnaDHc6QtlyzD3bCXtgN+71N70juvpKeAwWepD0YSoQhcHPmzIlvOXamTJlyUIiQEAjnzjvvtO8geosXL5YxY8bIq6++atsuvfRSueuuu+TWW289KIoQzh/84AeydOlSm7mtI6LRqDXZ4rWCC9axDd8BRJODLQjggsrL8uXL7TMi8bU33A/DsxDMBz3dUdlweeihh2z54IMP2hK45SHV1NTYNjff8fDLX86XX/96nmzZvF0O7K+zGPEII4sOaviNdMAVQT/Rd9/hI2GcuCv+edZxzRFaG4amouskpyKA5Ijxoc9tU2JepwzrIKfluu/MXRHH77vvz93ktde7H6TnQoEnaQ8E9YYbbjCvNFkgyAnmWId4uyJ8yy23mHi63jOiuwFXFDHmHsPxIP5HAu9iR48efbDCALCObZ2d6hTij+hzqGzAViTYPW/ePKsA+IHt6JyIEQjHC47/1KnT5He/f0kOHIjZkLRYTL14q0Q476LTEa9YekXUTV6RdT3/tskVZCzbS23/xkmHl+/3+177CPFCgSdpD2ZDmzhxYvxTcnjhhRdk4MCBJnwQXoQwPf/8820OeMwJD/DdjBkzzCuGtwwRnT17tn13NCBMLmauQyUCac2aNdZJMBmguX3w4MFW6UBLxNVXX91hqwJ+H7YMGzYsvuX4wGQu//fm/0ptXUwTwsTGbHy50zEtPQW+I7zi6iY/ET7e5Fc+IUdLNl7SpyqhE4rf9u6SaF/nUlfYh05O8DrPOuus+CV9fDzxxBOHPUThvUO4XeFFJDyAigTE3wXeOrz2CRMmmIgeS6S8kSNHHmymd1sJvvSlL9mys6DyAY8d4XnRXI8JddoCm939LSwstAoNwtB2BpyHDz54V+rq6tWLPyB1+2O6jvCwjXaukPzOYzIS74/OJdrXudQd7aMHT9Ke66+/XhAitDO0fQf/2muvmUhCeP/0pz+ZcEEIIYoQTLeZHvzwhz+0oDp+ItoRqAygRQDv2NFKgH3AbyYLeOyY/hb9CfwqHu47eLRI4B0/9qOzYB+uuupaCwdrk7tA2BF1TR9+bm9yQkhqyEb3+lQlNDn5be8uifZ1LnWVfY899phUVzvhQJMNZp6DSHrFHx47mr6TAVoE0IEPzePJfs1wtKAigEoAhhh6Ky7HA+KpP/vsk9LSakPCbdy4WLQ0THCCzmj+5zAZifdH5xLt61zqjvbRgydpDQQX743Xrl0b35I8IHbw1tsKL37PfXfeWfr162ctBP/4xz86/ZqhM6DDoPvOvjOgNWDQoFMF48CltcV60EPknXHhh8abE0JOPBR4kvaMGzfusPfiycLtTNdWePE+HuPU0YzfWTANKTxotAocy/v7ZON2GMQ7+47G8B+JZ555Vs44a5QnDru7JISkGkay80D7Eunu9jU0NMjWrZUyZMhA6xiXzKFy5NjA+Hx01Pvtkv+RPp8rl8JIUKKFYSktLbQ46hjXjaFfaMrMlOuP9vlD+/xJtX304Elag45v/fqVyx133C233XZbfGvX014UOiRvAJrj5USXfzzccssMmTLlZhX0YhXxLD05zhhusfHbsM05X4SQ1ECBJ2kPRGPWrLtky5YdMnfuvPjWrsWNQueXjiYQzpE40eUfK3PmzpWPP66UyyZdYZOjIA59Xm6OBPICErDJTyjuhKQaCjxJezBDFua2RkS5hQsfkUWLFsW/IakAoxgWzH9Ibpx+m2q7irqmfBX2/HxNCN+qAo/zg/NECEkdFHiS1rjN0iofMnToyfLbpUvk3nvvl/nzF8RzkBPJvHnz5Sc/+bn85N65UtG3j2QFECvdiceOSVFyg4ilnmPnxz1XhJDUQIEnaY8JPObJzg3IiDPOkGXLlslTTz0n1103LZ6DnAi+//3rZOnS5+Q/Z/+XDPrCQGuaz8uB554r4VC+FATzJZSXb+cF54fiTkhqydq+fbtvuxnC7gH0eHXBDYp3fC74jCkhgZuvbR4vtbW1Eg6H45/88ftdP2ifPz3VPoBVzF5WWxuT6upamTNngWzc+JY8/PBCG4ZGkgNiA9x0080yZMhw+c6/TpHcQEA9d4h7juSq915YkC+RSEivhaCEQpivHAJ/+Lnk/eEP7aN9IFn2cZicB9qXSLrYhyhpuJQbG5140AfqG/SGq5MXX1gu8+f/Qi688DyZPfu+Lh1rnu4g8M8dd9wpq1atlqlTb5FR554j2Wg5wTt39doxR3lBfo5EikJSVFSoHnyenT/MlIYHD5JLsq8DwPsjEdrnT0+xr+NqBCFpgisg6L0NsQ+p2ITDIbnssgmyfPkrEgiWWNS4mbfeahO8kKMHxwvz3uP4tbQUysOPPCHnnjcKca7Ve8+VgpAKu3rtUfXa4bkX6HHH8XdC06JzHd+9E9IVUOBJxgARQUsVRAUJHmSkKCjl5SUyc8YMefrpFVK5o0Z69eolN9xwk2zcuDH+l8QPHJ9p026w47V5c7U88NCzcvU135X8ggL13AMSzAuomOdKOBK0QDZFRQUSLgxJ2Dz3HPXcEZ/bOS+EkNRDgScZBcQEwVUgLmi2CoeC6skHpVgFaNDggXLHj++QlX94Q1pziuTCC78lF1wwVp588sl236v1NHAccDzOP3+sjB37TWluDssTT70iU6dNk97lvR1h12MbLlCvXY9rkR7XaFHYji+OMzrX5WgeijshXQ8FnmQchzx5iL16mSpG4XC+epohKYqEZdCgAfLvN90gLy7/g1x88Xfk8cd/Z5WByZOvlOeff/7ge62eAvYX+z1p0hV2HBY98ZyMHjNRfvPbZTL5yu9IWXmZCXs+Kkwm7CHz2KPRsEQLI7YeUS8exxnH2wlHS3EnpKuhwJOMxBF5RFRzRD4vT0U+mBdvSoYwaVKB+sbFY2X2nLmyfPnrMmTISHnggcfU+8yVsRddJAsWLJANGzbES8wssF/YvzHjxtn+Llz4Gzlp0JmyZOkf5I7bZsk5o0Zaz/iAfhfMz5WIVpBCBfkeYQ/bccQ790hB0Mo4JO4cEkdId4C96D3QvkTS3T5c3k7Kkk8//VR6lZdLS2OzxGKN9rf19Q1S19AojZpisSaJ1dVLVU2NbFj/rqxd94ZsWLdW9uypkrPP/oqMHn2ujBo1SkaMGCGhUCj+C92furo6m053zZq/yerVr8ubb66TXr1KZPjwEXLK8DPl9FOH2WxyrSbMeiwRjS4HceSzLQpdrvWQD8i+mn1Soec3L5Rn3jx6zmcjHK3FnMffttqwHYh7qs6vF94fidA+f3qKfRR4D7QvkUyxD5c5hnmVl39ORQhjTFtsSF2DCntDc5M0xZqlvqFB6g/EJKZlYh7zZt3e2NAsn27fKR+8v0neffdtef/Dd2TDpo0yqKxMTjnlFBXJM+S0006xaV+HDh3apcIPId+0aZP8/e9/l3fe2Sjr178t7723UT7atUtOG/JlGTpkmHxx6Kky+OSTpbyslwl6a2uLZLeqIKPPgivqeRiJgFYPp1k+V8U9mJcne6v3SEXfvhalDkPf0ABoAYbizfFIXXV+Ae+PRGifPz3FvqzGxsaUCfzOnTv1AVse/+RPqg+AF9qXSKbZV6bCDLFHHImWllZpUqGXJoi9irkKf/2BehV9bG2VRhV9iD++a9LKQEtLszSph9rc1Cofbt4in2jauv0j2fbxZtm27RO9wf9pzdP9+39eBgzoKxX9+0tFvwq96ftI7969rTd6cXGxFBUVmceMykAwGFSRzIlbeAh4wvX19Sba+/fvl3379klVVZXs3r1bdqlg79hRab+5bds22bp1u6aPbL/69BkkFRUDpO8A2DBQBp50kvTr11e12B2LrqutWTZ+PQczvul+5qDHeyBXRV7FXYUe0ehy83MkT48pRD4AQdf81dV7pbfuS0CFHbPDeYXdpavPL++Pw6F9/vQU+yjwHmhfIplqH8TQK/RO5KhWFdWYlqlirpqFpvxGNOfrb2DZgkqA5mtq0m31jeb9QjFb1NvH3zdrOVW790pl1W5b7toNQd4pVer5NuyvVqHep0JdI1Wx/dJUU6siXquireW2VB+0yRXL7OyoRKPoQxCRQGFYivMjTvCYgkKtHESltBSVhTIpKi2S3lZxKJHi0mL7W5SBygiWudkByVIxhpij8pGdg3WIPd6vO03yufo5N5iv4p7jeOy6RNM7hD6A9/BaAdBSdV92aQWij6+wu3SX89setK99aF8i6W4fm+g90L5EMt0+V+idlGVN9s0q9LkqiBB6SyqWjSrqruDjc32sQT+rn68aB28bTfpNmvSTCT5eA9gn/J2KPwQVd5r+in52brlWzILnuf2qqvZJcTQa/9SG+ExsTlmYYt3ZX5tn3SZyia+beCNfswk5QsdqbglA2C3perYj4Lkq3voAUEFXUcfEMIgfgPfvWAaybAY4TBLjzOXeKpWVlRYJ0E/YXbrb+W0L7Wsf2pdIutvHXvSkRwOxMs9WEwQQwoaY6oFArvW8z0dcdU1FYYRfdXqQFxdHLJWUhKW0uFBKSjWVOJ+LCyMSjfc0R370OrdhZAgAEwlJYQGCwmiZYU0hpKCE1Xt2EqLCJaZwCCMA4nn0b8LBoP09ykF5KBfl2wgBJNhpIwUKzB7YZfapnWava6vuQzSKYW66b7p/2E/sL96x2/7bcXAqBu4x6kjcCSHdCwo8IYrb5OwIGWLbu2KPJcTeEfxgWAUaAV6wNDENmYg6oh8X0pJC6VVSJKUqnvhcrKn0oKiiElAoxQgOg/V4ZQEVAghtsf4NRNdNzmdnSJ/lxbZiFW4LLqPl2G9qRcPK11Sqv6V5HCGPi3n8N2An7EUFAIKO/XAEPc8j6s5+O6KOVgFH1CnshKQfFHhC2nC42DuePRJ6jkMA0cMc477Nw8/PPyj60YjjrTvee8gRafOiNUFwVWSLVHRLVYRNfKPwqJ1WAFQIINq27knud1Zh0PUSLRt/h79HOSjPEXCn0gAb8Lsm4vEWhCK0HKh9sBP2wm533Dr2B/vl7qO7zxR1QtIfCjwhHdBW7F3BdzqfqYefh85oh0T/MOEPOh5/CM3n4XwTWoh9REXYgu1YRQBLiDLEWCsJ8XVvcioL7rqbEGTGqTw4Ap4vIV0i4Xcxs5vrmXvFHPbCbtjvFXQkijohmQUFnpBjwBVBP9F3hN9J5u3HxT/POq45QmvD0Ky5/1BFwPWqvZ/bpsS8ThnWQU7Ldd+ZuyKO33eb2t3ktde7H4SQzIQCT0gn8YqlV0Td5BVZ1/Nvm1xBxrK91PZvnHR4+X6/77WPENJzoMATcgLxiqub/ET4eJNf+YQQAhjoxgPtS4T2+UP7/KF97UP7EqF9/iQrHz14QgghJANhJDsPtC8R2ucP7fOH9rUP7UuE9vmTrHz04AkhhJAMhAJPCCGEZCAUeEIIISQDocATQgghGQgFnhBCCMlAKPCEEEJIBkKBJ4QQQjIQRrLzQPsSoX3+0D5/aF/70L5EaJ8/ycpHD54QQgjJQBjJzgPtS4T2+UP7/KF97UP7EqF9/iQrHz14QgghJAOhwBNCCCEZCAWeEEIIyUAo8IQQQkgGQoEnhBBCMhAKPCGEEJKBUOAJIYSQDIQCTwghhGQgWdu3b/cNdNPS0mLL7OxDdYCsrCzxxsXB5+bmZlt387XN46W2tlbC4XD8kz9+v+sH7fOH9tE+QPv8oX20D/QU+xjJzgPtS4T2+UP7/KF97UP7EqF9/iQrX8fVCEIIIYSkJRR4QgghJAOhwBNCCCEZCAWeEEIIyUAo8IQQQkgGQoEnhBBCMhAKPCGEEJKBZDU2NqZsHPzOnTulvLw8/smfVI8T9EL7EqF9/tA+f2hf+9C+RGifP8nKRw+eEEIIyUAYyc4D7UuE9vlD+/yhfe1D+xKhff4kKx89eEIIISQDocATQgghGYfI/wNIl+FWk/1qqAAAAABJRU5ErkJggg==;" vertex="1" parent="y-TOsAkke1c8q-5eCv3_-508">
          <mxGeometry x="980" y="50" width="504" height="406" as="geometry" />
        </mxCell>
      </root>
    </mxGraphModel>
  </diagram>
</mxfile>
